G75*
%MOIN*%
%OFA0B0*%
%FSLAX25Y25*%
%IPPOS*%
%LPD*%
%AMOC8*
5,1,8,0,0,1.08239X$1,22.5*
%
%ADD10C,0.02400*%
%ADD11C,0.00512*%
%ADD12C,0.00600*%
%ADD13C,0.02000*%
%ADD14C,0.00500*%
%ADD15R,0.42000X0.03000*%
%ADD16R,0.07500X0.02000*%
%ADD17R,0.03000X0.02000*%
%ADD18R,0.02400X0.03400*%
%ADD19R,0.03400X0.02400*%
%ADD20C,0.01200*%
%ADD21R,0.07362X0.02000*%
%ADD22R,0.03346X0.02500*%
D10*
X0032595Y0002513D02*
X0472595Y0002513D01*
X0472595Y0302513D01*
X0032595Y0302513D01*
X0032595Y0002513D01*
X0032595Y0302513D02*
X0027595Y0302513D01*
D11*
X0032595Y0002513D02*
X0004918Y0002513D01*
X0012595Y0002769D02*
X0013619Y0012749D01*
X0013852Y0012749D02*
X0012595Y0002769D01*
X0011572Y0012749D01*
X0011338Y0012749D02*
X0013852Y0012749D01*
X0013107Y0012749D02*
X0012595Y0002769D01*
X0012083Y0012749D01*
X0011338Y0012749D02*
X0012595Y0002769D01*
X0012595Y0302257D01*
X0013619Y0292277D01*
X0013852Y0292277D02*
X0012595Y0302257D01*
X0011572Y0292277D01*
X0011338Y0292277D02*
X0013852Y0292277D01*
X0013107Y0292277D02*
X0012595Y0302257D01*
X0012083Y0292277D01*
X0011338Y0292277D02*
X0012595Y0302257D01*
X0004918Y0302513D02*
X0032595Y0302513D01*
X0042831Y0003770D02*
X0042831Y0001256D01*
X0032851Y0002513D01*
X0042831Y0001489D01*
X0042831Y0002001D02*
X0032851Y0002513D01*
X0042831Y0003536D01*
X0042831Y0003770D02*
X0032851Y0002513D01*
X0042831Y0003025D01*
X0032851Y0002513D02*
X0472339Y0002513D01*
X0462359Y0001489D01*
X0462359Y0001256D02*
X0472339Y0002513D01*
X0462359Y0003536D01*
X0462359Y0003770D02*
X0462359Y0001256D01*
X0462359Y0002001D02*
X0472339Y0002513D01*
X0462359Y0003025D01*
X0462359Y0003770D02*
X0472339Y0002513D01*
X0472595Y0002513D02*
X0472595Y0002513D01*
X0032595Y0002513D02*
X0032595Y0002513D01*
D12*
X0093095Y0051013D02*
X0093095Y0052513D01*
X0093595Y0053013D01*
X0093595Y0072013D01*
X0093095Y0072513D01*
X0093095Y0074013D01*
X0093097Y0074073D01*
X0093102Y0074134D01*
X0093111Y0074193D01*
X0093124Y0074252D01*
X0093140Y0074311D01*
X0093160Y0074368D01*
X0093183Y0074423D01*
X0093210Y0074478D01*
X0093239Y0074530D01*
X0093272Y0074581D01*
X0093308Y0074630D01*
X0093346Y0074676D01*
X0093388Y0074720D01*
X0093432Y0074762D01*
X0093478Y0074800D01*
X0093527Y0074836D01*
X0093578Y0074869D01*
X0093630Y0074898D01*
X0093685Y0074925D01*
X0093740Y0074948D01*
X0093797Y0074968D01*
X0093856Y0074984D01*
X0093915Y0074997D01*
X0093974Y0075006D01*
X0094035Y0075011D01*
X0094095Y0075013D01*
X0101095Y0075013D01*
X0101155Y0075011D01*
X0101216Y0075006D01*
X0101275Y0074997D01*
X0101334Y0074984D01*
X0101393Y0074968D01*
X0101450Y0074948D01*
X0101505Y0074925D01*
X0101560Y0074898D01*
X0101612Y0074869D01*
X0101663Y0074836D01*
X0101712Y0074800D01*
X0101758Y0074762D01*
X0101802Y0074720D01*
X0101844Y0074676D01*
X0101882Y0074630D01*
X0101918Y0074581D01*
X0101951Y0074530D01*
X0101980Y0074478D01*
X0102007Y0074423D01*
X0102030Y0074368D01*
X0102050Y0074311D01*
X0102066Y0074252D01*
X0102079Y0074193D01*
X0102088Y0074134D01*
X0102093Y0074073D01*
X0102095Y0074013D01*
X0102095Y0072513D01*
X0101595Y0072013D01*
X0101595Y0053013D01*
X0102095Y0052513D01*
X0102095Y0051013D01*
X0102093Y0050953D01*
X0102088Y0050892D01*
X0102079Y0050833D01*
X0102066Y0050774D01*
X0102050Y0050715D01*
X0102030Y0050658D01*
X0102007Y0050603D01*
X0101980Y0050548D01*
X0101951Y0050496D01*
X0101918Y0050445D01*
X0101882Y0050396D01*
X0101844Y0050350D01*
X0101802Y0050306D01*
X0101758Y0050264D01*
X0101712Y0050226D01*
X0101663Y0050190D01*
X0101612Y0050157D01*
X0101560Y0050128D01*
X0101505Y0050101D01*
X0101450Y0050078D01*
X0101393Y0050058D01*
X0101334Y0050042D01*
X0101275Y0050029D01*
X0101216Y0050020D01*
X0101155Y0050015D01*
X0101095Y0050013D01*
X0094095Y0050013D01*
X0094035Y0050015D01*
X0093974Y0050020D01*
X0093915Y0050029D01*
X0093856Y0050042D01*
X0093797Y0050058D01*
X0093740Y0050078D01*
X0093685Y0050101D01*
X0093630Y0050128D01*
X0093578Y0050157D01*
X0093527Y0050190D01*
X0093478Y0050226D01*
X0093432Y0050264D01*
X0093388Y0050306D01*
X0093346Y0050350D01*
X0093308Y0050396D01*
X0093272Y0050445D01*
X0093239Y0050496D01*
X0093210Y0050548D01*
X0093183Y0050603D01*
X0093160Y0050658D01*
X0093140Y0050715D01*
X0093124Y0050774D01*
X0093111Y0050833D01*
X0093102Y0050892D01*
X0093097Y0050953D01*
X0093095Y0051013D01*
X0086095Y0060013D02*
X0079095Y0060013D01*
X0079035Y0060015D01*
X0078974Y0060020D01*
X0078915Y0060029D01*
X0078856Y0060042D01*
X0078797Y0060058D01*
X0078740Y0060078D01*
X0078685Y0060101D01*
X0078630Y0060128D01*
X0078578Y0060157D01*
X0078527Y0060190D01*
X0078478Y0060226D01*
X0078432Y0060264D01*
X0078388Y0060306D01*
X0078346Y0060350D01*
X0078308Y0060396D01*
X0078272Y0060445D01*
X0078239Y0060496D01*
X0078210Y0060548D01*
X0078183Y0060603D01*
X0078160Y0060658D01*
X0078140Y0060715D01*
X0078124Y0060774D01*
X0078111Y0060833D01*
X0078102Y0060892D01*
X0078097Y0060953D01*
X0078095Y0061013D01*
X0078095Y0062513D01*
X0078595Y0063013D01*
X0078595Y0082013D01*
X0078095Y0082513D01*
X0078095Y0084013D01*
X0078097Y0084073D01*
X0078102Y0084134D01*
X0078111Y0084193D01*
X0078124Y0084252D01*
X0078140Y0084311D01*
X0078160Y0084368D01*
X0078183Y0084423D01*
X0078210Y0084478D01*
X0078239Y0084530D01*
X0078272Y0084581D01*
X0078308Y0084630D01*
X0078346Y0084676D01*
X0078388Y0084720D01*
X0078432Y0084762D01*
X0078478Y0084800D01*
X0078527Y0084836D01*
X0078578Y0084869D01*
X0078630Y0084898D01*
X0078685Y0084925D01*
X0078740Y0084948D01*
X0078797Y0084968D01*
X0078856Y0084984D01*
X0078915Y0084997D01*
X0078974Y0085006D01*
X0079035Y0085011D01*
X0079095Y0085013D01*
X0086095Y0085013D01*
X0086155Y0085011D01*
X0086216Y0085006D01*
X0086275Y0084997D01*
X0086334Y0084984D01*
X0086393Y0084968D01*
X0086450Y0084948D01*
X0086505Y0084925D01*
X0086560Y0084898D01*
X0086612Y0084869D01*
X0086663Y0084836D01*
X0086712Y0084800D01*
X0086758Y0084762D01*
X0086802Y0084720D01*
X0086844Y0084676D01*
X0086882Y0084630D01*
X0086918Y0084581D01*
X0086951Y0084530D01*
X0086980Y0084478D01*
X0087007Y0084423D01*
X0087030Y0084368D01*
X0087050Y0084311D01*
X0087066Y0084252D01*
X0087079Y0084193D01*
X0087088Y0084134D01*
X0087093Y0084073D01*
X0087095Y0084013D01*
X0087095Y0082513D01*
X0086595Y0082013D01*
X0086595Y0063013D01*
X0087095Y0062513D01*
X0087095Y0061013D01*
X0087093Y0060953D01*
X0087088Y0060892D01*
X0087079Y0060833D01*
X0087066Y0060774D01*
X0087050Y0060715D01*
X0087030Y0060658D01*
X0087007Y0060603D01*
X0086980Y0060548D01*
X0086951Y0060496D01*
X0086918Y0060445D01*
X0086882Y0060396D01*
X0086844Y0060350D01*
X0086802Y0060306D01*
X0086758Y0060264D01*
X0086712Y0060226D01*
X0086663Y0060190D01*
X0086612Y0060157D01*
X0086560Y0060128D01*
X0086505Y0060101D01*
X0086450Y0060078D01*
X0086393Y0060058D01*
X0086334Y0060042D01*
X0086275Y0060029D01*
X0086216Y0060020D01*
X0086155Y0060015D01*
X0086095Y0060013D01*
X0128095Y0062513D02*
X0128595Y0062013D01*
X0128595Y0043013D01*
X0128095Y0042513D01*
X0128095Y0041013D01*
X0128097Y0040953D01*
X0128102Y0040892D01*
X0128111Y0040833D01*
X0128124Y0040774D01*
X0128140Y0040715D01*
X0128160Y0040658D01*
X0128183Y0040603D01*
X0128210Y0040548D01*
X0128239Y0040496D01*
X0128272Y0040445D01*
X0128308Y0040396D01*
X0128346Y0040350D01*
X0128388Y0040306D01*
X0128432Y0040264D01*
X0128478Y0040226D01*
X0128527Y0040190D01*
X0128578Y0040157D01*
X0128630Y0040128D01*
X0128685Y0040101D01*
X0128740Y0040078D01*
X0128797Y0040058D01*
X0128856Y0040042D01*
X0128915Y0040029D01*
X0128974Y0040020D01*
X0129035Y0040015D01*
X0129095Y0040013D01*
X0136095Y0040013D01*
X0136155Y0040015D01*
X0136216Y0040020D01*
X0136275Y0040029D01*
X0136334Y0040042D01*
X0136393Y0040058D01*
X0136450Y0040078D01*
X0136505Y0040101D01*
X0136560Y0040128D01*
X0136612Y0040157D01*
X0136663Y0040190D01*
X0136712Y0040226D01*
X0136758Y0040264D01*
X0136802Y0040306D01*
X0136844Y0040350D01*
X0136882Y0040396D01*
X0136918Y0040445D01*
X0136951Y0040496D01*
X0136980Y0040548D01*
X0137007Y0040603D01*
X0137030Y0040658D01*
X0137050Y0040715D01*
X0137066Y0040774D01*
X0137079Y0040833D01*
X0137088Y0040892D01*
X0137093Y0040953D01*
X0137095Y0041013D01*
X0137095Y0042513D01*
X0136595Y0043013D01*
X0136595Y0062013D01*
X0137095Y0062513D01*
X0137095Y0064013D01*
X0137093Y0064073D01*
X0137088Y0064134D01*
X0137079Y0064193D01*
X0137066Y0064252D01*
X0137050Y0064311D01*
X0137030Y0064368D01*
X0137007Y0064423D01*
X0136980Y0064478D01*
X0136951Y0064530D01*
X0136918Y0064581D01*
X0136882Y0064630D01*
X0136844Y0064676D01*
X0136802Y0064720D01*
X0136758Y0064762D01*
X0136712Y0064800D01*
X0136663Y0064836D01*
X0136612Y0064869D01*
X0136560Y0064898D01*
X0136505Y0064925D01*
X0136450Y0064948D01*
X0136393Y0064968D01*
X0136334Y0064984D01*
X0136275Y0064997D01*
X0136216Y0065006D01*
X0136155Y0065011D01*
X0136095Y0065013D01*
X0129095Y0065013D01*
X0129035Y0065011D01*
X0128974Y0065006D01*
X0128915Y0064997D01*
X0128856Y0064984D01*
X0128797Y0064968D01*
X0128740Y0064948D01*
X0128685Y0064925D01*
X0128630Y0064898D01*
X0128578Y0064869D01*
X0128527Y0064836D01*
X0128478Y0064800D01*
X0128432Y0064762D01*
X0128388Y0064720D01*
X0128346Y0064676D01*
X0128308Y0064630D01*
X0128272Y0064581D01*
X0128239Y0064530D01*
X0128210Y0064478D01*
X0128183Y0064423D01*
X0128160Y0064368D01*
X0128140Y0064311D01*
X0128124Y0064252D01*
X0128111Y0064193D01*
X0128102Y0064134D01*
X0128097Y0064073D01*
X0128095Y0064013D01*
X0128095Y0062513D01*
X0183095Y0072513D02*
X0183095Y0074013D01*
X0183097Y0074073D01*
X0183102Y0074134D01*
X0183111Y0074193D01*
X0183124Y0074252D01*
X0183140Y0074311D01*
X0183160Y0074368D01*
X0183183Y0074423D01*
X0183210Y0074478D01*
X0183239Y0074530D01*
X0183272Y0074581D01*
X0183308Y0074630D01*
X0183346Y0074676D01*
X0183388Y0074720D01*
X0183432Y0074762D01*
X0183478Y0074800D01*
X0183527Y0074836D01*
X0183578Y0074869D01*
X0183630Y0074898D01*
X0183685Y0074925D01*
X0183740Y0074948D01*
X0183797Y0074968D01*
X0183856Y0074984D01*
X0183915Y0074997D01*
X0183974Y0075006D01*
X0184035Y0075011D01*
X0184095Y0075013D01*
X0191095Y0075013D01*
X0191155Y0075011D01*
X0191216Y0075006D01*
X0191275Y0074997D01*
X0191334Y0074984D01*
X0191393Y0074968D01*
X0191450Y0074948D01*
X0191505Y0074925D01*
X0191560Y0074898D01*
X0191612Y0074869D01*
X0191663Y0074836D01*
X0191712Y0074800D01*
X0191758Y0074762D01*
X0191802Y0074720D01*
X0191844Y0074676D01*
X0191882Y0074630D01*
X0191918Y0074581D01*
X0191951Y0074530D01*
X0191980Y0074478D01*
X0192007Y0074423D01*
X0192030Y0074368D01*
X0192050Y0074311D01*
X0192066Y0074252D01*
X0192079Y0074193D01*
X0192088Y0074134D01*
X0192093Y0074073D01*
X0192095Y0074013D01*
X0192095Y0072513D01*
X0191595Y0072013D01*
X0191595Y0053013D01*
X0192095Y0052513D01*
X0192095Y0051013D01*
X0192093Y0050953D01*
X0192088Y0050892D01*
X0192079Y0050833D01*
X0192066Y0050774D01*
X0192050Y0050715D01*
X0192030Y0050658D01*
X0192007Y0050603D01*
X0191980Y0050548D01*
X0191951Y0050496D01*
X0191918Y0050445D01*
X0191882Y0050396D01*
X0191844Y0050350D01*
X0191802Y0050306D01*
X0191758Y0050264D01*
X0191712Y0050226D01*
X0191663Y0050190D01*
X0191612Y0050157D01*
X0191560Y0050128D01*
X0191505Y0050101D01*
X0191450Y0050078D01*
X0191393Y0050058D01*
X0191334Y0050042D01*
X0191275Y0050029D01*
X0191216Y0050020D01*
X0191155Y0050015D01*
X0191095Y0050013D01*
X0184095Y0050013D01*
X0184035Y0050015D01*
X0183974Y0050020D01*
X0183915Y0050029D01*
X0183856Y0050042D01*
X0183797Y0050058D01*
X0183740Y0050078D01*
X0183685Y0050101D01*
X0183630Y0050128D01*
X0183578Y0050157D01*
X0183527Y0050190D01*
X0183478Y0050226D01*
X0183432Y0050264D01*
X0183388Y0050306D01*
X0183346Y0050350D01*
X0183308Y0050396D01*
X0183272Y0050445D01*
X0183239Y0050496D01*
X0183210Y0050548D01*
X0183183Y0050603D01*
X0183160Y0050658D01*
X0183140Y0050715D01*
X0183124Y0050774D01*
X0183111Y0050833D01*
X0183102Y0050892D01*
X0183097Y0050953D01*
X0183095Y0051013D01*
X0183095Y0052513D01*
X0183595Y0053013D01*
X0183595Y0072013D01*
X0183095Y0072513D01*
X0198095Y0082513D02*
X0198595Y0082013D01*
X0198595Y0063013D01*
X0198095Y0062513D01*
X0198095Y0061013D01*
X0198097Y0060953D01*
X0198102Y0060892D01*
X0198111Y0060833D01*
X0198124Y0060774D01*
X0198140Y0060715D01*
X0198160Y0060658D01*
X0198183Y0060603D01*
X0198210Y0060548D01*
X0198239Y0060496D01*
X0198272Y0060445D01*
X0198308Y0060396D01*
X0198346Y0060350D01*
X0198388Y0060306D01*
X0198432Y0060264D01*
X0198478Y0060226D01*
X0198527Y0060190D01*
X0198578Y0060157D01*
X0198630Y0060128D01*
X0198685Y0060101D01*
X0198740Y0060078D01*
X0198797Y0060058D01*
X0198856Y0060042D01*
X0198915Y0060029D01*
X0198974Y0060020D01*
X0199035Y0060015D01*
X0199095Y0060013D01*
X0206095Y0060013D01*
X0206155Y0060015D01*
X0206216Y0060020D01*
X0206275Y0060029D01*
X0206334Y0060042D01*
X0206393Y0060058D01*
X0206450Y0060078D01*
X0206505Y0060101D01*
X0206560Y0060128D01*
X0206612Y0060157D01*
X0206663Y0060190D01*
X0206712Y0060226D01*
X0206758Y0060264D01*
X0206802Y0060306D01*
X0206844Y0060350D01*
X0206882Y0060396D01*
X0206918Y0060445D01*
X0206951Y0060496D01*
X0206980Y0060548D01*
X0207007Y0060603D01*
X0207030Y0060658D01*
X0207050Y0060715D01*
X0207066Y0060774D01*
X0207079Y0060833D01*
X0207088Y0060892D01*
X0207093Y0060953D01*
X0207095Y0061013D01*
X0207095Y0062513D01*
X0206595Y0063013D01*
X0206595Y0082013D01*
X0207095Y0082513D01*
X0207095Y0084013D01*
X0207093Y0084073D01*
X0207088Y0084134D01*
X0207079Y0084193D01*
X0207066Y0084252D01*
X0207050Y0084311D01*
X0207030Y0084368D01*
X0207007Y0084423D01*
X0206980Y0084478D01*
X0206951Y0084530D01*
X0206918Y0084581D01*
X0206882Y0084630D01*
X0206844Y0084676D01*
X0206802Y0084720D01*
X0206758Y0084762D01*
X0206712Y0084800D01*
X0206663Y0084836D01*
X0206612Y0084869D01*
X0206560Y0084898D01*
X0206505Y0084925D01*
X0206450Y0084948D01*
X0206393Y0084968D01*
X0206334Y0084984D01*
X0206275Y0084997D01*
X0206216Y0085006D01*
X0206155Y0085011D01*
X0206095Y0085013D01*
X0199095Y0085013D01*
X0199035Y0085011D01*
X0198974Y0085006D01*
X0198915Y0084997D01*
X0198856Y0084984D01*
X0198797Y0084968D01*
X0198740Y0084948D01*
X0198685Y0084925D01*
X0198630Y0084898D01*
X0198578Y0084869D01*
X0198527Y0084836D01*
X0198478Y0084800D01*
X0198432Y0084762D01*
X0198388Y0084720D01*
X0198346Y0084676D01*
X0198308Y0084630D01*
X0198272Y0084581D01*
X0198239Y0084530D01*
X0198210Y0084478D01*
X0198183Y0084423D01*
X0198160Y0084368D01*
X0198140Y0084311D01*
X0198124Y0084252D01*
X0198111Y0084193D01*
X0198102Y0084134D01*
X0198097Y0084073D01*
X0198095Y0084013D01*
X0198095Y0082513D01*
X0214095Y0055013D02*
X0221095Y0055013D01*
X0221155Y0055011D01*
X0221216Y0055006D01*
X0221275Y0054997D01*
X0221334Y0054984D01*
X0221393Y0054968D01*
X0221450Y0054948D01*
X0221505Y0054925D01*
X0221560Y0054898D01*
X0221612Y0054869D01*
X0221663Y0054836D01*
X0221712Y0054800D01*
X0221758Y0054762D01*
X0221802Y0054720D01*
X0221844Y0054676D01*
X0221882Y0054630D01*
X0221918Y0054581D01*
X0221951Y0054530D01*
X0221980Y0054478D01*
X0222007Y0054423D01*
X0222030Y0054368D01*
X0222050Y0054311D01*
X0222066Y0054252D01*
X0222079Y0054193D01*
X0222088Y0054134D01*
X0222093Y0054073D01*
X0222095Y0054013D01*
X0222095Y0052513D01*
X0221595Y0052013D01*
X0221595Y0033013D01*
X0222095Y0032513D01*
X0222095Y0031013D01*
X0222093Y0030953D01*
X0222088Y0030892D01*
X0222079Y0030833D01*
X0222066Y0030774D01*
X0222050Y0030715D01*
X0222030Y0030658D01*
X0222007Y0030603D01*
X0221980Y0030548D01*
X0221951Y0030496D01*
X0221918Y0030445D01*
X0221882Y0030396D01*
X0221844Y0030350D01*
X0221802Y0030306D01*
X0221758Y0030264D01*
X0221712Y0030226D01*
X0221663Y0030190D01*
X0221612Y0030157D01*
X0221560Y0030128D01*
X0221505Y0030101D01*
X0221450Y0030078D01*
X0221393Y0030058D01*
X0221334Y0030042D01*
X0221275Y0030029D01*
X0221216Y0030020D01*
X0221155Y0030015D01*
X0221095Y0030013D01*
X0214095Y0030013D01*
X0214035Y0030015D01*
X0213974Y0030020D01*
X0213915Y0030029D01*
X0213856Y0030042D01*
X0213797Y0030058D01*
X0213740Y0030078D01*
X0213685Y0030101D01*
X0213630Y0030128D01*
X0213578Y0030157D01*
X0213527Y0030190D01*
X0213478Y0030226D01*
X0213432Y0030264D01*
X0213388Y0030306D01*
X0213346Y0030350D01*
X0213308Y0030396D01*
X0213272Y0030445D01*
X0213239Y0030496D01*
X0213210Y0030548D01*
X0213183Y0030603D01*
X0213160Y0030658D01*
X0213140Y0030715D01*
X0213124Y0030774D01*
X0213111Y0030833D01*
X0213102Y0030892D01*
X0213097Y0030953D01*
X0213095Y0031013D01*
X0213095Y0032513D01*
X0213595Y0033013D01*
X0213595Y0052013D01*
X0213095Y0052513D01*
X0213095Y0054013D01*
X0213097Y0054073D01*
X0213102Y0054134D01*
X0213111Y0054193D01*
X0213124Y0054252D01*
X0213140Y0054311D01*
X0213160Y0054368D01*
X0213183Y0054423D01*
X0213210Y0054478D01*
X0213239Y0054530D01*
X0213272Y0054581D01*
X0213308Y0054630D01*
X0213346Y0054676D01*
X0213388Y0054720D01*
X0213432Y0054762D01*
X0213478Y0054800D01*
X0213527Y0054836D01*
X0213578Y0054869D01*
X0213630Y0054898D01*
X0213685Y0054925D01*
X0213740Y0054948D01*
X0213797Y0054968D01*
X0213856Y0054984D01*
X0213915Y0054997D01*
X0213974Y0055006D01*
X0214035Y0055011D01*
X0214095Y0055013D01*
X0242595Y0055013D02*
X0245095Y0052513D01*
X0242595Y0050013D01*
X0242595Y0045013D01*
X0245095Y0042513D01*
X0242595Y0040013D01*
X0242595Y0035013D01*
X0245095Y0032513D01*
X0242595Y0030013D01*
X0242595Y0025013D01*
X0245095Y0022513D01*
X0260095Y0022513D01*
X0262595Y0025013D01*
X0262595Y0030013D01*
X0260095Y0032513D01*
X0262595Y0035013D01*
X0262595Y0040013D01*
X0260095Y0042513D01*
X0262595Y0045013D01*
X0262595Y0050013D01*
X0260095Y0052513D01*
X0262595Y0055013D01*
X0262595Y0060013D01*
X0260095Y0062513D01*
X0245095Y0062513D01*
X0242595Y0060013D01*
X0242595Y0055013D01*
X0293095Y0061013D02*
X0293095Y0062513D01*
X0293595Y0063013D01*
X0293595Y0082013D01*
X0293095Y0082513D01*
X0293095Y0084013D01*
X0293097Y0084073D01*
X0293102Y0084134D01*
X0293111Y0084193D01*
X0293124Y0084252D01*
X0293140Y0084311D01*
X0293160Y0084368D01*
X0293183Y0084423D01*
X0293210Y0084478D01*
X0293239Y0084530D01*
X0293272Y0084581D01*
X0293308Y0084630D01*
X0293346Y0084676D01*
X0293388Y0084720D01*
X0293432Y0084762D01*
X0293478Y0084800D01*
X0293527Y0084836D01*
X0293578Y0084869D01*
X0293630Y0084898D01*
X0293685Y0084925D01*
X0293740Y0084948D01*
X0293797Y0084968D01*
X0293856Y0084984D01*
X0293915Y0084997D01*
X0293974Y0085006D01*
X0294035Y0085011D01*
X0294095Y0085013D01*
X0301095Y0085013D01*
X0301155Y0085011D01*
X0301216Y0085006D01*
X0301275Y0084997D01*
X0301334Y0084984D01*
X0301393Y0084968D01*
X0301450Y0084948D01*
X0301505Y0084925D01*
X0301560Y0084898D01*
X0301612Y0084869D01*
X0301663Y0084836D01*
X0301712Y0084800D01*
X0301758Y0084762D01*
X0301802Y0084720D01*
X0301844Y0084676D01*
X0301882Y0084630D01*
X0301918Y0084581D01*
X0301951Y0084530D01*
X0301980Y0084478D01*
X0302007Y0084423D01*
X0302030Y0084368D01*
X0302050Y0084311D01*
X0302066Y0084252D01*
X0302079Y0084193D01*
X0302088Y0084134D01*
X0302093Y0084073D01*
X0302095Y0084013D01*
X0302095Y0082513D01*
X0301595Y0082013D01*
X0301595Y0063013D01*
X0302095Y0062513D01*
X0302095Y0061013D01*
X0302093Y0060953D01*
X0302088Y0060892D01*
X0302079Y0060833D01*
X0302066Y0060774D01*
X0302050Y0060715D01*
X0302030Y0060658D01*
X0302007Y0060603D01*
X0301980Y0060548D01*
X0301951Y0060496D01*
X0301918Y0060445D01*
X0301882Y0060396D01*
X0301844Y0060350D01*
X0301802Y0060306D01*
X0301758Y0060264D01*
X0301712Y0060226D01*
X0301663Y0060190D01*
X0301612Y0060157D01*
X0301560Y0060128D01*
X0301505Y0060101D01*
X0301450Y0060078D01*
X0301393Y0060058D01*
X0301334Y0060042D01*
X0301275Y0060029D01*
X0301216Y0060020D01*
X0301155Y0060015D01*
X0301095Y0060013D01*
X0294095Y0060013D01*
X0294035Y0060015D01*
X0293974Y0060020D01*
X0293915Y0060029D01*
X0293856Y0060042D01*
X0293797Y0060058D01*
X0293740Y0060078D01*
X0293685Y0060101D01*
X0293630Y0060128D01*
X0293578Y0060157D01*
X0293527Y0060190D01*
X0293478Y0060226D01*
X0293432Y0060264D01*
X0293388Y0060306D01*
X0293346Y0060350D01*
X0293308Y0060396D01*
X0293272Y0060445D01*
X0293239Y0060496D01*
X0293210Y0060548D01*
X0293183Y0060603D01*
X0293160Y0060658D01*
X0293140Y0060715D01*
X0293124Y0060774D01*
X0293111Y0060833D01*
X0293102Y0060892D01*
X0293097Y0060953D01*
X0293095Y0061013D01*
X0308095Y0052513D02*
X0308095Y0051013D01*
X0308097Y0050953D01*
X0308102Y0050892D01*
X0308111Y0050833D01*
X0308124Y0050774D01*
X0308140Y0050715D01*
X0308160Y0050658D01*
X0308183Y0050603D01*
X0308210Y0050548D01*
X0308239Y0050496D01*
X0308272Y0050445D01*
X0308308Y0050396D01*
X0308346Y0050350D01*
X0308388Y0050306D01*
X0308432Y0050264D01*
X0308478Y0050226D01*
X0308527Y0050190D01*
X0308578Y0050157D01*
X0308630Y0050128D01*
X0308685Y0050101D01*
X0308740Y0050078D01*
X0308797Y0050058D01*
X0308856Y0050042D01*
X0308915Y0050029D01*
X0308974Y0050020D01*
X0309035Y0050015D01*
X0309095Y0050013D01*
X0316095Y0050013D01*
X0316155Y0050015D01*
X0316216Y0050020D01*
X0316275Y0050029D01*
X0316334Y0050042D01*
X0316393Y0050058D01*
X0316450Y0050078D01*
X0316505Y0050101D01*
X0316560Y0050128D01*
X0316612Y0050157D01*
X0316663Y0050190D01*
X0316712Y0050226D01*
X0316758Y0050264D01*
X0316802Y0050306D01*
X0316844Y0050350D01*
X0316882Y0050396D01*
X0316918Y0050445D01*
X0316951Y0050496D01*
X0316980Y0050548D01*
X0317007Y0050603D01*
X0317030Y0050658D01*
X0317050Y0050715D01*
X0317066Y0050774D01*
X0317079Y0050833D01*
X0317088Y0050892D01*
X0317093Y0050953D01*
X0317095Y0051013D01*
X0317095Y0052513D01*
X0316595Y0053013D01*
X0316595Y0072013D01*
X0317095Y0072513D01*
X0317095Y0074013D01*
X0317093Y0074073D01*
X0317088Y0074134D01*
X0317079Y0074193D01*
X0317066Y0074252D01*
X0317050Y0074311D01*
X0317030Y0074368D01*
X0317007Y0074423D01*
X0316980Y0074478D01*
X0316951Y0074530D01*
X0316918Y0074581D01*
X0316882Y0074630D01*
X0316844Y0074676D01*
X0316802Y0074720D01*
X0316758Y0074762D01*
X0316712Y0074800D01*
X0316663Y0074836D01*
X0316612Y0074869D01*
X0316560Y0074898D01*
X0316505Y0074925D01*
X0316450Y0074948D01*
X0316393Y0074968D01*
X0316334Y0074984D01*
X0316275Y0074997D01*
X0316216Y0075006D01*
X0316155Y0075011D01*
X0316095Y0075013D01*
X0309095Y0075013D01*
X0309035Y0075011D01*
X0308974Y0075006D01*
X0308915Y0074997D01*
X0308856Y0074984D01*
X0308797Y0074968D01*
X0308740Y0074948D01*
X0308685Y0074925D01*
X0308630Y0074898D01*
X0308578Y0074869D01*
X0308527Y0074836D01*
X0308478Y0074800D01*
X0308432Y0074762D01*
X0308388Y0074720D01*
X0308346Y0074676D01*
X0308308Y0074630D01*
X0308272Y0074581D01*
X0308239Y0074530D01*
X0308210Y0074478D01*
X0308183Y0074423D01*
X0308160Y0074368D01*
X0308140Y0074311D01*
X0308124Y0074252D01*
X0308111Y0074193D01*
X0308102Y0074134D01*
X0308097Y0074073D01*
X0308095Y0074013D01*
X0308095Y0072513D01*
X0308595Y0072013D01*
X0308595Y0053013D01*
X0308095Y0052513D01*
X0343095Y0062513D02*
X0343595Y0062013D01*
X0343595Y0043013D01*
X0343095Y0042513D01*
X0343095Y0041013D01*
X0343097Y0040953D01*
X0343102Y0040892D01*
X0343111Y0040833D01*
X0343124Y0040774D01*
X0343140Y0040715D01*
X0343160Y0040658D01*
X0343183Y0040603D01*
X0343210Y0040548D01*
X0343239Y0040496D01*
X0343272Y0040445D01*
X0343308Y0040396D01*
X0343346Y0040350D01*
X0343388Y0040306D01*
X0343432Y0040264D01*
X0343478Y0040226D01*
X0343527Y0040190D01*
X0343578Y0040157D01*
X0343630Y0040128D01*
X0343685Y0040101D01*
X0343740Y0040078D01*
X0343797Y0040058D01*
X0343856Y0040042D01*
X0343915Y0040029D01*
X0343974Y0040020D01*
X0344035Y0040015D01*
X0344095Y0040013D01*
X0351095Y0040013D01*
X0351155Y0040015D01*
X0351216Y0040020D01*
X0351275Y0040029D01*
X0351334Y0040042D01*
X0351393Y0040058D01*
X0351450Y0040078D01*
X0351505Y0040101D01*
X0351560Y0040128D01*
X0351612Y0040157D01*
X0351663Y0040190D01*
X0351712Y0040226D01*
X0351758Y0040264D01*
X0351802Y0040306D01*
X0351844Y0040350D01*
X0351882Y0040396D01*
X0351918Y0040445D01*
X0351951Y0040496D01*
X0351980Y0040548D01*
X0352007Y0040603D01*
X0352030Y0040658D01*
X0352050Y0040715D01*
X0352066Y0040774D01*
X0352079Y0040833D01*
X0352088Y0040892D01*
X0352093Y0040953D01*
X0352095Y0041013D01*
X0352095Y0042513D01*
X0351595Y0043013D01*
X0351595Y0062013D01*
X0352095Y0062513D01*
X0352095Y0064013D01*
X0352093Y0064073D01*
X0352088Y0064134D01*
X0352079Y0064193D01*
X0352066Y0064252D01*
X0352050Y0064311D01*
X0352030Y0064368D01*
X0352007Y0064423D01*
X0351980Y0064478D01*
X0351951Y0064530D01*
X0351918Y0064581D01*
X0351882Y0064630D01*
X0351844Y0064676D01*
X0351802Y0064720D01*
X0351758Y0064762D01*
X0351712Y0064800D01*
X0351663Y0064836D01*
X0351612Y0064869D01*
X0351560Y0064898D01*
X0351505Y0064925D01*
X0351450Y0064948D01*
X0351393Y0064968D01*
X0351334Y0064984D01*
X0351275Y0064997D01*
X0351216Y0065006D01*
X0351155Y0065011D01*
X0351095Y0065013D01*
X0344095Y0065013D01*
X0344035Y0065011D01*
X0343974Y0065006D01*
X0343915Y0064997D01*
X0343856Y0064984D01*
X0343797Y0064968D01*
X0343740Y0064948D01*
X0343685Y0064925D01*
X0343630Y0064898D01*
X0343578Y0064869D01*
X0343527Y0064836D01*
X0343478Y0064800D01*
X0343432Y0064762D01*
X0343388Y0064720D01*
X0343346Y0064676D01*
X0343308Y0064630D01*
X0343272Y0064581D01*
X0343239Y0064530D01*
X0343210Y0064478D01*
X0343183Y0064423D01*
X0343160Y0064368D01*
X0343140Y0064311D01*
X0343124Y0064252D01*
X0343111Y0064193D01*
X0343102Y0064134D01*
X0343097Y0064073D01*
X0343095Y0064013D01*
X0343095Y0062513D01*
X0398095Y0072513D02*
X0398095Y0074013D01*
X0398097Y0074073D01*
X0398102Y0074134D01*
X0398111Y0074193D01*
X0398124Y0074252D01*
X0398140Y0074311D01*
X0398160Y0074368D01*
X0398183Y0074423D01*
X0398210Y0074478D01*
X0398239Y0074530D01*
X0398272Y0074581D01*
X0398308Y0074630D01*
X0398346Y0074676D01*
X0398388Y0074720D01*
X0398432Y0074762D01*
X0398478Y0074800D01*
X0398527Y0074836D01*
X0398578Y0074869D01*
X0398630Y0074898D01*
X0398685Y0074925D01*
X0398740Y0074948D01*
X0398797Y0074968D01*
X0398856Y0074984D01*
X0398915Y0074997D01*
X0398974Y0075006D01*
X0399035Y0075011D01*
X0399095Y0075013D01*
X0406095Y0075013D01*
X0406155Y0075011D01*
X0406216Y0075006D01*
X0406275Y0074997D01*
X0406334Y0074984D01*
X0406393Y0074968D01*
X0406450Y0074948D01*
X0406505Y0074925D01*
X0406560Y0074898D01*
X0406612Y0074869D01*
X0406663Y0074836D01*
X0406712Y0074800D01*
X0406758Y0074762D01*
X0406802Y0074720D01*
X0406844Y0074676D01*
X0406882Y0074630D01*
X0406918Y0074581D01*
X0406951Y0074530D01*
X0406980Y0074478D01*
X0407007Y0074423D01*
X0407030Y0074368D01*
X0407050Y0074311D01*
X0407066Y0074252D01*
X0407079Y0074193D01*
X0407088Y0074134D01*
X0407093Y0074073D01*
X0407095Y0074013D01*
X0407095Y0072513D01*
X0406595Y0072013D01*
X0406595Y0053013D01*
X0407095Y0052513D01*
X0407095Y0051013D01*
X0407093Y0050953D01*
X0407088Y0050892D01*
X0407079Y0050833D01*
X0407066Y0050774D01*
X0407050Y0050715D01*
X0407030Y0050658D01*
X0407007Y0050603D01*
X0406980Y0050548D01*
X0406951Y0050496D01*
X0406918Y0050445D01*
X0406882Y0050396D01*
X0406844Y0050350D01*
X0406802Y0050306D01*
X0406758Y0050264D01*
X0406712Y0050226D01*
X0406663Y0050190D01*
X0406612Y0050157D01*
X0406560Y0050128D01*
X0406505Y0050101D01*
X0406450Y0050078D01*
X0406393Y0050058D01*
X0406334Y0050042D01*
X0406275Y0050029D01*
X0406216Y0050020D01*
X0406155Y0050015D01*
X0406095Y0050013D01*
X0399095Y0050013D01*
X0399035Y0050015D01*
X0398974Y0050020D01*
X0398915Y0050029D01*
X0398856Y0050042D01*
X0398797Y0050058D01*
X0398740Y0050078D01*
X0398685Y0050101D01*
X0398630Y0050128D01*
X0398578Y0050157D01*
X0398527Y0050190D01*
X0398478Y0050226D01*
X0398432Y0050264D01*
X0398388Y0050306D01*
X0398346Y0050350D01*
X0398308Y0050396D01*
X0398272Y0050445D01*
X0398239Y0050496D01*
X0398210Y0050548D01*
X0398183Y0050603D01*
X0398160Y0050658D01*
X0398140Y0050715D01*
X0398124Y0050774D01*
X0398111Y0050833D01*
X0398102Y0050892D01*
X0398097Y0050953D01*
X0398095Y0051013D01*
X0398095Y0052513D01*
X0398595Y0053013D01*
X0398595Y0072013D01*
X0398095Y0072513D01*
X0413095Y0082513D02*
X0413595Y0082013D01*
X0413595Y0063013D01*
X0413095Y0062513D01*
X0413095Y0061013D01*
X0413097Y0060953D01*
X0413102Y0060892D01*
X0413111Y0060833D01*
X0413124Y0060774D01*
X0413140Y0060715D01*
X0413160Y0060658D01*
X0413183Y0060603D01*
X0413210Y0060548D01*
X0413239Y0060496D01*
X0413272Y0060445D01*
X0413308Y0060396D01*
X0413346Y0060350D01*
X0413388Y0060306D01*
X0413432Y0060264D01*
X0413478Y0060226D01*
X0413527Y0060190D01*
X0413578Y0060157D01*
X0413630Y0060128D01*
X0413685Y0060101D01*
X0413740Y0060078D01*
X0413797Y0060058D01*
X0413856Y0060042D01*
X0413915Y0060029D01*
X0413974Y0060020D01*
X0414035Y0060015D01*
X0414095Y0060013D01*
X0421095Y0060013D01*
X0421155Y0060015D01*
X0421216Y0060020D01*
X0421275Y0060029D01*
X0421334Y0060042D01*
X0421393Y0060058D01*
X0421450Y0060078D01*
X0421505Y0060101D01*
X0421560Y0060128D01*
X0421612Y0060157D01*
X0421663Y0060190D01*
X0421712Y0060226D01*
X0421758Y0060264D01*
X0421802Y0060306D01*
X0421844Y0060350D01*
X0421882Y0060396D01*
X0421918Y0060445D01*
X0421951Y0060496D01*
X0421980Y0060548D01*
X0422007Y0060603D01*
X0422030Y0060658D01*
X0422050Y0060715D01*
X0422066Y0060774D01*
X0422079Y0060833D01*
X0422088Y0060892D01*
X0422093Y0060953D01*
X0422095Y0061013D01*
X0422095Y0062513D01*
X0421595Y0063013D01*
X0421595Y0082013D01*
X0422095Y0082513D01*
X0422095Y0084013D01*
X0422093Y0084073D01*
X0422088Y0084134D01*
X0422079Y0084193D01*
X0422066Y0084252D01*
X0422050Y0084311D01*
X0422030Y0084368D01*
X0422007Y0084423D01*
X0421980Y0084478D01*
X0421951Y0084530D01*
X0421918Y0084581D01*
X0421882Y0084630D01*
X0421844Y0084676D01*
X0421802Y0084720D01*
X0421758Y0084762D01*
X0421712Y0084800D01*
X0421663Y0084836D01*
X0421612Y0084869D01*
X0421560Y0084898D01*
X0421505Y0084925D01*
X0421450Y0084948D01*
X0421393Y0084968D01*
X0421334Y0084984D01*
X0421275Y0084997D01*
X0421216Y0085006D01*
X0421155Y0085011D01*
X0421095Y0085013D01*
X0414095Y0085013D01*
X0414035Y0085011D01*
X0413974Y0085006D01*
X0413915Y0084997D01*
X0413856Y0084984D01*
X0413797Y0084968D01*
X0413740Y0084948D01*
X0413685Y0084925D01*
X0413630Y0084898D01*
X0413578Y0084869D01*
X0413527Y0084836D01*
X0413478Y0084800D01*
X0413432Y0084762D01*
X0413388Y0084720D01*
X0413346Y0084676D01*
X0413308Y0084630D01*
X0413272Y0084581D01*
X0413239Y0084530D01*
X0413210Y0084478D01*
X0413183Y0084423D01*
X0413160Y0084368D01*
X0413140Y0084311D01*
X0413124Y0084252D01*
X0413111Y0084193D01*
X0413102Y0084134D01*
X0413097Y0084073D01*
X0413095Y0084013D01*
X0413095Y0082513D01*
X0429095Y0055013D02*
X0436095Y0055013D01*
X0436155Y0055011D01*
X0436216Y0055006D01*
X0436275Y0054997D01*
X0436334Y0054984D01*
X0436393Y0054968D01*
X0436450Y0054948D01*
X0436505Y0054925D01*
X0436560Y0054898D01*
X0436612Y0054869D01*
X0436663Y0054836D01*
X0436712Y0054800D01*
X0436758Y0054762D01*
X0436802Y0054720D01*
X0436844Y0054676D01*
X0436882Y0054630D01*
X0436918Y0054581D01*
X0436951Y0054530D01*
X0436980Y0054478D01*
X0437007Y0054423D01*
X0437030Y0054368D01*
X0437050Y0054311D01*
X0437066Y0054252D01*
X0437079Y0054193D01*
X0437088Y0054134D01*
X0437093Y0054073D01*
X0437095Y0054013D01*
X0437095Y0052513D01*
X0436595Y0052013D01*
X0436595Y0033013D01*
X0437095Y0032513D01*
X0437095Y0031013D01*
X0437093Y0030953D01*
X0437088Y0030892D01*
X0437079Y0030833D01*
X0437066Y0030774D01*
X0437050Y0030715D01*
X0437030Y0030658D01*
X0437007Y0030603D01*
X0436980Y0030548D01*
X0436951Y0030496D01*
X0436918Y0030445D01*
X0436882Y0030396D01*
X0436844Y0030350D01*
X0436802Y0030306D01*
X0436758Y0030264D01*
X0436712Y0030226D01*
X0436663Y0030190D01*
X0436612Y0030157D01*
X0436560Y0030128D01*
X0436505Y0030101D01*
X0436450Y0030078D01*
X0436393Y0030058D01*
X0436334Y0030042D01*
X0436275Y0030029D01*
X0436216Y0030020D01*
X0436155Y0030015D01*
X0436095Y0030013D01*
X0429095Y0030013D01*
X0429035Y0030015D01*
X0428974Y0030020D01*
X0428915Y0030029D01*
X0428856Y0030042D01*
X0428797Y0030058D01*
X0428740Y0030078D01*
X0428685Y0030101D01*
X0428630Y0030128D01*
X0428578Y0030157D01*
X0428527Y0030190D01*
X0428478Y0030226D01*
X0428432Y0030264D01*
X0428388Y0030306D01*
X0428346Y0030350D01*
X0428308Y0030396D01*
X0428272Y0030445D01*
X0428239Y0030496D01*
X0428210Y0030548D01*
X0428183Y0030603D01*
X0428160Y0030658D01*
X0428140Y0030715D01*
X0428124Y0030774D01*
X0428111Y0030833D01*
X0428102Y0030892D01*
X0428097Y0030953D01*
X0428095Y0031013D01*
X0428095Y0032513D01*
X0428595Y0033013D01*
X0428595Y0052013D01*
X0428095Y0052513D01*
X0428095Y0054013D01*
X0428097Y0054073D01*
X0428102Y0054134D01*
X0428111Y0054193D01*
X0428124Y0054252D01*
X0428140Y0054311D01*
X0428160Y0054368D01*
X0428183Y0054423D01*
X0428210Y0054478D01*
X0428239Y0054530D01*
X0428272Y0054581D01*
X0428308Y0054630D01*
X0428346Y0054676D01*
X0428388Y0054720D01*
X0428432Y0054762D01*
X0428478Y0054800D01*
X0428527Y0054836D01*
X0428578Y0054869D01*
X0428630Y0054898D01*
X0428685Y0054925D01*
X0428740Y0054948D01*
X0428797Y0054968D01*
X0428856Y0054984D01*
X0428915Y0054997D01*
X0428974Y0055006D01*
X0429035Y0055011D01*
X0429095Y0055013D01*
X0386217Y0134316D02*
X0378973Y0134316D01*
X0378973Y0150710D01*
X0386217Y0150710D01*
X0386217Y0134316D01*
X0382595Y0136513D02*
X0382595Y0142513D01*
X0380095Y0142513D01*
X0382595Y0142513D02*
X0385095Y0142513D01*
X0382595Y0142513D02*
X0380095Y0138513D01*
X0385095Y0138513D01*
X0382595Y0142513D01*
X0382595Y0145013D01*
X0377253Y0146013D02*
X0377253Y0155414D01*
X0377253Y0181414D01*
X0337953Y0181414D01*
X0337953Y0182214D01*
X0377253Y0182214D01*
X0377253Y0181414D01*
X0380095Y0182513D02*
X0382595Y0182513D01*
X0385095Y0182513D01*
X0382595Y0182513D02*
X0380095Y0178513D01*
X0385095Y0178513D01*
X0382595Y0182513D01*
X0382595Y0176513D01*
X0378973Y0174316D02*
X0386217Y0174316D01*
X0386217Y0190710D01*
X0378973Y0190710D01*
X0378973Y0174316D01*
X0382595Y0182513D02*
X0382595Y0185013D01*
X0372095Y0188513D02*
X0372095Y0196513D01*
X0372093Y0196573D01*
X0372088Y0196634D01*
X0372079Y0196693D01*
X0372066Y0196752D01*
X0372050Y0196811D01*
X0372030Y0196868D01*
X0372007Y0196923D01*
X0371980Y0196978D01*
X0371951Y0197030D01*
X0371918Y0197081D01*
X0371882Y0197130D01*
X0371844Y0197176D01*
X0371802Y0197220D01*
X0371758Y0197262D01*
X0371712Y0197300D01*
X0371663Y0197336D01*
X0371612Y0197369D01*
X0371560Y0197398D01*
X0371505Y0197425D01*
X0371450Y0197448D01*
X0371393Y0197468D01*
X0371334Y0197484D01*
X0371275Y0197497D01*
X0371216Y0197506D01*
X0371155Y0197511D01*
X0371095Y0197513D01*
X0344095Y0197513D01*
X0344035Y0197511D01*
X0343974Y0197506D01*
X0343915Y0197497D01*
X0343856Y0197484D01*
X0343797Y0197468D01*
X0343740Y0197448D01*
X0343685Y0197425D01*
X0343630Y0197398D01*
X0343578Y0197369D01*
X0343527Y0197336D01*
X0343478Y0197300D01*
X0343432Y0197262D01*
X0343388Y0197220D01*
X0343346Y0197176D01*
X0343308Y0197130D01*
X0343272Y0197081D01*
X0343239Y0197030D01*
X0343210Y0196978D01*
X0343183Y0196923D01*
X0343160Y0196868D01*
X0343140Y0196811D01*
X0343124Y0196752D01*
X0343111Y0196693D01*
X0343102Y0196634D01*
X0343097Y0196573D01*
X0343095Y0196513D01*
X0343095Y0188513D01*
X0343097Y0188453D01*
X0343102Y0188392D01*
X0343111Y0188333D01*
X0343124Y0188274D01*
X0343140Y0188215D01*
X0343160Y0188158D01*
X0343183Y0188103D01*
X0343210Y0188048D01*
X0343239Y0187996D01*
X0343272Y0187945D01*
X0343308Y0187896D01*
X0343346Y0187850D01*
X0343388Y0187806D01*
X0343432Y0187764D01*
X0343478Y0187726D01*
X0343527Y0187690D01*
X0343578Y0187657D01*
X0343630Y0187628D01*
X0343685Y0187601D01*
X0343740Y0187578D01*
X0343797Y0187558D01*
X0343856Y0187542D01*
X0343915Y0187529D01*
X0343974Y0187520D01*
X0344035Y0187515D01*
X0344095Y0187513D01*
X0371095Y0187513D01*
X0371155Y0187515D01*
X0371216Y0187520D01*
X0371275Y0187529D01*
X0371334Y0187542D01*
X0371393Y0187558D01*
X0371450Y0187578D01*
X0371505Y0187601D01*
X0371560Y0187628D01*
X0371612Y0187657D01*
X0371663Y0187690D01*
X0371712Y0187726D01*
X0371758Y0187764D01*
X0371802Y0187806D01*
X0371844Y0187850D01*
X0371882Y0187896D01*
X0371918Y0187945D01*
X0371951Y0187996D01*
X0371980Y0188048D01*
X0372007Y0188103D01*
X0372030Y0188158D01*
X0372050Y0188215D01*
X0372066Y0188274D01*
X0372079Y0188333D01*
X0372088Y0188392D01*
X0372093Y0188453D01*
X0372095Y0188513D01*
X0363595Y0192513D02*
X0358895Y0192513D01*
X0356395Y0192513D02*
X0351595Y0192513D01*
X0336217Y0190710D02*
X0328973Y0190710D01*
X0328973Y0174316D01*
X0336217Y0174316D01*
X0336217Y0190710D01*
X0332595Y0185013D02*
X0332595Y0182513D01*
X0330095Y0182513D01*
X0332595Y0182513D02*
X0330095Y0178513D01*
X0335095Y0178513D01*
X0332595Y0182513D01*
X0335095Y0182513D01*
X0332595Y0182513D02*
X0332595Y0176513D01*
X0337953Y0181414D02*
X0337953Y0155414D01*
X0344253Y0155414D01*
X0337953Y0155414D02*
X0337953Y0146013D01*
X0377253Y0146013D01*
X0377253Y0155414D02*
X0370953Y0155414D01*
X0363953Y0155414D02*
X0351253Y0155414D01*
X0336217Y0150710D02*
X0328973Y0150710D01*
X0328973Y0134316D01*
X0336217Y0134316D01*
X0336217Y0150710D01*
X0332595Y0145013D02*
X0332595Y0142513D01*
X0330095Y0142513D01*
X0332595Y0142513D02*
X0330095Y0138513D01*
X0335095Y0138513D01*
X0332595Y0142513D01*
X0335095Y0142513D01*
X0332595Y0142513D02*
X0332595Y0136513D01*
X0317095Y0146513D02*
X0317595Y0158013D01*
X0317095Y0146513D02*
X0316095Y0145513D01*
X0279095Y0145513D01*
X0278095Y0146513D01*
X0277595Y0158013D01*
X0222095Y0158513D02*
X0222595Y0147013D01*
X0222095Y0158513D02*
X0221095Y0159513D01*
X0184095Y0159513D01*
X0183095Y0158513D01*
X0182595Y0147013D01*
X0171217Y0150710D02*
X0163973Y0150710D01*
X0163973Y0134316D01*
X0171217Y0134316D01*
X0171217Y0150710D01*
X0167595Y0145013D02*
X0167595Y0142513D01*
X0165095Y0142513D01*
X0167595Y0142513D02*
X0165095Y0138513D01*
X0170095Y0138513D01*
X0167595Y0142513D01*
X0170095Y0142513D01*
X0167595Y0142513D02*
X0167595Y0136513D01*
X0162253Y0146013D02*
X0162253Y0155414D01*
X0162253Y0181414D01*
X0122953Y0181414D01*
X0122953Y0182214D01*
X0162253Y0182214D01*
X0162253Y0181414D01*
X0165095Y0182513D02*
X0167595Y0182513D01*
X0170095Y0182513D01*
X0167595Y0182513D02*
X0170095Y0178513D01*
X0165095Y0178513D01*
X0167595Y0182513D01*
X0167595Y0176513D01*
X0163973Y0174316D02*
X0171217Y0174316D01*
X0171217Y0190710D01*
X0163973Y0190710D01*
X0163973Y0174316D01*
X0167595Y0182513D02*
X0167595Y0185013D01*
X0157095Y0188513D02*
X0157095Y0196513D01*
X0157093Y0196573D01*
X0157088Y0196634D01*
X0157079Y0196693D01*
X0157066Y0196752D01*
X0157050Y0196811D01*
X0157030Y0196868D01*
X0157007Y0196923D01*
X0156980Y0196978D01*
X0156951Y0197030D01*
X0156918Y0197081D01*
X0156882Y0197130D01*
X0156844Y0197176D01*
X0156802Y0197220D01*
X0156758Y0197262D01*
X0156712Y0197300D01*
X0156663Y0197336D01*
X0156612Y0197369D01*
X0156560Y0197398D01*
X0156505Y0197425D01*
X0156450Y0197448D01*
X0156393Y0197468D01*
X0156334Y0197484D01*
X0156275Y0197497D01*
X0156216Y0197506D01*
X0156155Y0197511D01*
X0156095Y0197513D01*
X0129095Y0197513D01*
X0129035Y0197511D01*
X0128974Y0197506D01*
X0128915Y0197497D01*
X0128856Y0197484D01*
X0128797Y0197468D01*
X0128740Y0197448D01*
X0128685Y0197425D01*
X0128630Y0197398D01*
X0128578Y0197369D01*
X0128527Y0197336D01*
X0128478Y0197300D01*
X0128432Y0197262D01*
X0128388Y0197220D01*
X0128346Y0197176D01*
X0128308Y0197130D01*
X0128272Y0197081D01*
X0128239Y0197030D01*
X0128210Y0196978D01*
X0128183Y0196923D01*
X0128160Y0196868D01*
X0128140Y0196811D01*
X0128124Y0196752D01*
X0128111Y0196693D01*
X0128102Y0196634D01*
X0128097Y0196573D01*
X0128095Y0196513D01*
X0128095Y0188513D01*
X0128097Y0188453D01*
X0128102Y0188392D01*
X0128111Y0188333D01*
X0128124Y0188274D01*
X0128140Y0188215D01*
X0128160Y0188158D01*
X0128183Y0188103D01*
X0128210Y0188048D01*
X0128239Y0187996D01*
X0128272Y0187945D01*
X0128308Y0187896D01*
X0128346Y0187850D01*
X0128388Y0187806D01*
X0128432Y0187764D01*
X0128478Y0187726D01*
X0128527Y0187690D01*
X0128578Y0187657D01*
X0128630Y0187628D01*
X0128685Y0187601D01*
X0128740Y0187578D01*
X0128797Y0187558D01*
X0128856Y0187542D01*
X0128915Y0187529D01*
X0128974Y0187520D01*
X0129035Y0187515D01*
X0129095Y0187513D01*
X0156095Y0187513D01*
X0156155Y0187515D01*
X0156216Y0187520D01*
X0156275Y0187529D01*
X0156334Y0187542D01*
X0156393Y0187558D01*
X0156450Y0187578D01*
X0156505Y0187601D01*
X0156560Y0187628D01*
X0156612Y0187657D01*
X0156663Y0187690D01*
X0156712Y0187726D01*
X0156758Y0187764D01*
X0156802Y0187806D01*
X0156844Y0187850D01*
X0156882Y0187896D01*
X0156918Y0187945D01*
X0156951Y0187996D01*
X0156980Y0188048D01*
X0157007Y0188103D01*
X0157030Y0188158D01*
X0157050Y0188215D01*
X0157066Y0188274D01*
X0157079Y0188333D01*
X0157088Y0188392D01*
X0157093Y0188453D01*
X0157095Y0188513D01*
X0148595Y0192513D02*
X0143895Y0192513D01*
X0141395Y0192513D02*
X0136595Y0192513D01*
X0121217Y0190710D02*
X0113973Y0190710D01*
X0113973Y0174316D01*
X0121217Y0174316D01*
X0121217Y0190710D01*
X0117595Y0185013D02*
X0117595Y0182513D01*
X0115095Y0182513D01*
X0117595Y0182513D02*
X0120095Y0182513D01*
X0117595Y0182513D02*
X0115095Y0178513D01*
X0120095Y0178513D01*
X0117595Y0182513D01*
X0117595Y0176513D01*
X0122953Y0181414D02*
X0122953Y0155414D01*
X0129253Y0155414D01*
X0136253Y0155414D02*
X0148953Y0155414D01*
X0155953Y0155414D02*
X0162253Y0155414D01*
X0162253Y0146013D02*
X0122953Y0146013D01*
X0122953Y0155414D01*
X0121217Y0150710D02*
X0113973Y0150710D01*
X0113973Y0134316D01*
X0121217Y0134316D01*
X0121217Y0150710D01*
X0117595Y0145013D02*
X0117595Y0142513D01*
X0115095Y0142513D01*
X0117595Y0142513D02*
X0120095Y0142513D01*
X0117595Y0142513D02*
X0115095Y0138513D01*
X0120095Y0138513D01*
X0117595Y0142513D01*
X0117595Y0136513D01*
X0102095Y0146513D02*
X0101095Y0145513D01*
X0064095Y0145513D01*
X0063095Y0146513D01*
X0062595Y0158013D01*
X0102595Y0158013D02*
X0102095Y0146513D01*
X0130753Y0176213D02*
X0130755Y0176302D01*
X0130761Y0176391D01*
X0130771Y0176480D01*
X0130785Y0176568D01*
X0130802Y0176655D01*
X0130824Y0176741D01*
X0130850Y0176827D01*
X0130879Y0176911D01*
X0130912Y0176994D01*
X0130948Y0177075D01*
X0130989Y0177155D01*
X0131032Y0177232D01*
X0131079Y0177308D01*
X0131130Y0177381D01*
X0131183Y0177452D01*
X0131240Y0177521D01*
X0131300Y0177587D01*
X0131363Y0177651D01*
X0131428Y0177711D01*
X0131496Y0177769D01*
X0131567Y0177823D01*
X0131640Y0177874D01*
X0131715Y0177922D01*
X0131792Y0177967D01*
X0131871Y0178008D01*
X0131952Y0178045D01*
X0132034Y0178079D01*
X0132118Y0178110D01*
X0132203Y0178136D01*
X0132289Y0178159D01*
X0132376Y0178177D01*
X0132464Y0178192D01*
X0132553Y0178203D01*
X0132642Y0178210D01*
X0132731Y0178213D01*
X0132820Y0178212D01*
X0132909Y0178207D01*
X0132997Y0178198D01*
X0133086Y0178185D01*
X0133173Y0178168D01*
X0133260Y0178148D01*
X0133346Y0178123D01*
X0133430Y0178095D01*
X0133513Y0178063D01*
X0133595Y0178027D01*
X0133675Y0177988D01*
X0133753Y0177945D01*
X0133829Y0177899D01*
X0133903Y0177849D01*
X0133975Y0177796D01*
X0134044Y0177740D01*
X0134111Y0177681D01*
X0134175Y0177619D01*
X0134236Y0177555D01*
X0134295Y0177487D01*
X0134350Y0177417D01*
X0134402Y0177345D01*
X0134451Y0177270D01*
X0134496Y0177194D01*
X0134538Y0177115D01*
X0134576Y0177035D01*
X0134611Y0176953D01*
X0134642Y0176869D01*
X0134670Y0176784D01*
X0134693Y0176698D01*
X0134713Y0176611D01*
X0134729Y0176524D01*
X0134741Y0176435D01*
X0134749Y0176347D01*
X0134753Y0176258D01*
X0134753Y0176168D01*
X0134749Y0176079D01*
X0134741Y0175991D01*
X0134729Y0175902D01*
X0134713Y0175815D01*
X0134693Y0175728D01*
X0134670Y0175642D01*
X0134642Y0175557D01*
X0134611Y0175473D01*
X0134576Y0175391D01*
X0134538Y0175311D01*
X0134496Y0175232D01*
X0134451Y0175156D01*
X0134402Y0175081D01*
X0134350Y0175009D01*
X0134295Y0174939D01*
X0134236Y0174871D01*
X0134175Y0174807D01*
X0134111Y0174745D01*
X0134044Y0174686D01*
X0133975Y0174630D01*
X0133903Y0174577D01*
X0133829Y0174527D01*
X0133753Y0174481D01*
X0133675Y0174438D01*
X0133595Y0174399D01*
X0133513Y0174363D01*
X0133430Y0174331D01*
X0133346Y0174303D01*
X0133260Y0174278D01*
X0133173Y0174258D01*
X0133086Y0174241D01*
X0132997Y0174228D01*
X0132909Y0174219D01*
X0132820Y0174214D01*
X0132731Y0174213D01*
X0132642Y0174216D01*
X0132553Y0174223D01*
X0132464Y0174234D01*
X0132376Y0174249D01*
X0132289Y0174267D01*
X0132203Y0174290D01*
X0132118Y0174316D01*
X0132034Y0174347D01*
X0131952Y0174381D01*
X0131871Y0174418D01*
X0131792Y0174459D01*
X0131715Y0174504D01*
X0131640Y0174552D01*
X0131567Y0174603D01*
X0131496Y0174657D01*
X0131428Y0174715D01*
X0131363Y0174775D01*
X0131300Y0174839D01*
X0131240Y0174905D01*
X0131183Y0174974D01*
X0131130Y0175045D01*
X0131079Y0175118D01*
X0131032Y0175194D01*
X0130989Y0175271D01*
X0130948Y0175351D01*
X0130912Y0175432D01*
X0130879Y0175515D01*
X0130850Y0175599D01*
X0130824Y0175685D01*
X0130802Y0175771D01*
X0130785Y0175858D01*
X0130771Y0175946D01*
X0130761Y0176035D01*
X0130755Y0176124D01*
X0130753Y0176213D01*
X0150453Y0176213D02*
X0150455Y0176302D01*
X0150461Y0176391D01*
X0150471Y0176480D01*
X0150485Y0176568D01*
X0150502Y0176655D01*
X0150524Y0176741D01*
X0150550Y0176827D01*
X0150579Y0176911D01*
X0150612Y0176994D01*
X0150648Y0177075D01*
X0150689Y0177155D01*
X0150732Y0177232D01*
X0150779Y0177308D01*
X0150830Y0177381D01*
X0150883Y0177452D01*
X0150940Y0177521D01*
X0151000Y0177587D01*
X0151063Y0177651D01*
X0151128Y0177711D01*
X0151196Y0177769D01*
X0151267Y0177823D01*
X0151340Y0177874D01*
X0151415Y0177922D01*
X0151492Y0177967D01*
X0151571Y0178008D01*
X0151652Y0178045D01*
X0151734Y0178079D01*
X0151818Y0178110D01*
X0151903Y0178136D01*
X0151989Y0178159D01*
X0152076Y0178177D01*
X0152164Y0178192D01*
X0152253Y0178203D01*
X0152342Y0178210D01*
X0152431Y0178213D01*
X0152520Y0178212D01*
X0152609Y0178207D01*
X0152697Y0178198D01*
X0152786Y0178185D01*
X0152873Y0178168D01*
X0152960Y0178148D01*
X0153046Y0178123D01*
X0153130Y0178095D01*
X0153213Y0178063D01*
X0153295Y0178027D01*
X0153375Y0177988D01*
X0153453Y0177945D01*
X0153529Y0177899D01*
X0153603Y0177849D01*
X0153675Y0177796D01*
X0153744Y0177740D01*
X0153811Y0177681D01*
X0153875Y0177619D01*
X0153936Y0177555D01*
X0153995Y0177487D01*
X0154050Y0177417D01*
X0154102Y0177345D01*
X0154151Y0177270D01*
X0154196Y0177194D01*
X0154238Y0177115D01*
X0154276Y0177035D01*
X0154311Y0176953D01*
X0154342Y0176869D01*
X0154370Y0176784D01*
X0154393Y0176698D01*
X0154413Y0176611D01*
X0154429Y0176524D01*
X0154441Y0176435D01*
X0154449Y0176347D01*
X0154453Y0176258D01*
X0154453Y0176168D01*
X0154449Y0176079D01*
X0154441Y0175991D01*
X0154429Y0175902D01*
X0154413Y0175815D01*
X0154393Y0175728D01*
X0154370Y0175642D01*
X0154342Y0175557D01*
X0154311Y0175473D01*
X0154276Y0175391D01*
X0154238Y0175311D01*
X0154196Y0175232D01*
X0154151Y0175156D01*
X0154102Y0175081D01*
X0154050Y0175009D01*
X0153995Y0174939D01*
X0153936Y0174871D01*
X0153875Y0174807D01*
X0153811Y0174745D01*
X0153744Y0174686D01*
X0153675Y0174630D01*
X0153603Y0174577D01*
X0153529Y0174527D01*
X0153453Y0174481D01*
X0153375Y0174438D01*
X0153295Y0174399D01*
X0153213Y0174363D01*
X0153130Y0174331D01*
X0153046Y0174303D01*
X0152960Y0174278D01*
X0152873Y0174258D01*
X0152786Y0174241D01*
X0152697Y0174228D01*
X0152609Y0174219D01*
X0152520Y0174214D01*
X0152431Y0174213D01*
X0152342Y0174216D01*
X0152253Y0174223D01*
X0152164Y0174234D01*
X0152076Y0174249D01*
X0151989Y0174267D01*
X0151903Y0174290D01*
X0151818Y0174316D01*
X0151734Y0174347D01*
X0151652Y0174381D01*
X0151571Y0174418D01*
X0151492Y0174459D01*
X0151415Y0174504D01*
X0151340Y0174552D01*
X0151267Y0174603D01*
X0151196Y0174657D01*
X0151128Y0174715D01*
X0151063Y0174775D01*
X0151000Y0174839D01*
X0150940Y0174905D01*
X0150883Y0174974D01*
X0150830Y0175045D01*
X0150779Y0175118D01*
X0150732Y0175194D01*
X0150689Y0175271D01*
X0150648Y0175351D01*
X0150612Y0175432D01*
X0150579Y0175515D01*
X0150550Y0175599D01*
X0150524Y0175685D01*
X0150502Y0175771D01*
X0150485Y0175858D01*
X0150471Y0175946D01*
X0150461Y0176035D01*
X0150455Y0176124D01*
X0150453Y0176213D01*
X0182595Y0202013D02*
X0183095Y0213513D01*
X0184095Y0214513D01*
X0221095Y0214513D01*
X0222095Y0213513D01*
X0222595Y0202013D01*
X0237095Y0212513D02*
X0239095Y0212513D01*
X0238095Y0211513D02*
X0238095Y0213513D01*
X0236595Y0212513D02*
X0236598Y0212783D01*
X0236608Y0213053D01*
X0236625Y0213322D01*
X0236648Y0213591D01*
X0236678Y0213860D01*
X0236714Y0214127D01*
X0236757Y0214394D01*
X0236806Y0214659D01*
X0236862Y0214923D01*
X0236925Y0215186D01*
X0236993Y0215447D01*
X0237069Y0215706D01*
X0237150Y0215963D01*
X0237238Y0216219D01*
X0237332Y0216472D01*
X0237432Y0216723D01*
X0237539Y0216971D01*
X0237651Y0217216D01*
X0237770Y0217459D01*
X0237894Y0217698D01*
X0238024Y0217935D01*
X0238160Y0218168D01*
X0238302Y0218398D01*
X0238449Y0218624D01*
X0238602Y0218847D01*
X0238760Y0219066D01*
X0238923Y0219281D01*
X0239092Y0219491D01*
X0239266Y0219698D01*
X0239445Y0219900D01*
X0239628Y0220098D01*
X0239817Y0220291D01*
X0240010Y0220480D01*
X0240208Y0220663D01*
X0240410Y0220842D01*
X0240617Y0221016D01*
X0240827Y0221185D01*
X0241042Y0221348D01*
X0241261Y0221506D01*
X0241484Y0221659D01*
X0241710Y0221806D01*
X0241940Y0221948D01*
X0242173Y0222084D01*
X0242410Y0222214D01*
X0242649Y0222338D01*
X0242892Y0222457D01*
X0243137Y0222569D01*
X0243385Y0222676D01*
X0243636Y0222776D01*
X0243889Y0222870D01*
X0244145Y0222958D01*
X0244402Y0223039D01*
X0244661Y0223115D01*
X0244922Y0223183D01*
X0245185Y0223246D01*
X0245449Y0223302D01*
X0245714Y0223351D01*
X0245981Y0223394D01*
X0246248Y0223430D01*
X0246517Y0223460D01*
X0246786Y0223483D01*
X0247055Y0223500D01*
X0247325Y0223510D01*
X0247595Y0223513D01*
X0247865Y0223510D01*
X0248135Y0223500D01*
X0248404Y0223483D01*
X0248673Y0223460D01*
X0248942Y0223430D01*
X0249209Y0223394D01*
X0249476Y0223351D01*
X0249741Y0223302D01*
X0250005Y0223246D01*
X0250268Y0223183D01*
X0250529Y0223115D01*
X0250788Y0223039D01*
X0251045Y0222958D01*
X0251301Y0222870D01*
X0251554Y0222776D01*
X0251805Y0222676D01*
X0252053Y0222569D01*
X0252298Y0222457D01*
X0252541Y0222338D01*
X0252780Y0222214D01*
X0253017Y0222084D01*
X0253250Y0221948D01*
X0253480Y0221806D01*
X0253706Y0221659D01*
X0253929Y0221506D01*
X0254148Y0221348D01*
X0254363Y0221185D01*
X0254573Y0221016D01*
X0254780Y0220842D01*
X0254982Y0220663D01*
X0255180Y0220480D01*
X0255373Y0220291D01*
X0255562Y0220098D01*
X0255745Y0219900D01*
X0255924Y0219698D01*
X0256098Y0219491D01*
X0256267Y0219281D01*
X0256430Y0219066D01*
X0256588Y0218847D01*
X0256741Y0218624D01*
X0256888Y0218398D01*
X0257030Y0218168D01*
X0257166Y0217935D01*
X0257296Y0217698D01*
X0257420Y0217459D01*
X0257539Y0217216D01*
X0257651Y0216971D01*
X0257758Y0216723D01*
X0257858Y0216472D01*
X0257952Y0216219D01*
X0258040Y0215963D01*
X0258121Y0215706D01*
X0258197Y0215447D01*
X0258265Y0215186D01*
X0258328Y0214923D01*
X0258384Y0214659D01*
X0258433Y0214394D01*
X0258476Y0214127D01*
X0258512Y0213860D01*
X0258542Y0213591D01*
X0258565Y0213322D01*
X0258582Y0213053D01*
X0258592Y0212783D01*
X0258595Y0212513D01*
X0258592Y0212243D01*
X0258582Y0211973D01*
X0258565Y0211704D01*
X0258542Y0211435D01*
X0258512Y0211166D01*
X0258476Y0210899D01*
X0258433Y0210632D01*
X0258384Y0210367D01*
X0258328Y0210103D01*
X0258265Y0209840D01*
X0258197Y0209579D01*
X0258121Y0209320D01*
X0258040Y0209063D01*
X0257952Y0208807D01*
X0257858Y0208554D01*
X0257758Y0208303D01*
X0257651Y0208055D01*
X0257539Y0207810D01*
X0257420Y0207567D01*
X0257296Y0207328D01*
X0257166Y0207091D01*
X0257030Y0206858D01*
X0256888Y0206628D01*
X0256741Y0206402D01*
X0256588Y0206179D01*
X0256430Y0205960D01*
X0256267Y0205745D01*
X0256098Y0205535D01*
X0255924Y0205328D01*
X0255745Y0205126D01*
X0255562Y0204928D01*
X0255373Y0204735D01*
X0255180Y0204546D01*
X0254982Y0204363D01*
X0254780Y0204184D01*
X0254573Y0204010D01*
X0254363Y0203841D01*
X0254148Y0203678D01*
X0253929Y0203520D01*
X0253706Y0203367D01*
X0253480Y0203220D01*
X0253250Y0203078D01*
X0253017Y0202942D01*
X0252780Y0202812D01*
X0252541Y0202688D01*
X0252298Y0202569D01*
X0252053Y0202457D01*
X0251805Y0202350D01*
X0251554Y0202250D01*
X0251301Y0202156D01*
X0251045Y0202068D01*
X0250788Y0201987D01*
X0250529Y0201911D01*
X0250268Y0201843D01*
X0250005Y0201780D01*
X0249741Y0201724D01*
X0249476Y0201675D01*
X0249209Y0201632D01*
X0248942Y0201596D01*
X0248673Y0201566D01*
X0248404Y0201543D01*
X0248135Y0201526D01*
X0247865Y0201516D01*
X0247595Y0201513D01*
X0247325Y0201516D01*
X0247055Y0201526D01*
X0246786Y0201543D01*
X0246517Y0201566D01*
X0246248Y0201596D01*
X0245981Y0201632D01*
X0245714Y0201675D01*
X0245449Y0201724D01*
X0245185Y0201780D01*
X0244922Y0201843D01*
X0244661Y0201911D01*
X0244402Y0201987D01*
X0244145Y0202068D01*
X0243889Y0202156D01*
X0243636Y0202250D01*
X0243385Y0202350D01*
X0243137Y0202457D01*
X0242892Y0202569D01*
X0242649Y0202688D01*
X0242410Y0202812D01*
X0242173Y0202942D01*
X0241940Y0203078D01*
X0241710Y0203220D01*
X0241484Y0203367D01*
X0241261Y0203520D01*
X0241042Y0203678D01*
X0240827Y0203841D01*
X0240617Y0204010D01*
X0240410Y0204184D01*
X0240208Y0204363D01*
X0240010Y0204546D01*
X0239817Y0204735D01*
X0239628Y0204928D01*
X0239445Y0205126D01*
X0239266Y0205328D01*
X0239092Y0205535D01*
X0238923Y0205745D01*
X0238760Y0205960D01*
X0238602Y0206179D01*
X0238449Y0206402D01*
X0238302Y0206628D01*
X0238160Y0206858D01*
X0238024Y0207091D01*
X0237894Y0207328D01*
X0237770Y0207567D01*
X0237651Y0207810D01*
X0237539Y0208055D01*
X0237432Y0208303D01*
X0237332Y0208554D01*
X0237238Y0208807D01*
X0237150Y0209063D01*
X0237069Y0209320D01*
X0236993Y0209579D01*
X0236925Y0209840D01*
X0236862Y0210103D01*
X0236806Y0210367D01*
X0236757Y0210632D01*
X0236714Y0210899D01*
X0236678Y0211166D01*
X0236648Y0211435D01*
X0236625Y0211704D01*
X0236608Y0211973D01*
X0236598Y0212243D01*
X0236595Y0212513D01*
X0219095Y0228013D02*
X0217595Y0228013D01*
X0217095Y0228513D01*
X0198095Y0228513D01*
X0197595Y0228013D01*
X0196095Y0228013D01*
X0196035Y0228015D01*
X0195974Y0228020D01*
X0195915Y0228029D01*
X0195856Y0228042D01*
X0195797Y0228058D01*
X0195740Y0228078D01*
X0195685Y0228101D01*
X0195630Y0228128D01*
X0195578Y0228157D01*
X0195527Y0228190D01*
X0195478Y0228226D01*
X0195432Y0228264D01*
X0195388Y0228306D01*
X0195346Y0228350D01*
X0195308Y0228396D01*
X0195272Y0228445D01*
X0195239Y0228496D01*
X0195210Y0228548D01*
X0195183Y0228603D01*
X0195160Y0228658D01*
X0195140Y0228715D01*
X0195124Y0228774D01*
X0195111Y0228833D01*
X0195102Y0228892D01*
X0195097Y0228953D01*
X0195095Y0229013D01*
X0195095Y0236013D01*
X0195097Y0236073D01*
X0195102Y0236134D01*
X0195111Y0236193D01*
X0195124Y0236252D01*
X0195140Y0236311D01*
X0195160Y0236368D01*
X0195183Y0236423D01*
X0195210Y0236478D01*
X0195239Y0236530D01*
X0195272Y0236581D01*
X0195308Y0236630D01*
X0195346Y0236676D01*
X0195388Y0236720D01*
X0195432Y0236762D01*
X0195478Y0236800D01*
X0195527Y0236836D01*
X0195578Y0236869D01*
X0195630Y0236898D01*
X0195685Y0236925D01*
X0195740Y0236948D01*
X0195797Y0236968D01*
X0195856Y0236984D01*
X0195915Y0236997D01*
X0195974Y0237006D01*
X0196035Y0237011D01*
X0196095Y0237013D01*
X0197595Y0237013D01*
X0198095Y0236513D01*
X0217095Y0236513D01*
X0217595Y0237013D01*
X0219095Y0237013D01*
X0219155Y0237011D01*
X0219216Y0237006D01*
X0219275Y0236997D01*
X0219334Y0236984D01*
X0219393Y0236968D01*
X0219450Y0236948D01*
X0219505Y0236925D01*
X0219560Y0236898D01*
X0219612Y0236869D01*
X0219663Y0236836D01*
X0219712Y0236800D01*
X0219758Y0236762D01*
X0219802Y0236720D01*
X0219844Y0236676D01*
X0219882Y0236630D01*
X0219918Y0236581D01*
X0219951Y0236530D01*
X0219980Y0236478D01*
X0220007Y0236423D01*
X0220030Y0236368D01*
X0220050Y0236311D01*
X0220066Y0236252D01*
X0220079Y0236193D01*
X0220088Y0236134D01*
X0220093Y0236073D01*
X0220095Y0236013D01*
X0220095Y0229013D01*
X0220093Y0228953D01*
X0220088Y0228892D01*
X0220079Y0228833D01*
X0220066Y0228774D01*
X0220050Y0228715D01*
X0220030Y0228658D01*
X0220007Y0228603D01*
X0219980Y0228548D01*
X0219951Y0228496D01*
X0219918Y0228445D01*
X0219882Y0228396D01*
X0219844Y0228350D01*
X0219802Y0228306D01*
X0219758Y0228264D01*
X0219712Y0228226D01*
X0219663Y0228190D01*
X0219612Y0228157D01*
X0219560Y0228128D01*
X0219505Y0228101D01*
X0219450Y0228078D01*
X0219393Y0228058D01*
X0219334Y0228042D01*
X0219275Y0228029D01*
X0219216Y0228020D01*
X0219155Y0228015D01*
X0219095Y0228013D01*
X0232938Y0247812D02*
X0272237Y0247812D01*
X0272237Y0248611D01*
X0232938Y0248611D01*
X0232938Y0274611D01*
X0232938Y0284013D01*
X0272237Y0284013D01*
X0272237Y0274611D01*
X0272237Y0248611D01*
X0260438Y0253813D02*
X0260440Y0253902D01*
X0260446Y0253991D01*
X0260456Y0254080D01*
X0260470Y0254168D01*
X0260487Y0254255D01*
X0260509Y0254341D01*
X0260535Y0254427D01*
X0260564Y0254511D01*
X0260597Y0254594D01*
X0260633Y0254675D01*
X0260674Y0254755D01*
X0260717Y0254832D01*
X0260764Y0254908D01*
X0260815Y0254981D01*
X0260868Y0255052D01*
X0260925Y0255121D01*
X0260985Y0255187D01*
X0261048Y0255251D01*
X0261113Y0255311D01*
X0261181Y0255369D01*
X0261252Y0255423D01*
X0261325Y0255474D01*
X0261400Y0255522D01*
X0261477Y0255567D01*
X0261556Y0255608D01*
X0261637Y0255645D01*
X0261719Y0255679D01*
X0261803Y0255710D01*
X0261888Y0255736D01*
X0261974Y0255759D01*
X0262061Y0255777D01*
X0262149Y0255792D01*
X0262238Y0255803D01*
X0262327Y0255810D01*
X0262416Y0255813D01*
X0262505Y0255812D01*
X0262594Y0255807D01*
X0262682Y0255798D01*
X0262771Y0255785D01*
X0262858Y0255768D01*
X0262945Y0255748D01*
X0263031Y0255723D01*
X0263115Y0255695D01*
X0263198Y0255663D01*
X0263280Y0255627D01*
X0263360Y0255588D01*
X0263438Y0255545D01*
X0263514Y0255499D01*
X0263588Y0255449D01*
X0263660Y0255396D01*
X0263729Y0255340D01*
X0263796Y0255281D01*
X0263860Y0255219D01*
X0263921Y0255155D01*
X0263980Y0255087D01*
X0264035Y0255017D01*
X0264087Y0254945D01*
X0264136Y0254870D01*
X0264181Y0254794D01*
X0264223Y0254715D01*
X0264261Y0254635D01*
X0264296Y0254553D01*
X0264327Y0254469D01*
X0264355Y0254384D01*
X0264378Y0254298D01*
X0264398Y0254211D01*
X0264414Y0254124D01*
X0264426Y0254035D01*
X0264434Y0253947D01*
X0264438Y0253858D01*
X0264438Y0253768D01*
X0264434Y0253679D01*
X0264426Y0253591D01*
X0264414Y0253502D01*
X0264398Y0253415D01*
X0264378Y0253328D01*
X0264355Y0253242D01*
X0264327Y0253157D01*
X0264296Y0253073D01*
X0264261Y0252991D01*
X0264223Y0252911D01*
X0264181Y0252832D01*
X0264136Y0252756D01*
X0264087Y0252681D01*
X0264035Y0252609D01*
X0263980Y0252539D01*
X0263921Y0252471D01*
X0263860Y0252407D01*
X0263796Y0252345D01*
X0263729Y0252286D01*
X0263660Y0252230D01*
X0263588Y0252177D01*
X0263514Y0252127D01*
X0263438Y0252081D01*
X0263360Y0252038D01*
X0263280Y0251999D01*
X0263198Y0251963D01*
X0263115Y0251931D01*
X0263031Y0251903D01*
X0262945Y0251878D01*
X0262858Y0251858D01*
X0262771Y0251841D01*
X0262682Y0251828D01*
X0262594Y0251819D01*
X0262505Y0251814D01*
X0262416Y0251813D01*
X0262327Y0251816D01*
X0262238Y0251823D01*
X0262149Y0251834D01*
X0262061Y0251849D01*
X0261974Y0251867D01*
X0261888Y0251890D01*
X0261803Y0251916D01*
X0261719Y0251947D01*
X0261637Y0251981D01*
X0261556Y0252018D01*
X0261477Y0252059D01*
X0261400Y0252104D01*
X0261325Y0252152D01*
X0261252Y0252203D01*
X0261181Y0252257D01*
X0261113Y0252315D01*
X0261048Y0252375D01*
X0260985Y0252439D01*
X0260925Y0252505D01*
X0260868Y0252574D01*
X0260815Y0252645D01*
X0260764Y0252718D01*
X0260717Y0252794D01*
X0260674Y0252871D01*
X0260633Y0252951D01*
X0260597Y0253032D01*
X0260564Y0253115D01*
X0260535Y0253199D01*
X0260509Y0253285D01*
X0260487Y0253371D01*
X0260470Y0253458D01*
X0260456Y0253546D01*
X0260446Y0253635D01*
X0260440Y0253724D01*
X0260438Y0253813D01*
X0240738Y0253813D02*
X0240740Y0253902D01*
X0240746Y0253991D01*
X0240756Y0254080D01*
X0240770Y0254168D01*
X0240787Y0254255D01*
X0240809Y0254341D01*
X0240835Y0254427D01*
X0240864Y0254511D01*
X0240897Y0254594D01*
X0240933Y0254675D01*
X0240974Y0254755D01*
X0241017Y0254832D01*
X0241064Y0254908D01*
X0241115Y0254981D01*
X0241168Y0255052D01*
X0241225Y0255121D01*
X0241285Y0255187D01*
X0241348Y0255251D01*
X0241413Y0255311D01*
X0241481Y0255369D01*
X0241552Y0255423D01*
X0241625Y0255474D01*
X0241700Y0255522D01*
X0241777Y0255567D01*
X0241856Y0255608D01*
X0241937Y0255645D01*
X0242019Y0255679D01*
X0242103Y0255710D01*
X0242188Y0255736D01*
X0242274Y0255759D01*
X0242361Y0255777D01*
X0242449Y0255792D01*
X0242538Y0255803D01*
X0242627Y0255810D01*
X0242716Y0255813D01*
X0242805Y0255812D01*
X0242894Y0255807D01*
X0242982Y0255798D01*
X0243071Y0255785D01*
X0243158Y0255768D01*
X0243245Y0255748D01*
X0243331Y0255723D01*
X0243415Y0255695D01*
X0243498Y0255663D01*
X0243580Y0255627D01*
X0243660Y0255588D01*
X0243738Y0255545D01*
X0243814Y0255499D01*
X0243888Y0255449D01*
X0243960Y0255396D01*
X0244029Y0255340D01*
X0244096Y0255281D01*
X0244160Y0255219D01*
X0244221Y0255155D01*
X0244280Y0255087D01*
X0244335Y0255017D01*
X0244387Y0254945D01*
X0244436Y0254870D01*
X0244481Y0254794D01*
X0244523Y0254715D01*
X0244561Y0254635D01*
X0244596Y0254553D01*
X0244627Y0254469D01*
X0244655Y0254384D01*
X0244678Y0254298D01*
X0244698Y0254211D01*
X0244714Y0254124D01*
X0244726Y0254035D01*
X0244734Y0253947D01*
X0244738Y0253858D01*
X0244738Y0253768D01*
X0244734Y0253679D01*
X0244726Y0253591D01*
X0244714Y0253502D01*
X0244698Y0253415D01*
X0244678Y0253328D01*
X0244655Y0253242D01*
X0244627Y0253157D01*
X0244596Y0253073D01*
X0244561Y0252991D01*
X0244523Y0252911D01*
X0244481Y0252832D01*
X0244436Y0252756D01*
X0244387Y0252681D01*
X0244335Y0252609D01*
X0244280Y0252539D01*
X0244221Y0252471D01*
X0244160Y0252407D01*
X0244096Y0252345D01*
X0244029Y0252286D01*
X0243960Y0252230D01*
X0243888Y0252177D01*
X0243814Y0252127D01*
X0243738Y0252081D01*
X0243660Y0252038D01*
X0243580Y0251999D01*
X0243498Y0251963D01*
X0243415Y0251931D01*
X0243331Y0251903D01*
X0243245Y0251878D01*
X0243158Y0251858D01*
X0243071Y0251841D01*
X0242982Y0251828D01*
X0242894Y0251819D01*
X0242805Y0251814D01*
X0242716Y0251813D01*
X0242627Y0251816D01*
X0242538Y0251823D01*
X0242449Y0251834D01*
X0242361Y0251849D01*
X0242274Y0251867D01*
X0242188Y0251890D01*
X0242103Y0251916D01*
X0242019Y0251947D01*
X0241937Y0251981D01*
X0241856Y0252018D01*
X0241777Y0252059D01*
X0241700Y0252104D01*
X0241625Y0252152D01*
X0241552Y0252203D01*
X0241481Y0252257D01*
X0241413Y0252315D01*
X0241348Y0252375D01*
X0241285Y0252439D01*
X0241225Y0252505D01*
X0241168Y0252574D01*
X0241115Y0252645D01*
X0241064Y0252718D01*
X0241017Y0252794D01*
X0240974Y0252871D01*
X0240933Y0252951D01*
X0240897Y0253032D01*
X0240864Y0253115D01*
X0240835Y0253199D01*
X0240809Y0253285D01*
X0240787Y0253371D01*
X0240770Y0253458D01*
X0240756Y0253546D01*
X0240746Y0253635D01*
X0240740Y0253724D01*
X0240738Y0253813D01*
X0232938Y0248611D02*
X0232938Y0247812D01*
X0217095Y0256013D02*
X0217095Y0257513D01*
X0216595Y0258013D01*
X0216595Y0277013D01*
X0217095Y0277513D01*
X0217095Y0279013D01*
X0217093Y0279073D01*
X0217088Y0279134D01*
X0217079Y0279193D01*
X0217066Y0279252D01*
X0217050Y0279311D01*
X0217030Y0279368D01*
X0217007Y0279423D01*
X0216980Y0279478D01*
X0216951Y0279530D01*
X0216918Y0279581D01*
X0216882Y0279630D01*
X0216844Y0279676D01*
X0216802Y0279720D01*
X0216758Y0279762D01*
X0216712Y0279800D01*
X0216663Y0279836D01*
X0216612Y0279869D01*
X0216560Y0279898D01*
X0216505Y0279925D01*
X0216450Y0279948D01*
X0216393Y0279968D01*
X0216334Y0279984D01*
X0216275Y0279997D01*
X0216216Y0280006D01*
X0216155Y0280011D01*
X0216095Y0280013D01*
X0209095Y0280013D01*
X0209035Y0280011D01*
X0208974Y0280006D01*
X0208915Y0279997D01*
X0208856Y0279984D01*
X0208797Y0279968D01*
X0208740Y0279948D01*
X0208685Y0279925D01*
X0208630Y0279898D01*
X0208578Y0279869D01*
X0208527Y0279836D01*
X0208478Y0279800D01*
X0208432Y0279762D01*
X0208388Y0279720D01*
X0208346Y0279676D01*
X0208308Y0279630D01*
X0208272Y0279581D01*
X0208239Y0279530D01*
X0208210Y0279478D01*
X0208183Y0279423D01*
X0208160Y0279368D01*
X0208140Y0279311D01*
X0208124Y0279252D01*
X0208111Y0279193D01*
X0208102Y0279134D01*
X0208097Y0279073D01*
X0208095Y0279013D01*
X0208095Y0277513D01*
X0208595Y0277013D01*
X0208595Y0258013D01*
X0208095Y0257513D01*
X0208095Y0256013D01*
X0208097Y0255953D01*
X0208102Y0255892D01*
X0208111Y0255833D01*
X0208124Y0255774D01*
X0208140Y0255715D01*
X0208160Y0255658D01*
X0208183Y0255603D01*
X0208210Y0255548D01*
X0208239Y0255496D01*
X0208272Y0255445D01*
X0208308Y0255396D01*
X0208346Y0255350D01*
X0208388Y0255306D01*
X0208432Y0255264D01*
X0208478Y0255226D01*
X0208527Y0255190D01*
X0208578Y0255157D01*
X0208630Y0255128D01*
X0208685Y0255101D01*
X0208740Y0255078D01*
X0208797Y0255058D01*
X0208856Y0255042D01*
X0208915Y0255029D01*
X0208974Y0255020D01*
X0209035Y0255015D01*
X0209095Y0255013D01*
X0216095Y0255013D01*
X0216155Y0255015D01*
X0216216Y0255020D01*
X0216275Y0255029D01*
X0216334Y0255042D01*
X0216393Y0255058D01*
X0216450Y0255078D01*
X0216505Y0255101D01*
X0216560Y0255128D01*
X0216612Y0255157D01*
X0216663Y0255190D01*
X0216712Y0255226D01*
X0216758Y0255264D01*
X0216802Y0255306D01*
X0216844Y0255350D01*
X0216882Y0255396D01*
X0216918Y0255445D01*
X0216951Y0255496D01*
X0216980Y0255548D01*
X0217007Y0255603D01*
X0217030Y0255658D01*
X0217050Y0255715D01*
X0217066Y0255774D01*
X0217079Y0255833D01*
X0217088Y0255892D01*
X0217093Y0255953D01*
X0217095Y0256013D01*
X0232938Y0274611D02*
X0239237Y0274611D01*
X0246237Y0274611D02*
X0258938Y0274611D01*
X0265938Y0274611D02*
X0272237Y0274611D01*
X0283095Y0277513D02*
X0283595Y0277013D01*
X0283595Y0258013D01*
X0283095Y0257513D01*
X0283095Y0256013D01*
X0283097Y0255953D01*
X0283102Y0255892D01*
X0283111Y0255833D01*
X0283124Y0255774D01*
X0283140Y0255715D01*
X0283160Y0255658D01*
X0283183Y0255603D01*
X0283210Y0255548D01*
X0283239Y0255496D01*
X0283272Y0255445D01*
X0283308Y0255396D01*
X0283346Y0255350D01*
X0283388Y0255306D01*
X0283432Y0255264D01*
X0283478Y0255226D01*
X0283527Y0255190D01*
X0283578Y0255157D01*
X0283630Y0255128D01*
X0283685Y0255101D01*
X0283740Y0255078D01*
X0283797Y0255058D01*
X0283856Y0255042D01*
X0283915Y0255029D01*
X0283974Y0255020D01*
X0284035Y0255015D01*
X0284095Y0255013D01*
X0291095Y0255013D01*
X0291155Y0255015D01*
X0291216Y0255020D01*
X0291275Y0255029D01*
X0291334Y0255042D01*
X0291393Y0255058D01*
X0291450Y0255078D01*
X0291505Y0255101D01*
X0291560Y0255128D01*
X0291612Y0255157D01*
X0291663Y0255190D01*
X0291712Y0255226D01*
X0291758Y0255264D01*
X0291802Y0255306D01*
X0291844Y0255350D01*
X0291882Y0255396D01*
X0291918Y0255445D01*
X0291951Y0255496D01*
X0291980Y0255548D01*
X0292007Y0255603D01*
X0292030Y0255658D01*
X0292050Y0255715D01*
X0292066Y0255774D01*
X0292079Y0255833D01*
X0292088Y0255892D01*
X0292093Y0255953D01*
X0292095Y0256013D01*
X0292095Y0257513D01*
X0291595Y0258013D01*
X0291595Y0277013D01*
X0292095Y0277513D01*
X0292095Y0279013D01*
X0292093Y0279073D01*
X0292088Y0279134D01*
X0292079Y0279193D01*
X0292066Y0279252D01*
X0292050Y0279311D01*
X0292030Y0279368D01*
X0292007Y0279423D01*
X0291980Y0279478D01*
X0291951Y0279530D01*
X0291918Y0279581D01*
X0291882Y0279630D01*
X0291844Y0279676D01*
X0291802Y0279720D01*
X0291758Y0279762D01*
X0291712Y0279800D01*
X0291663Y0279836D01*
X0291612Y0279869D01*
X0291560Y0279898D01*
X0291505Y0279925D01*
X0291450Y0279948D01*
X0291393Y0279968D01*
X0291334Y0279984D01*
X0291275Y0279997D01*
X0291216Y0280006D01*
X0291155Y0280011D01*
X0291095Y0280013D01*
X0284095Y0280013D01*
X0284035Y0280011D01*
X0283974Y0280006D01*
X0283915Y0279997D01*
X0283856Y0279984D01*
X0283797Y0279968D01*
X0283740Y0279948D01*
X0283685Y0279925D01*
X0283630Y0279898D01*
X0283578Y0279869D01*
X0283527Y0279836D01*
X0283478Y0279800D01*
X0283432Y0279762D01*
X0283388Y0279720D01*
X0283346Y0279676D01*
X0283308Y0279630D01*
X0283272Y0279581D01*
X0283239Y0279530D01*
X0283210Y0279478D01*
X0283183Y0279423D01*
X0283160Y0279368D01*
X0283140Y0279311D01*
X0283124Y0279252D01*
X0283111Y0279193D01*
X0283102Y0279134D01*
X0283097Y0279073D01*
X0283095Y0279013D01*
X0283095Y0277513D01*
X0328095Y0239013D02*
X0328095Y0237513D01*
X0328595Y0237013D01*
X0328595Y0218013D01*
X0328095Y0217513D01*
X0328095Y0216013D01*
X0328097Y0215953D01*
X0328102Y0215892D01*
X0328111Y0215833D01*
X0328124Y0215774D01*
X0328140Y0215715D01*
X0328160Y0215658D01*
X0328183Y0215603D01*
X0328210Y0215548D01*
X0328239Y0215496D01*
X0328272Y0215445D01*
X0328308Y0215396D01*
X0328346Y0215350D01*
X0328388Y0215306D01*
X0328432Y0215264D01*
X0328478Y0215226D01*
X0328527Y0215190D01*
X0328578Y0215157D01*
X0328630Y0215128D01*
X0328685Y0215101D01*
X0328740Y0215078D01*
X0328797Y0215058D01*
X0328856Y0215042D01*
X0328915Y0215029D01*
X0328974Y0215020D01*
X0329035Y0215015D01*
X0329095Y0215013D01*
X0336095Y0215013D01*
X0336155Y0215015D01*
X0336216Y0215020D01*
X0336275Y0215029D01*
X0336334Y0215042D01*
X0336393Y0215058D01*
X0336450Y0215078D01*
X0336505Y0215101D01*
X0336560Y0215128D01*
X0336612Y0215157D01*
X0336663Y0215190D01*
X0336712Y0215226D01*
X0336758Y0215264D01*
X0336802Y0215306D01*
X0336844Y0215350D01*
X0336882Y0215396D01*
X0336918Y0215445D01*
X0336951Y0215496D01*
X0336980Y0215548D01*
X0337007Y0215603D01*
X0337030Y0215658D01*
X0337050Y0215715D01*
X0337066Y0215774D01*
X0337079Y0215833D01*
X0337088Y0215892D01*
X0337093Y0215953D01*
X0337095Y0216013D01*
X0337095Y0217513D01*
X0336595Y0218013D01*
X0336595Y0237013D01*
X0337095Y0237513D01*
X0337095Y0239013D01*
X0337093Y0239073D01*
X0337088Y0239134D01*
X0337079Y0239193D01*
X0337066Y0239252D01*
X0337050Y0239311D01*
X0337030Y0239368D01*
X0337007Y0239423D01*
X0336980Y0239478D01*
X0336951Y0239530D01*
X0336918Y0239581D01*
X0336882Y0239630D01*
X0336844Y0239676D01*
X0336802Y0239720D01*
X0336758Y0239762D01*
X0336712Y0239800D01*
X0336663Y0239836D01*
X0336612Y0239869D01*
X0336560Y0239898D01*
X0336505Y0239925D01*
X0336450Y0239948D01*
X0336393Y0239968D01*
X0336334Y0239984D01*
X0336275Y0239997D01*
X0336216Y0240006D01*
X0336155Y0240011D01*
X0336095Y0240013D01*
X0329095Y0240013D01*
X0329035Y0240011D01*
X0328974Y0240006D01*
X0328915Y0239997D01*
X0328856Y0239984D01*
X0328797Y0239968D01*
X0328740Y0239948D01*
X0328685Y0239925D01*
X0328630Y0239898D01*
X0328578Y0239869D01*
X0328527Y0239836D01*
X0328478Y0239800D01*
X0328432Y0239762D01*
X0328388Y0239720D01*
X0328346Y0239676D01*
X0328308Y0239630D01*
X0328272Y0239581D01*
X0328239Y0239530D01*
X0328210Y0239478D01*
X0328183Y0239423D01*
X0328160Y0239368D01*
X0328140Y0239311D01*
X0328124Y0239252D01*
X0328111Y0239193D01*
X0328102Y0239134D01*
X0328097Y0239073D01*
X0328095Y0239013D01*
X0305095Y0236013D02*
X0305095Y0229013D01*
X0305093Y0228953D01*
X0305088Y0228892D01*
X0305079Y0228833D01*
X0305066Y0228774D01*
X0305050Y0228715D01*
X0305030Y0228658D01*
X0305007Y0228603D01*
X0304980Y0228548D01*
X0304951Y0228496D01*
X0304918Y0228445D01*
X0304882Y0228396D01*
X0304844Y0228350D01*
X0304802Y0228306D01*
X0304758Y0228264D01*
X0304712Y0228226D01*
X0304663Y0228190D01*
X0304612Y0228157D01*
X0304560Y0228128D01*
X0304505Y0228101D01*
X0304450Y0228078D01*
X0304393Y0228058D01*
X0304334Y0228042D01*
X0304275Y0228029D01*
X0304216Y0228020D01*
X0304155Y0228015D01*
X0304095Y0228013D01*
X0302595Y0228013D01*
X0302095Y0228513D01*
X0283095Y0228513D01*
X0282595Y0228013D01*
X0281095Y0228013D01*
X0281035Y0228015D01*
X0280974Y0228020D01*
X0280915Y0228029D01*
X0280856Y0228042D01*
X0280797Y0228058D01*
X0280740Y0228078D01*
X0280685Y0228101D01*
X0280630Y0228128D01*
X0280578Y0228157D01*
X0280527Y0228190D01*
X0280478Y0228226D01*
X0280432Y0228264D01*
X0280388Y0228306D01*
X0280346Y0228350D01*
X0280308Y0228396D01*
X0280272Y0228445D01*
X0280239Y0228496D01*
X0280210Y0228548D01*
X0280183Y0228603D01*
X0280160Y0228658D01*
X0280140Y0228715D01*
X0280124Y0228774D01*
X0280111Y0228833D01*
X0280102Y0228892D01*
X0280097Y0228953D01*
X0280095Y0229013D01*
X0280095Y0236013D01*
X0280097Y0236073D01*
X0280102Y0236134D01*
X0280111Y0236193D01*
X0280124Y0236252D01*
X0280140Y0236311D01*
X0280160Y0236368D01*
X0280183Y0236423D01*
X0280210Y0236478D01*
X0280239Y0236530D01*
X0280272Y0236581D01*
X0280308Y0236630D01*
X0280346Y0236676D01*
X0280388Y0236720D01*
X0280432Y0236762D01*
X0280478Y0236800D01*
X0280527Y0236836D01*
X0280578Y0236869D01*
X0280630Y0236898D01*
X0280685Y0236925D01*
X0280740Y0236948D01*
X0280797Y0236968D01*
X0280856Y0236984D01*
X0280915Y0236997D01*
X0280974Y0237006D01*
X0281035Y0237011D01*
X0281095Y0237013D01*
X0282595Y0237013D01*
X0283095Y0236513D01*
X0302095Y0236513D01*
X0302595Y0237013D01*
X0304095Y0237013D01*
X0304155Y0237011D01*
X0304216Y0237006D01*
X0304275Y0236997D01*
X0304334Y0236984D01*
X0304393Y0236968D01*
X0304450Y0236948D01*
X0304505Y0236925D01*
X0304560Y0236898D01*
X0304612Y0236869D01*
X0304663Y0236836D01*
X0304712Y0236800D01*
X0304758Y0236762D01*
X0304802Y0236720D01*
X0304844Y0236676D01*
X0304882Y0236630D01*
X0304918Y0236581D01*
X0304951Y0236530D01*
X0304980Y0236478D01*
X0305007Y0236423D01*
X0305030Y0236368D01*
X0305050Y0236311D01*
X0305066Y0236252D01*
X0305079Y0236193D01*
X0305088Y0236134D01*
X0305093Y0236073D01*
X0305095Y0236013D01*
X0317595Y0213013D02*
X0317095Y0201513D01*
X0316095Y0200513D01*
X0279095Y0200513D01*
X0278095Y0201513D01*
X0277595Y0213013D01*
X0345753Y0176213D02*
X0345755Y0176302D01*
X0345761Y0176391D01*
X0345771Y0176480D01*
X0345785Y0176568D01*
X0345802Y0176655D01*
X0345824Y0176741D01*
X0345850Y0176827D01*
X0345879Y0176911D01*
X0345912Y0176994D01*
X0345948Y0177075D01*
X0345989Y0177155D01*
X0346032Y0177232D01*
X0346079Y0177308D01*
X0346130Y0177381D01*
X0346183Y0177452D01*
X0346240Y0177521D01*
X0346300Y0177587D01*
X0346363Y0177651D01*
X0346428Y0177711D01*
X0346496Y0177769D01*
X0346567Y0177823D01*
X0346640Y0177874D01*
X0346715Y0177922D01*
X0346792Y0177967D01*
X0346871Y0178008D01*
X0346952Y0178045D01*
X0347034Y0178079D01*
X0347118Y0178110D01*
X0347203Y0178136D01*
X0347289Y0178159D01*
X0347376Y0178177D01*
X0347464Y0178192D01*
X0347553Y0178203D01*
X0347642Y0178210D01*
X0347731Y0178213D01*
X0347820Y0178212D01*
X0347909Y0178207D01*
X0347997Y0178198D01*
X0348086Y0178185D01*
X0348173Y0178168D01*
X0348260Y0178148D01*
X0348346Y0178123D01*
X0348430Y0178095D01*
X0348513Y0178063D01*
X0348595Y0178027D01*
X0348675Y0177988D01*
X0348753Y0177945D01*
X0348829Y0177899D01*
X0348903Y0177849D01*
X0348975Y0177796D01*
X0349044Y0177740D01*
X0349111Y0177681D01*
X0349175Y0177619D01*
X0349236Y0177555D01*
X0349295Y0177487D01*
X0349350Y0177417D01*
X0349402Y0177345D01*
X0349451Y0177270D01*
X0349496Y0177194D01*
X0349538Y0177115D01*
X0349576Y0177035D01*
X0349611Y0176953D01*
X0349642Y0176869D01*
X0349670Y0176784D01*
X0349693Y0176698D01*
X0349713Y0176611D01*
X0349729Y0176524D01*
X0349741Y0176435D01*
X0349749Y0176347D01*
X0349753Y0176258D01*
X0349753Y0176168D01*
X0349749Y0176079D01*
X0349741Y0175991D01*
X0349729Y0175902D01*
X0349713Y0175815D01*
X0349693Y0175728D01*
X0349670Y0175642D01*
X0349642Y0175557D01*
X0349611Y0175473D01*
X0349576Y0175391D01*
X0349538Y0175311D01*
X0349496Y0175232D01*
X0349451Y0175156D01*
X0349402Y0175081D01*
X0349350Y0175009D01*
X0349295Y0174939D01*
X0349236Y0174871D01*
X0349175Y0174807D01*
X0349111Y0174745D01*
X0349044Y0174686D01*
X0348975Y0174630D01*
X0348903Y0174577D01*
X0348829Y0174527D01*
X0348753Y0174481D01*
X0348675Y0174438D01*
X0348595Y0174399D01*
X0348513Y0174363D01*
X0348430Y0174331D01*
X0348346Y0174303D01*
X0348260Y0174278D01*
X0348173Y0174258D01*
X0348086Y0174241D01*
X0347997Y0174228D01*
X0347909Y0174219D01*
X0347820Y0174214D01*
X0347731Y0174213D01*
X0347642Y0174216D01*
X0347553Y0174223D01*
X0347464Y0174234D01*
X0347376Y0174249D01*
X0347289Y0174267D01*
X0347203Y0174290D01*
X0347118Y0174316D01*
X0347034Y0174347D01*
X0346952Y0174381D01*
X0346871Y0174418D01*
X0346792Y0174459D01*
X0346715Y0174504D01*
X0346640Y0174552D01*
X0346567Y0174603D01*
X0346496Y0174657D01*
X0346428Y0174715D01*
X0346363Y0174775D01*
X0346300Y0174839D01*
X0346240Y0174905D01*
X0346183Y0174974D01*
X0346130Y0175045D01*
X0346079Y0175118D01*
X0346032Y0175194D01*
X0345989Y0175271D01*
X0345948Y0175351D01*
X0345912Y0175432D01*
X0345879Y0175515D01*
X0345850Y0175599D01*
X0345824Y0175685D01*
X0345802Y0175771D01*
X0345785Y0175858D01*
X0345771Y0175946D01*
X0345761Y0176035D01*
X0345755Y0176124D01*
X0345753Y0176213D01*
X0365453Y0176213D02*
X0365455Y0176302D01*
X0365461Y0176391D01*
X0365471Y0176480D01*
X0365485Y0176568D01*
X0365502Y0176655D01*
X0365524Y0176741D01*
X0365550Y0176827D01*
X0365579Y0176911D01*
X0365612Y0176994D01*
X0365648Y0177075D01*
X0365689Y0177155D01*
X0365732Y0177232D01*
X0365779Y0177308D01*
X0365830Y0177381D01*
X0365883Y0177452D01*
X0365940Y0177521D01*
X0366000Y0177587D01*
X0366063Y0177651D01*
X0366128Y0177711D01*
X0366196Y0177769D01*
X0366267Y0177823D01*
X0366340Y0177874D01*
X0366415Y0177922D01*
X0366492Y0177967D01*
X0366571Y0178008D01*
X0366652Y0178045D01*
X0366734Y0178079D01*
X0366818Y0178110D01*
X0366903Y0178136D01*
X0366989Y0178159D01*
X0367076Y0178177D01*
X0367164Y0178192D01*
X0367253Y0178203D01*
X0367342Y0178210D01*
X0367431Y0178213D01*
X0367520Y0178212D01*
X0367609Y0178207D01*
X0367697Y0178198D01*
X0367786Y0178185D01*
X0367873Y0178168D01*
X0367960Y0178148D01*
X0368046Y0178123D01*
X0368130Y0178095D01*
X0368213Y0178063D01*
X0368295Y0178027D01*
X0368375Y0177988D01*
X0368453Y0177945D01*
X0368529Y0177899D01*
X0368603Y0177849D01*
X0368675Y0177796D01*
X0368744Y0177740D01*
X0368811Y0177681D01*
X0368875Y0177619D01*
X0368936Y0177555D01*
X0368995Y0177487D01*
X0369050Y0177417D01*
X0369102Y0177345D01*
X0369151Y0177270D01*
X0369196Y0177194D01*
X0369238Y0177115D01*
X0369276Y0177035D01*
X0369311Y0176953D01*
X0369342Y0176869D01*
X0369370Y0176784D01*
X0369393Y0176698D01*
X0369413Y0176611D01*
X0369429Y0176524D01*
X0369441Y0176435D01*
X0369449Y0176347D01*
X0369453Y0176258D01*
X0369453Y0176168D01*
X0369449Y0176079D01*
X0369441Y0175991D01*
X0369429Y0175902D01*
X0369413Y0175815D01*
X0369393Y0175728D01*
X0369370Y0175642D01*
X0369342Y0175557D01*
X0369311Y0175473D01*
X0369276Y0175391D01*
X0369238Y0175311D01*
X0369196Y0175232D01*
X0369151Y0175156D01*
X0369102Y0175081D01*
X0369050Y0175009D01*
X0368995Y0174939D01*
X0368936Y0174871D01*
X0368875Y0174807D01*
X0368811Y0174745D01*
X0368744Y0174686D01*
X0368675Y0174630D01*
X0368603Y0174577D01*
X0368529Y0174527D01*
X0368453Y0174481D01*
X0368375Y0174438D01*
X0368295Y0174399D01*
X0368213Y0174363D01*
X0368130Y0174331D01*
X0368046Y0174303D01*
X0367960Y0174278D01*
X0367873Y0174258D01*
X0367786Y0174241D01*
X0367697Y0174228D01*
X0367609Y0174219D01*
X0367520Y0174214D01*
X0367431Y0174213D01*
X0367342Y0174216D01*
X0367253Y0174223D01*
X0367164Y0174234D01*
X0367076Y0174249D01*
X0366989Y0174267D01*
X0366903Y0174290D01*
X0366818Y0174316D01*
X0366734Y0174347D01*
X0366652Y0174381D01*
X0366571Y0174418D01*
X0366492Y0174459D01*
X0366415Y0174504D01*
X0366340Y0174552D01*
X0366267Y0174603D01*
X0366196Y0174657D01*
X0366128Y0174715D01*
X0366063Y0174775D01*
X0366000Y0174839D01*
X0365940Y0174905D01*
X0365883Y0174974D01*
X0365830Y0175045D01*
X0365779Y0175118D01*
X0365732Y0175194D01*
X0365689Y0175271D01*
X0365648Y0175351D01*
X0365612Y0175432D01*
X0365579Y0175515D01*
X0365550Y0175599D01*
X0365524Y0175685D01*
X0365502Y0175771D01*
X0365485Y0175858D01*
X0365471Y0175946D01*
X0365461Y0176035D01*
X0365455Y0176124D01*
X0365453Y0176213D01*
X0398095Y0158513D02*
X0397595Y0147013D01*
X0398095Y0158513D02*
X0399095Y0159513D01*
X0436095Y0159513D01*
X0437095Y0158513D01*
X0437595Y0147013D01*
X0437595Y0202013D02*
X0437095Y0213513D01*
X0436095Y0214513D01*
X0399095Y0214513D01*
X0398095Y0213513D01*
X0397595Y0202013D01*
X0386117Y0215019D02*
X0379117Y0215007D01*
X0379056Y0215009D01*
X0378996Y0215014D01*
X0378936Y0215023D01*
X0378877Y0215036D01*
X0378819Y0215052D01*
X0378762Y0215071D01*
X0378706Y0215094D01*
X0378652Y0215121D01*
X0378599Y0215150D01*
X0378548Y0215183D01*
X0378500Y0215219D01*
X0378453Y0215257D01*
X0378409Y0215299D01*
X0378368Y0215343D01*
X0378329Y0215389D01*
X0378293Y0215437D01*
X0378260Y0215488D01*
X0378230Y0215541D01*
X0378204Y0215595D01*
X0378181Y0215651D01*
X0378161Y0215708D01*
X0378144Y0215766D01*
X0378132Y0215825D01*
X0378123Y0215885D01*
X0378117Y0215945D01*
X0378115Y0216005D01*
X0378113Y0217505D01*
X0378612Y0218006D01*
X0378579Y0237006D01*
X0378078Y0237505D01*
X0378075Y0239005D01*
X0378077Y0239066D01*
X0378082Y0239126D01*
X0378091Y0239186D01*
X0378104Y0239245D01*
X0378120Y0239303D01*
X0378139Y0239360D01*
X0378162Y0239416D01*
X0378189Y0239470D01*
X0378218Y0239523D01*
X0378251Y0239574D01*
X0378287Y0239622D01*
X0378325Y0239669D01*
X0378367Y0239713D01*
X0378411Y0239754D01*
X0378457Y0239793D01*
X0378506Y0239829D01*
X0378556Y0239862D01*
X0378609Y0239892D01*
X0378663Y0239918D01*
X0378719Y0239941D01*
X0378776Y0239961D01*
X0378834Y0239978D01*
X0378893Y0239990D01*
X0378953Y0239999D01*
X0379013Y0240005D01*
X0379073Y0240007D01*
X0386073Y0240019D01*
X0386136Y0240017D01*
X0386199Y0240011D01*
X0386261Y0240002D01*
X0386322Y0239988D01*
X0386382Y0239971D01*
X0386441Y0239949D01*
X0386499Y0239925D01*
X0386555Y0239896D01*
X0386609Y0239864D01*
X0386661Y0239829D01*
X0386711Y0239791D01*
X0386758Y0239749D01*
X0386803Y0239705D01*
X0386844Y0239658D01*
X0386883Y0239608D01*
X0386918Y0239556D01*
X0386950Y0239502D01*
X0386979Y0239446D01*
X0387004Y0239389D01*
X0387026Y0239330D01*
X0387043Y0239269D01*
X0387057Y0239208D01*
X0387067Y0239146D01*
X0387073Y0239084D01*
X0387075Y0239021D01*
X0387078Y0237521D01*
X0386579Y0237020D01*
X0386612Y0218020D01*
X0387113Y0217521D01*
X0387115Y0216021D01*
X0387113Y0215960D01*
X0387108Y0215900D01*
X0387099Y0215840D01*
X0387086Y0215781D01*
X0387070Y0215723D01*
X0387051Y0215666D01*
X0387028Y0215610D01*
X0387001Y0215556D01*
X0386972Y0215503D01*
X0386939Y0215452D01*
X0386903Y0215404D01*
X0386865Y0215357D01*
X0386823Y0215313D01*
X0386779Y0215272D01*
X0386733Y0215233D01*
X0386684Y0215197D01*
X0386634Y0215164D01*
X0386581Y0215134D01*
X0386527Y0215108D01*
X0386471Y0215085D01*
X0386414Y0215065D01*
X0386356Y0215048D01*
X0386297Y0215036D01*
X0386237Y0215027D01*
X0386177Y0215021D01*
X0386117Y0215019D01*
X0410095Y0229013D02*
X0410095Y0236013D01*
X0410097Y0236073D01*
X0410102Y0236134D01*
X0410111Y0236193D01*
X0410124Y0236252D01*
X0410140Y0236311D01*
X0410160Y0236368D01*
X0410183Y0236423D01*
X0410210Y0236478D01*
X0410239Y0236530D01*
X0410272Y0236581D01*
X0410308Y0236630D01*
X0410346Y0236676D01*
X0410388Y0236720D01*
X0410432Y0236762D01*
X0410478Y0236800D01*
X0410527Y0236836D01*
X0410578Y0236869D01*
X0410630Y0236898D01*
X0410685Y0236925D01*
X0410740Y0236948D01*
X0410797Y0236968D01*
X0410856Y0236984D01*
X0410915Y0236997D01*
X0410974Y0237006D01*
X0411035Y0237011D01*
X0411095Y0237013D01*
X0412595Y0237013D01*
X0413095Y0236513D01*
X0432095Y0236513D01*
X0432595Y0237013D01*
X0434095Y0237013D01*
X0434155Y0237011D01*
X0434216Y0237006D01*
X0434275Y0236997D01*
X0434334Y0236984D01*
X0434393Y0236968D01*
X0434450Y0236948D01*
X0434505Y0236925D01*
X0434560Y0236898D01*
X0434612Y0236869D01*
X0434663Y0236836D01*
X0434712Y0236800D01*
X0434758Y0236762D01*
X0434802Y0236720D01*
X0434844Y0236676D01*
X0434882Y0236630D01*
X0434918Y0236581D01*
X0434951Y0236530D01*
X0434980Y0236478D01*
X0435007Y0236423D01*
X0435030Y0236368D01*
X0435050Y0236311D01*
X0435066Y0236252D01*
X0435079Y0236193D01*
X0435088Y0236134D01*
X0435093Y0236073D01*
X0435095Y0236013D01*
X0435095Y0229013D01*
X0435093Y0228953D01*
X0435088Y0228892D01*
X0435079Y0228833D01*
X0435066Y0228774D01*
X0435050Y0228715D01*
X0435030Y0228658D01*
X0435007Y0228603D01*
X0434980Y0228548D01*
X0434951Y0228496D01*
X0434918Y0228445D01*
X0434882Y0228396D01*
X0434844Y0228350D01*
X0434802Y0228306D01*
X0434758Y0228264D01*
X0434712Y0228226D01*
X0434663Y0228190D01*
X0434612Y0228157D01*
X0434560Y0228128D01*
X0434505Y0228101D01*
X0434450Y0228078D01*
X0434393Y0228058D01*
X0434334Y0228042D01*
X0434275Y0228029D01*
X0434216Y0228020D01*
X0434155Y0228015D01*
X0434095Y0228013D01*
X0432595Y0228013D01*
X0432095Y0228513D01*
X0413095Y0228513D01*
X0412595Y0228013D01*
X0411095Y0228013D01*
X0411035Y0228015D01*
X0410974Y0228020D01*
X0410915Y0228029D01*
X0410856Y0228042D01*
X0410797Y0228058D01*
X0410740Y0228078D01*
X0410685Y0228101D01*
X0410630Y0228128D01*
X0410578Y0228157D01*
X0410527Y0228190D01*
X0410478Y0228226D01*
X0410432Y0228264D01*
X0410388Y0228306D01*
X0410346Y0228350D01*
X0410308Y0228396D01*
X0410272Y0228445D01*
X0410239Y0228496D01*
X0410210Y0228548D01*
X0410183Y0228603D01*
X0410160Y0228658D01*
X0410140Y0228715D01*
X0410124Y0228774D01*
X0410111Y0228833D01*
X0410102Y0228892D01*
X0410097Y0228953D01*
X0410095Y0229013D01*
X0424095Y0255013D02*
X0431095Y0255013D01*
X0431155Y0255015D01*
X0431216Y0255020D01*
X0431275Y0255029D01*
X0431334Y0255042D01*
X0431393Y0255058D01*
X0431450Y0255078D01*
X0431505Y0255101D01*
X0431560Y0255128D01*
X0431612Y0255157D01*
X0431663Y0255190D01*
X0431712Y0255226D01*
X0431758Y0255264D01*
X0431802Y0255306D01*
X0431844Y0255350D01*
X0431882Y0255396D01*
X0431918Y0255445D01*
X0431951Y0255496D01*
X0431980Y0255548D01*
X0432007Y0255603D01*
X0432030Y0255658D01*
X0432050Y0255715D01*
X0432066Y0255774D01*
X0432079Y0255833D01*
X0432088Y0255892D01*
X0432093Y0255953D01*
X0432095Y0256013D01*
X0432095Y0257513D01*
X0431595Y0258013D01*
X0431595Y0277013D01*
X0432095Y0277513D01*
X0432095Y0279013D01*
X0432093Y0279073D01*
X0432088Y0279134D01*
X0432079Y0279193D01*
X0432066Y0279252D01*
X0432050Y0279311D01*
X0432030Y0279368D01*
X0432007Y0279423D01*
X0431980Y0279478D01*
X0431951Y0279530D01*
X0431918Y0279581D01*
X0431882Y0279630D01*
X0431844Y0279676D01*
X0431802Y0279720D01*
X0431758Y0279762D01*
X0431712Y0279800D01*
X0431663Y0279836D01*
X0431612Y0279869D01*
X0431560Y0279898D01*
X0431505Y0279925D01*
X0431450Y0279948D01*
X0431393Y0279968D01*
X0431334Y0279984D01*
X0431275Y0279997D01*
X0431216Y0280006D01*
X0431155Y0280011D01*
X0431095Y0280013D01*
X0424095Y0280013D01*
X0424035Y0280011D01*
X0423974Y0280006D01*
X0423915Y0279997D01*
X0423856Y0279984D01*
X0423797Y0279968D01*
X0423740Y0279948D01*
X0423685Y0279925D01*
X0423630Y0279898D01*
X0423578Y0279869D01*
X0423527Y0279836D01*
X0423478Y0279800D01*
X0423432Y0279762D01*
X0423388Y0279720D01*
X0423346Y0279676D01*
X0423308Y0279630D01*
X0423272Y0279581D01*
X0423239Y0279530D01*
X0423210Y0279478D01*
X0423183Y0279423D01*
X0423160Y0279368D01*
X0423140Y0279311D01*
X0423124Y0279252D01*
X0423111Y0279193D01*
X0423102Y0279134D01*
X0423097Y0279073D01*
X0423095Y0279013D01*
X0423095Y0277513D01*
X0423595Y0277013D01*
X0423595Y0258013D01*
X0423095Y0257513D01*
X0423095Y0256013D01*
X0423097Y0255953D01*
X0423102Y0255892D01*
X0423111Y0255833D01*
X0423124Y0255774D01*
X0423140Y0255715D01*
X0423160Y0255658D01*
X0423183Y0255603D01*
X0423210Y0255548D01*
X0423239Y0255496D01*
X0423272Y0255445D01*
X0423308Y0255396D01*
X0423346Y0255350D01*
X0423388Y0255306D01*
X0423432Y0255264D01*
X0423478Y0255226D01*
X0423527Y0255190D01*
X0423578Y0255157D01*
X0423630Y0255128D01*
X0423685Y0255101D01*
X0423740Y0255078D01*
X0423797Y0255058D01*
X0423856Y0255042D01*
X0423915Y0255029D01*
X0423974Y0255020D01*
X0424035Y0255015D01*
X0424095Y0255013D01*
X0172075Y0239021D02*
X0172078Y0237521D01*
X0171579Y0237020D01*
X0171612Y0218020D01*
X0172113Y0217521D01*
X0172115Y0216021D01*
X0172113Y0215960D01*
X0172108Y0215900D01*
X0172099Y0215840D01*
X0172086Y0215781D01*
X0172070Y0215723D01*
X0172051Y0215666D01*
X0172028Y0215610D01*
X0172001Y0215556D01*
X0171972Y0215503D01*
X0171939Y0215452D01*
X0171903Y0215404D01*
X0171865Y0215357D01*
X0171823Y0215313D01*
X0171779Y0215272D01*
X0171733Y0215233D01*
X0171684Y0215197D01*
X0171634Y0215164D01*
X0171581Y0215134D01*
X0171527Y0215108D01*
X0171471Y0215085D01*
X0171414Y0215065D01*
X0171356Y0215048D01*
X0171297Y0215036D01*
X0171237Y0215027D01*
X0171177Y0215021D01*
X0171117Y0215019D01*
X0164117Y0215007D01*
X0164056Y0215009D01*
X0163996Y0215014D01*
X0163936Y0215023D01*
X0163877Y0215036D01*
X0163819Y0215052D01*
X0163762Y0215071D01*
X0163706Y0215094D01*
X0163652Y0215121D01*
X0163599Y0215150D01*
X0163548Y0215183D01*
X0163500Y0215219D01*
X0163453Y0215257D01*
X0163409Y0215299D01*
X0163368Y0215343D01*
X0163329Y0215389D01*
X0163293Y0215437D01*
X0163260Y0215488D01*
X0163230Y0215541D01*
X0163204Y0215595D01*
X0163181Y0215651D01*
X0163161Y0215708D01*
X0163144Y0215766D01*
X0163132Y0215825D01*
X0163123Y0215885D01*
X0163117Y0215945D01*
X0163115Y0216005D01*
X0163113Y0217505D01*
X0163612Y0218006D01*
X0163579Y0237006D01*
X0163078Y0237505D01*
X0163075Y0239005D01*
X0163077Y0239066D01*
X0163082Y0239126D01*
X0163091Y0239186D01*
X0163104Y0239245D01*
X0163120Y0239303D01*
X0163139Y0239360D01*
X0163162Y0239416D01*
X0163189Y0239470D01*
X0163218Y0239523D01*
X0163251Y0239574D01*
X0163287Y0239622D01*
X0163325Y0239669D01*
X0163367Y0239713D01*
X0163411Y0239754D01*
X0163457Y0239793D01*
X0163506Y0239829D01*
X0163556Y0239862D01*
X0163609Y0239892D01*
X0163663Y0239918D01*
X0163719Y0239941D01*
X0163776Y0239961D01*
X0163834Y0239978D01*
X0163893Y0239990D01*
X0163953Y0239999D01*
X0164013Y0240005D01*
X0164073Y0240007D01*
X0171073Y0240019D01*
X0171136Y0240017D01*
X0171199Y0240011D01*
X0171261Y0240002D01*
X0171322Y0239988D01*
X0171382Y0239971D01*
X0171441Y0239949D01*
X0171499Y0239925D01*
X0171555Y0239896D01*
X0171609Y0239864D01*
X0171661Y0239829D01*
X0171711Y0239791D01*
X0171758Y0239749D01*
X0171803Y0239705D01*
X0171844Y0239658D01*
X0171883Y0239608D01*
X0171918Y0239556D01*
X0171950Y0239502D01*
X0171979Y0239446D01*
X0172004Y0239389D01*
X0172026Y0239330D01*
X0172043Y0239269D01*
X0172057Y0239208D01*
X0172067Y0239146D01*
X0172073Y0239084D01*
X0172075Y0239021D01*
X0122095Y0239013D02*
X0122095Y0237513D01*
X0121595Y0237013D01*
X0121595Y0218013D01*
X0122095Y0217513D01*
X0122095Y0216013D01*
X0122093Y0215953D01*
X0122088Y0215892D01*
X0122079Y0215833D01*
X0122066Y0215774D01*
X0122050Y0215715D01*
X0122030Y0215658D01*
X0122007Y0215603D01*
X0121980Y0215548D01*
X0121951Y0215496D01*
X0121918Y0215445D01*
X0121882Y0215396D01*
X0121844Y0215350D01*
X0121802Y0215306D01*
X0121758Y0215264D01*
X0121712Y0215226D01*
X0121663Y0215190D01*
X0121612Y0215157D01*
X0121560Y0215128D01*
X0121505Y0215101D01*
X0121450Y0215078D01*
X0121393Y0215058D01*
X0121334Y0215042D01*
X0121275Y0215029D01*
X0121216Y0215020D01*
X0121155Y0215015D01*
X0121095Y0215013D01*
X0114095Y0215013D01*
X0114035Y0215015D01*
X0113974Y0215020D01*
X0113915Y0215029D01*
X0113856Y0215042D01*
X0113797Y0215058D01*
X0113740Y0215078D01*
X0113685Y0215101D01*
X0113630Y0215128D01*
X0113578Y0215157D01*
X0113527Y0215190D01*
X0113478Y0215226D01*
X0113432Y0215264D01*
X0113388Y0215306D01*
X0113346Y0215350D01*
X0113308Y0215396D01*
X0113272Y0215445D01*
X0113239Y0215496D01*
X0113210Y0215548D01*
X0113183Y0215603D01*
X0113160Y0215658D01*
X0113140Y0215715D01*
X0113124Y0215774D01*
X0113111Y0215833D01*
X0113102Y0215892D01*
X0113097Y0215953D01*
X0113095Y0216013D01*
X0113095Y0217513D01*
X0113595Y0218013D01*
X0113595Y0237013D01*
X0113095Y0237513D01*
X0113095Y0239013D01*
X0113097Y0239073D01*
X0113102Y0239134D01*
X0113111Y0239193D01*
X0113124Y0239252D01*
X0113140Y0239311D01*
X0113160Y0239368D01*
X0113183Y0239423D01*
X0113210Y0239478D01*
X0113239Y0239530D01*
X0113272Y0239581D01*
X0113308Y0239630D01*
X0113346Y0239676D01*
X0113388Y0239720D01*
X0113432Y0239762D01*
X0113478Y0239800D01*
X0113527Y0239836D01*
X0113578Y0239869D01*
X0113630Y0239898D01*
X0113685Y0239925D01*
X0113740Y0239948D01*
X0113797Y0239968D01*
X0113856Y0239984D01*
X0113915Y0239997D01*
X0113974Y0240006D01*
X0114035Y0240011D01*
X0114095Y0240013D01*
X0121095Y0240013D01*
X0121155Y0240011D01*
X0121216Y0240006D01*
X0121275Y0239997D01*
X0121334Y0239984D01*
X0121393Y0239968D01*
X0121450Y0239948D01*
X0121505Y0239925D01*
X0121560Y0239898D01*
X0121612Y0239869D01*
X0121663Y0239836D01*
X0121712Y0239800D01*
X0121758Y0239762D01*
X0121802Y0239720D01*
X0121844Y0239676D01*
X0121882Y0239630D01*
X0121918Y0239581D01*
X0121951Y0239530D01*
X0121980Y0239478D01*
X0122007Y0239423D01*
X0122030Y0239368D01*
X0122050Y0239311D01*
X0122066Y0239252D01*
X0122079Y0239193D01*
X0122088Y0239134D01*
X0122093Y0239073D01*
X0122095Y0239013D01*
X0090095Y0236013D02*
X0090095Y0229013D01*
X0090093Y0228953D01*
X0090088Y0228892D01*
X0090079Y0228833D01*
X0090066Y0228774D01*
X0090050Y0228715D01*
X0090030Y0228658D01*
X0090007Y0228603D01*
X0089980Y0228548D01*
X0089951Y0228496D01*
X0089918Y0228445D01*
X0089882Y0228396D01*
X0089844Y0228350D01*
X0089802Y0228306D01*
X0089758Y0228264D01*
X0089712Y0228226D01*
X0089663Y0228190D01*
X0089612Y0228157D01*
X0089560Y0228128D01*
X0089505Y0228101D01*
X0089450Y0228078D01*
X0089393Y0228058D01*
X0089334Y0228042D01*
X0089275Y0228029D01*
X0089216Y0228020D01*
X0089155Y0228015D01*
X0089095Y0228013D01*
X0087595Y0228013D01*
X0087095Y0228513D01*
X0068095Y0228513D01*
X0067595Y0228013D01*
X0066095Y0228013D01*
X0066035Y0228015D01*
X0065974Y0228020D01*
X0065915Y0228029D01*
X0065856Y0228042D01*
X0065797Y0228058D01*
X0065740Y0228078D01*
X0065685Y0228101D01*
X0065630Y0228128D01*
X0065578Y0228157D01*
X0065527Y0228190D01*
X0065478Y0228226D01*
X0065432Y0228264D01*
X0065388Y0228306D01*
X0065346Y0228350D01*
X0065308Y0228396D01*
X0065272Y0228445D01*
X0065239Y0228496D01*
X0065210Y0228548D01*
X0065183Y0228603D01*
X0065160Y0228658D01*
X0065140Y0228715D01*
X0065124Y0228774D01*
X0065111Y0228833D01*
X0065102Y0228892D01*
X0065097Y0228953D01*
X0065095Y0229013D01*
X0065095Y0236013D01*
X0065097Y0236073D01*
X0065102Y0236134D01*
X0065111Y0236193D01*
X0065124Y0236252D01*
X0065140Y0236311D01*
X0065160Y0236368D01*
X0065183Y0236423D01*
X0065210Y0236478D01*
X0065239Y0236530D01*
X0065272Y0236581D01*
X0065308Y0236630D01*
X0065346Y0236676D01*
X0065388Y0236720D01*
X0065432Y0236762D01*
X0065478Y0236800D01*
X0065527Y0236836D01*
X0065578Y0236869D01*
X0065630Y0236898D01*
X0065685Y0236925D01*
X0065740Y0236948D01*
X0065797Y0236968D01*
X0065856Y0236984D01*
X0065915Y0236997D01*
X0065974Y0237006D01*
X0066035Y0237011D01*
X0066095Y0237013D01*
X0067595Y0237013D01*
X0068095Y0236513D01*
X0087095Y0236513D01*
X0087595Y0237013D01*
X0089095Y0237013D01*
X0089155Y0237011D01*
X0089216Y0237006D01*
X0089275Y0236997D01*
X0089334Y0236984D01*
X0089393Y0236968D01*
X0089450Y0236948D01*
X0089505Y0236925D01*
X0089560Y0236898D01*
X0089612Y0236869D01*
X0089663Y0236836D01*
X0089712Y0236800D01*
X0089758Y0236762D01*
X0089802Y0236720D01*
X0089844Y0236676D01*
X0089882Y0236630D01*
X0089918Y0236581D01*
X0089951Y0236530D01*
X0089980Y0236478D01*
X0090007Y0236423D01*
X0090030Y0236368D01*
X0090050Y0236311D01*
X0090066Y0236252D01*
X0090079Y0236193D01*
X0090088Y0236134D01*
X0090093Y0236073D01*
X0090095Y0236013D01*
X0076095Y0255013D02*
X0069095Y0255013D01*
X0069035Y0255015D01*
X0068974Y0255020D01*
X0068915Y0255029D01*
X0068856Y0255042D01*
X0068797Y0255058D01*
X0068740Y0255078D01*
X0068685Y0255101D01*
X0068630Y0255128D01*
X0068578Y0255157D01*
X0068527Y0255190D01*
X0068478Y0255226D01*
X0068432Y0255264D01*
X0068388Y0255306D01*
X0068346Y0255350D01*
X0068308Y0255396D01*
X0068272Y0255445D01*
X0068239Y0255496D01*
X0068210Y0255548D01*
X0068183Y0255603D01*
X0068160Y0255658D01*
X0068140Y0255715D01*
X0068124Y0255774D01*
X0068111Y0255833D01*
X0068102Y0255892D01*
X0068097Y0255953D01*
X0068095Y0256013D01*
X0068095Y0257513D01*
X0068595Y0258013D01*
X0068595Y0277013D01*
X0068095Y0277513D01*
X0068095Y0279013D01*
X0068097Y0279073D01*
X0068102Y0279134D01*
X0068111Y0279193D01*
X0068124Y0279252D01*
X0068140Y0279311D01*
X0068160Y0279368D01*
X0068183Y0279423D01*
X0068210Y0279478D01*
X0068239Y0279530D01*
X0068272Y0279581D01*
X0068308Y0279630D01*
X0068346Y0279676D01*
X0068388Y0279720D01*
X0068432Y0279762D01*
X0068478Y0279800D01*
X0068527Y0279836D01*
X0068578Y0279869D01*
X0068630Y0279898D01*
X0068685Y0279925D01*
X0068740Y0279948D01*
X0068797Y0279968D01*
X0068856Y0279984D01*
X0068915Y0279997D01*
X0068974Y0280006D01*
X0069035Y0280011D01*
X0069095Y0280013D01*
X0076095Y0280013D01*
X0076155Y0280011D01*
X0076216Y0280006D01*
X0076275Y0279997D01*
X0076334Y0279984D01*
X0076393Y0279968D01*
X0076450Y0279948D01*
X0076505Y0279925D01*
X0076560Y0279898D01*
X0076612Y0279869D01*
X0076663Y0279836D01*
X0076712Y0279800D01*
X0076758Y0279762D01*
X0076802Y0279720D01*
X0076844Y0279676D01*
X0076882Y0279630D01*
X0076918Y0279581D01*
X0076951Y0279530D01*
X0076980Y0279478D01*
X0077007Y0279423D01*
X0077030Y0279368D01*
X0077050Y0279311D01*
X0077066Y0279252D01*
X0077079Y0279193D01*
X0077088Y0279134D01*
X0077093Y0279073D01*
X0077095Y0279013D01*
X0077095Y0277513D01*
X0076595Y0277013D01*
X0076595Y0258013D01*
X0077095Y0257513D01*
X0077095Y0256013D01*
X0077093Y0255953D01*
X0077088Y0255892D01*
X0077079Y0255833D01*
X0077066Y0255774D01*
X0077050Y0255715D01*
X0077030Y0255658D01*
X0077007Y0255603D01*
X0076980Y0255548D01*
X0076951Y0255496D01*
X0076918Y0255445D01*
X0076882Y0255396D01*
X0076844Y0255350D01*
X0076802Y0255306D01*
X0076758Y0255264D01*
X0076712Y0255226D01*
X0076663Y0255190D01*
X0076612Y0255157D01*
X0076560Y0255128D01*
X0076505Y0255101D01*
X0076450Y0255078D01*
X0076393Y0255058D01*
X0076334Y0255042D01*
X0076275Y0255029D01*
X0076216Y0255020D01*
X0076155Y0255015D01*
X0076095Y0255013D01*
X0062595Y0213013D02*
X0063095Y0201513D01*
X0064095Y0200513D01*
X0101095Y0200513D01*
X0102095Y0201513D01*
X0102595Y0213013D01*
X0010033Y0166047D02*
X0010033Y0163912D01*
X0008966Y0162844D01*
X0004695Y0167114D01*
X0008966Y0167114D01*
X0010033Y0166047D01*
X0008966Y0162844D02*
X0004695Y0162844D01*
X0003628Y0163912D01*
X0003628Y0166047D01*
X0004695Y0167114D01*
X0004695Y0160669D02*
X0003628Y0159601D01*
X0003628Y0157466D01*
X0004695Y0156399D01*
X0004695Y0160669D02*
X0005763Y0160669D01*
X0010033Y0156399D01*
X0010033Y0160669D01*
X0010033Y0154243D02*
X0008966Y0154243D01*
X0008966Y0153176D01*
X0010033Y0153176D01*
X0010033Y0154243D01*
X0008966Y0151001D02*
X0007898Y0151001D01*
X0006831Y0149933D01*
X0006831Y0146730D01*
X0008966Y0146730D01*
X0010033Y0147798D01*
X0010033Y0149933D01*
X0008966Y0151001D01*
X0004695Y0148866D02*
X0006831Y0146730D01*
X0004695Y0148866D02*
X0003628Y0151001D01*
X0003628Y0144555D02*
X0004695Y0144555D01*
X0008966Y0140285D01*
X0010033Y0140285D01*
X0003628Y0140285D02*
X0003628Y0144555D01*
X0238312Y0009345D02*
X0240447Y0011480D01*
X0240447Y0005075D01*
X0238312Y0005075D02*
X0242582Y0005075D01*
X0244757Y0005075D02*
X0249027Y0005075D01*
X0246892Y0005075D02*
X0246892Y0011480D01*
X0244757Y0009345D01*
X0251203Y0009345D02*
X0253338Y0011480D01*
X0253338Y0005075D01*
X0251203Y0005075D02*
X0255473Y0005075D01*
X0257648Y0005075D02*
X0257648Y0006142D01*
X0258716Y0006142D01*
X0258716Y0005075D01*
X0257648Y0005075D01*
X0260871Y0005075D02*
X0260871Y0006142D01*
X0265141Y0010412D01*
X0265141Y0011480D01*
X0260871Y0011480D01*
X0267316Y0008277D02*
X0270519Y0008277D01*
X0271587Y0007210D01*
X0271587Y0006142D01*
X0270519Y0005075D01*
X0268384Y0005075D01*
X0267316Y0006142D01*
X0267316Y0008277D01*
X0269451Y0010412D01*
X0271587Y0011480D01*
D13*
X0279895Y0147913D03*
X0220295Y0157113D03*
X0279895Y0202913D03*
X0220295Y0212113D03*
X0064895Y0202913D03*
X0064895Y0147913D03*
X0435295Y0157113D03*
X0435295Y0212113D03*
D14*
X0435493Y0216563D02*
X0433992Y0216563D01*
X0433241Y0217313D01*
X0433241Y0218064D01*
X0433992Y0218815D01*
X0435493Y0218815D01*
X0436244Y0218064D01*
X0436244Y0217313D01*
X0435493Y0216563D01*
X0435493Y0218815D02*
X0436244Y0219565D01*
X0436244Y0220316D01*
X0435493Y0221067D01*
X0433992Y0221067D01*
X0433241Y0220316D01*
X0433241Y0219565D01*
X0433992Y0218815D01*
X0431640Y0220316D02*
X0431640Y0217313D01*
X0430889Y0216563D01*
X0429388Y0216563D01*
X0428637Y0217313D01*
X0428637Y0220316D01*
X0429388Y0221067D01*
X0430889Y0221067D01*
X0431640Y0220316D01*
X0430992Y0221763D02*
X0432493Y0221763D01*
X0433244Y0222513D01*
X0433244Y0225516D01*
X0432493Y0226267D01*
X0430992Y0226267D01*
X0430241Y0225516D01*
X0430241Y0224765D01*
X0430992Y0224015D01*
X0433244Y0224015D01*
X0430992Y0221763D02*
X0430241Y0222513D01*
X0428640Y0221763D02*
X0425637Y0221763D01*
X0427139Y0221763D02*
X0427139Y0226267D01*
X0425637Y0224765D01*
X0424036Y0224015D02*
X0423285Y0223264D01*
X0421033Y0223264D01*
X0421033Y0221763D02*
X0421033Y0226267D01*
X0423285Y0226267D01*
X0424036Y0225516D01*
X0424036Y0224015D01*
X0422535Y0223264D02*
X0424036Y0221763D01*
X0430139Y0218064D02*
X0431640Y0216563D01*
X0393350Y0227071D02*
X0392596Y0228571D01*
X0391093Y0230070D01*
X0391097Y0227818D01*
X0390347Y0227066D01*
X0389597Y0227065D01*
X0388845Y0227814D01*
X0388842Y0229315D01*
X0389591Y0230067D01*
X0391093Y0230070D01*
X0388838Y0231667D02*
X0388833Y0234670D01*
X0388835Y0233168D02*
X0393339Y0233176D01*
X0391835Y0234675D01*
X0391082Y0236275D02*
X0390330Y0237024D01*
X0390326Y0239276D01*
X0390328Y0237775D02*
X0388830Y0236271D01*
X0391082Y0236275D02*
X0392583Y0236278D01*
X0393332Y0237030D01*
X0393328Y0239281D01*
X0388825Y0239274D01*
X0396095Y0249265D02*
X0396095Y0265761D01*
X0402095Y0263040D02*
X0402095Y0261985D01*
X0398124Y0267015D02*
X0397909Y0266911D01*
X0397696Y0266802D01*
X0397486Y0266688D01*
X0397279Y0266569D01*
X0397074Y0266446D01*
X0396872Y0266318D01*
X0396673Y0266185D01*
X0396478Y0266048D01*
X0396285Y0265907D01*
X0396096Y0265761D01*
X0407067Y0267013D02*
X0407297Y0266901D01*
X0407524Y0266784D01*
X0407748Y0266662D01*
X0407969Y0266534D01*
X0408186Y0266400D01*
X0408401Y0266262D01*
X0408612Y0266118D01*
X0408819Y0265969D01*
X0409023Y0265815D01*
X0409223Y0265657D01*
X0409419Y0265493D01*
X0409611Y0265325D01*
X0409799Y0265152D01*
X0409983Y0264974D01*
X0410162Y0264793D01*
X0410337Y0264606D01*
X0410507Y0264416D01*
X0410672Y0264222D01*
X0410833Y0264023D01*
X0410989Y0263821D01*
X0411140Y0263615D01*
X0411286Y0263405D01*
X0411426Y0263192D01*
X0411562Y0262976D01*
X0411692Y0262756D01*
X0411817Y0262533D01*
X0411936Y0262308D01*
X0412050Y0262079D01*
X0412158Y0261848D01*
X0412261Y0261614D01*
X0412358Y0261378D01*
X0412449Y0261139D01*
X0412534Y0260899D01*
X0412614Y0260656D01*
X0412687Y0260411D01*
X0412755Y0260165D01*
X0412816Y0259917D01*
X0412871Y0259668D01*
X0412921Y0259418D01*
X0412964Y0259166D01*
X0413001Y0258913D01*
X0413032Y0258660D01*
X0413057Y0258406D01*
X0413076Y0258151D01*
X0413088Y0257896D01*
X0413094Y0257641D01*
X0413094Y0257385D01*
X0413088Y0257130D01*
X0413076Y0256875D01*
X0413057Y0256620D01*
X0413032Y0256366D01*
X0413001Y0256113D01*
X0412964Y0255860D01*
X0412921Y0255608D01*
X0412871Y0255358D01*
X0412816Y0255109D01*
X0412755Y0254861D01*
X0412687Y0254615D01*
X0412614Y0254370D01*
X0412534Y0254127D01*
X0412449Y0253887D01*
X0412358Y0253648D01*
X0412261Y0253412D01*
X0412158Y0253178D01*
X0412050Y0252947D01*
X0411936Y0252718D01*
X0411817Y0252493D01*
X0411692Y0252270D01*
X0411562Y0252050D01*
X0411426Y0251834D01*
X0411286Y0251621D01*
X0411140Y0251411D01*
X0410989Y0251205D01*
X0410833Y0251003D01*
X0410672Y0250804D01*
X0410507Y0250610D01*
X0410337Y0250420D01*
X0410162Y0250233D01*
X0409983Y0250052D01*
X0409799Y0249874D01*
X0409611Y0249701D01*
X0409419Y0249533D01*
X0409223Y0249369D01*
X0409023Y0249211D01*
X0408819Y0249057D01*
X0408612Y0248908D01*
X0408401Y0248764D01*
X0408186Y0248626D01*
X0407969Y0248492D01*
X0407748Y0248364D01*
X0407524Y0248242D01*
X0407297Y0248125D01*
X0407067Y0248013D01*
X0402095Y0251985D02*
X0402095Y0253040D01*
X0398218Y0247967D02*
X0397993Y0248074D01*
X0397770Y0248186D01*
X0397550Y0248303D01*
X0397333Y0248425D01*
X0397118Y0248553D01*
X0396907Y0248686D01*
X0396699Y0248823D01*
X0396495Y0248966D01*
X0396293Y0249113D01*
X0396096Y0249265D01*
X0414841Y0253951D02*
X0414841Y0256954D01*
X0414841Y0255452D02*
X0419345Y0255452D01*
X0419844Y0255763D02*
X0419844Y0258015D01*
X0419093Y0258765D01*
X0417592Y0258765D01*
X0416841Y0258015D01*
X0416841Y0255763D01*
X0421345Y0255763D01*
X0419844Y0257264D02*
X0421345Y0258765D01*
X0421345Y0260367D02*
X0421345Y0263369D01*
X0421345Y0261868D02*
X0416841Y0261868D01*
X0418343Y0260367D01*
X0419345Y0260056D02*
X0414841Y0260056D01*
X0416343Y0258555D01*
X0419345Y0258555D02*
X0419345Y0261557D01*
X0418595Y0263159D02*
X0415592Y0263159D01*
X0414841Y0263909D01*
X0414841Y0265411D01*
X0415592Y0266161D01*
X0418595Y0263159D01*
X0419345Y0263909D01*
X0419345Y0265411D01*
X0418595Y0266161D01*
X0415592Y0266161D01*
X0416841Y0264971D02*
X0416841Y0267973D01*
X0417592Y0267973D01*
X0420595Y0264971D01*
X0421345Y0264971D01*
X0343345Y0237411D02*
X0338841Y0237411D01*
X0341093Y0235159D01*
X0341093Y0238161D01*
X0343345Y0233557D02*
X0343345Y0230555D01*
X0343345Y0232056D02*
X0338841Y0232056D01*
X0340343Y0230555D01*
X0341093Y0228954D02*
X0341844Y0228203D01*
X0341844Y0225951D01*
X0343345Y0225951D02*
X0338841Y0225951D01*
X0338841Y0228203D01*
X0339592Y0228954D01*
X0341093Y0228954D01*
X0341844Y0227452D02*
X0343345Y0228954D01*
X0312095Y0251985D02*
X0312095Y0253040D01*
X0308218Y0247967D02*
X0307993Y0248074D01*
X0307770Y0248186D01*
X0307550Y0248303D01*
X0307333Y0248425D01*
X0307118Y0248553D01*
X0306907Y0248686D01*
X0306699Y0248823D01*
X0306495Y0248966D01*
X0306293Y0249113D01*
X0306096Y0249265D01*
X0306095Y0249265D02*
X0306095Y0265761D01*
X0312095Y0263040D02*
X0312095Y0261985D01*
X0308124Y0267015D02*
X0307909Y0266911D01*
X0307696Y0266802D01*
X0307486Y0266688D01*
X0307279Y0266569D01*
X0307074Y0266446D01*
X0306872Y0266318D01*
X0306673Y0266185D01*
X0306478Y0266048D01*
X0306285Y0265907D01*
X0306096Y0265761D01*
X0298345Y0265951D02*
X0293841Y0265951D01*
X0293841Y0268203D01*
X0294592Y0268954D01*
X0296093Y0268954D01*
X0296844Y0268203D01*
X0296844Y0265951D01*
X0296844Y0267452D02*
X0298345Y0268954D01*
X0298345Y0270555D02*
X0298345Y0273557D01*
X0298345Y0272056D02*
X0293841Y0272056D01*
X0295343Y0270555D01*
X0294592Y0275159D02*
X0293841Y0275909D01*
X0293841Y0277411D01*
X0294592Y0278161D01*
X0295343Y0278161D01*
X0296093Y0277411D01*
X0296844Y0278161D01*
X0297595Y0278161D01*
X0298345Y0277411D01*
X0298345Y0275909D01*
X0297595Y0275159D01*
X0296093Y0276660D02*
X0296093Y0277411D01*
X0266386Y0277463D02*
X0264885Y0278964D01*
X0265636Y0278964D02*
X0263384Y0278964D01*
X0263384Y0277463D02*
X0263384Y0281967D01*
X0265636Y0281967D01*
X0266386Y0281216D01*
X0266386Y0279715D01*
X0265636Y0278964D01*
X0261782Y0277463D02*
X0261782Y0281967D01*
X0258780Y0281967D02*
X0258780Y0277463D01*
X0260281Y0278964D01*
X0261782Y0277463D01*
X0257178Y0279715D02*
X0257178Y0281216D01*
X0256428Y0281967D01*
X0254176Y0281967D01*
X0254176Y0277463D01*
X0254176Y0278964D02*
X0256428Y0278964D01*
X0257178Y0279715D01*
X0248836Y0259767D02*
X0247334Y0259767D01*
X0246584Y0259016D01*
X0248836Y0259767D02*
X0249586Y0259016D01*
X0249586Y0258265D01*
X0246584Y0255263D01*
X0249586Y0255263D01*
X0266084Y0255263D02*
X0269086Y0255263D01*
X0267585Y0255263D02*
X0267585Y0259767D01*
X0266084Y0258265D01*
X0280845Y0243267D02*
X0283097Y0243267D01*
X0283848Y0242516D01*
X0283848Y0241015D01*
X0283097Y0240264D01*
X0280845Y0240264D01*
X0280845Y0238763D02*
X0280845Y0243267D01*
X0282346Y0240264D02*
X0283848Y0238763D01*
X0285449Y0238763D02*
X0288452Y0238763D01*
X0286950Y0238763D02*
X0286950Y0243267D01*
X0285449Y0241765D01*
X0290053Y0241015D02*
X0291554Y0241765D01*
X0292305Y0241765D01*
X0293056Y0241015D01*
X0293056Y0239513D01*
X0292305Y0238763D01*
X0290804Y0238763D01*
X0290053Y0239513D01*
X0290053Y0241015D02*
X0290053Y0243267D01*
X0293056Y0243267D01*
X0317067Y0248013D02*
X0317297Y0248125D01*
X0317524Y0248242D01*
X0317748Y0248364D01*
X0317969Y0248492D01*
X0318186Y0248626D01*
X0318401Y0248764D01*
X0318612Y0248908D01*
X0318819Y0249057D01*
X0319023Y0249211D01*
X0319223Y0249369D01*
X0319419Y0249533D01*
X0319611Y0249701D01*
X0319799Y0249874D01*
X0319983Y0250052D01*
X0320162Y0250233D01*
X0320337Y0250420D01*
X0320507Y0250610D01*
X0320672Y0250804D01*
X0320833Y0251003D01*
X0320989Y0251205D01*
X0321140Y0251411D01*
X0321286Y0251621D01*
X0321426Y0251834D01*
X0321562Y0252050D01*
X0321692Y0252270D01*
X0321817Y0252493D01*
X0321936Y0252718D01*
X0322050Y0252947D01*
X0322158Y0253178D01*
X0322261Y0253412D01*
X0322358Y0253648D01*
X0322449Y0253887D01*
X0322534Y0254127D01*
X0322614Y0254370D01*
X0322687Y0254615D01*
X0322755Y0254861D01*
X0322816Y0255109D01*
X0322871Y0255358D01*
X0322921Y0255608D01*
X0322964Y0255860D01*
X0323001Y0256113D01*
X0323032Y0256366D01*
X0323057Y0256620D01*
X0323076Y0256875D01*
X0323088Y0257130D01*
X0323094Y0257385D01*
X0323094Y0257641D01*
X0323088Y0257896D01*
X0323076Y0258151D01*
X0323057Y0258406D01*
X0323032Y0258660D01*
X0323001Y0258913D01*
X0322964Y0259166D01*
X0322921Y0259418D01*
X0322871Y0259668D01*
X0322816Y0259917D01*
X0322755Y0260165D01*
X0322687Y0260411D01*
X0322614Y0260656D01*
X0322534Y0260899D01*
X0322449Y0261139D01*
X0322358Y0261378D01*
X0322261Y0261614D01*
X0322158Y0261848D01*
X0322050Y0262079D01*
X0321936Y0262308D01*
X0321817Y0262533D01*
X0321692Y0262756D01*
X0321562Y0262976D01*
X0321426Y0263192D01*
X0321286Y0263405D01*
X0321140Y0263615D01*
X0320989Y0263821D01*
X0320833Y0264023D01*
X0320672Y0264222D01*
X0320507Y0264416D01*
X0320337Y0264606D01*
X0320162Y0264793D01*
X0319983Y0264974D01*
X0319799Y0265152D01*
X0319611Y0265325D01*
X0319419Y0265493D01*
X0319223Y0265657D01*
X0319023Y0265815D01*
X0318819Y0265969D01*
X0318612Y0266118D01*
X0318401Y0266262D01*
X0318186Y0266400D01*
X0317969Y0266534D01*
X0317748Y0266662D01*
X0317524Y0266784D01*
X0317297Y0266901D01*
X0317067Y0267013D01*
X0324841Y0265411D02*
X0324841Y0263909D01*
X0325592Y0263159D01*
X0326343Y0263159D01*
X0327093Y0263909D01*
X0327093Y0266161D01*
X0325592Y0266161D02*
X0324841Y0265411D01*
X0325592Y0266161D02*
X0328595Y0266161D01*
X0329345Y0265411D01*
X0329345Y0263909D01*
X0328595Y0263159D01*
X0329345Y0260056D02*
X0324841Y0260056D01*
X0324841Y0258555D02*
X0324841Y0261557D01*
X0265952Y0222516D02*
X0265952Y0221765D01*
X0265201Y0221015D01*
X0265952Y0220264D01*
X0265952Y0219513D01*
X0265201Y0218763D01*
X0263700Y0218763D01*
X0262949Y0219513D01*
X0261348Y0219513D02*
X0260597Y0218763D01*
X0259096Y0218763D01*
X0258345Y0219513D01*
X0258345Y0222516D01*
X0259096Y0223267D01*
X0260597Y0223267D01*
X0261348Y0222516D01*
X0262949Y0222516D02*
X0263700Y0223267D01*
X0265201Y0223267D01*
X0265952Y0222516D01*
X0265201Y0221015D02*
X0264450Y0221015D01*
X0278596Y0198467D02*
X0280097Y0198467D01*
X0280848Y0197716D01*
X0280848Y0194713D01*
X0280097Y0193963D01*
X0278596Y0193963D01*
X0277845Y0194713D01*
X0277845Y0197716D01*
X0278596Y0198467D01*
X0279346Y0195464D02*
X0280848Y0193963D01*
X0282449Y0194713D02*
X0283200Y0193963D01*
X0284701Y0193963D01*
X0285452Y0194713D01*
X0285452Y0195464D01*
X0284701Y0196215D01*
X0282449Y0196215D01*
X0282449Y0194713D01*
X0282449Y0196215D02*
X0283950Y0197716D01*
X0285452Y0198467D01*
X0339341Y0189161D02*
X0339341Y0186159D01*
X0340092Y0184557D02*
X0339341Y0183807D01*
X0339341Y0181555D01*
X0343845Y0181555D01*
X0343845Y0183807D01*
X0343095Y0184557D01*
X0340092Y0184557D01*
X0343095Y0186159D02*
X0343845Y0186159D01*
X0343095Y0186159D02*
X0340092Y0189161D01*
X0339341Y0189161D01*
X0345096Y0199263D02*
X0346597Y0199263D01*
X0347348Y0200013D01*
X0348949Y0199263D02*
X0351952Y0202265D01*
X0351952Y0203016D01*
X0351201Y0203767D01*
X0349700Y0203767D01*
X0348949Y0203016D01*
X0347348Y0203016D02*
X0346597Y0203767D01*
X0345096Y0203767D01*
X0344345Y0203016D01*
X0344345Y0200013D01*
X0345096Y0199263D01*
X0348949Y0199263D02*
X0351952Y0199263D01*
X0360253Y0174767D02*
X0359503Y0174016D01*
X0360253Y0174767D02*
X0361755Y0174767D01*
X0362505Y0174016D01*
X0362505Y0173265D01*
X0359503Y0170263D01*
X0362505Y0170263D01*
X0343005Y0170263D02*
X0340003Y0170263D01*
X0341504Y0170263D02*
X0341504Y0174767D01*
X0340003Y0173265D01*
X0342703Y0152567D02*
X0344204Y0151065D01*
X0345705Y0152567D01*
X0345705Y0148063D01*
X0347307Y0148813D02*
X0347307Y0151816D01*
X0348057Y0152567D01*
X0349558Y0152567D01*
X0350309Y0151816D01*
X0350309Y0148813D01*
X0349558Y0148063D01*
X0348057Y0148063D01*
X0347307Y0148813D01*
X0343845Y0148411D02*
X0343095Y0149161D01*
X0342344Y0149161D01*
X0341593Y0148411D01*
X0341593Y0146159D01*
X0343095Y0146159D01*
X0343845Y0146909D01*
X0343845Y0148411D01*
X0342703Y0148063D02*
X0342703Y0152567D01*
X0339341Y0149161D02*
X0340092Y0147660D01*
X0341593Y0146159D01*
X0340092Y0144557D02*
X0339341Y0143807D01*
X0339341Y0141555D01*
X0343845Y0141555D01*
X0343845Y0143807D01*
X0343095Y0144557D01*
X0340092Y0144557D01*
X0353412Y0148063D02*
X0353412Y0152567D01*
X0354913Y0152567D02*
X0351910Y0152567D01*
X0356514Y0151816D02*
X0356514Y0148813D01*
X0357265Y0148063D01*
X0358766Y0148063D01*
X0359517Y0148813D01*
X0359517Y0151816D01*
X0358766Y0152567D01*
X0357265Y0152567D01*
X0356514Y0151816D01*
X0361118Y0152567D02*
X0361118Y0148063D01*
X0361118Y0149564D02*
X0363370Y0149564D01*
X0364121Y0150315D01*
X0364121Y0151816D01*
X0363370Y0152567D01*
X0361118Y0152567D01*
X0362620Y0149564D02*
X0364121Y0148063D01*
X0365722Y0148063D02*
X0368725Y0151065D01*
X0368725Y0151816D01*
X0367974Y0152567D01*
X0366473Y0152567D01*
X0365722Y0151816D01*
X0365722Y0148063D02*
X0368725Y0148063D01*
X0389341Y0149161D02*
X0389341Y0146159D01*
X0391593Y0146159D01*
X0390843Y0147660D01*
X0390843Y0148411D01*
X0391593Y0149161D01*
X0393095Y0149161D01*
X0393845Y0148411D01*
X0393845Y0146909D01*
X0393095Y0146159D01*
X0393095Y0144557D02*
X0390092Y0144557D01*
X0389341Y0143807D01*
X0389341Y0141555D01*
X0393845Y0141555D01*
X0393845Y0143807D01*
X0393095Y0144557D01*
X0407845Y0129267D02*
X0410848Y0129267D01*
X0409346Y0129267D02*
X0409346Y0124763D01*
X0412449Y0124763D02*
X0415452Y0124763D01*
X0413950Y0124763D02*
X0413950Y0129267D01*
X0412449Y0127765D01*
X0417053Y0127015D02*
X0420056Y0127015D01*
X0419305Y0124763D02*
X0419305Y0129267D01*
X0417053Y0127015D01*
X0408093Y0108041D02*
X0408197Y0107826D01*
X0408306Y0107613D01*
X0408420Y0107403D01*
X0408539Y0107196D01*
X0408662Y0106991D01*
X0408790Y0106789D01*
X0408923Y0106590D01*
X0409060Y0106395D01*
X0409201Y0106202D01*
X0409347Y0106013D01*
X0425843Y0106013D01*
X0423123Y0112013D02*
X0422068Y0112013D01*
X0427141Y0108135D02*
X0427034Y0107910D01*
X0426922Y0107687D01*
X0426805Y0107467D01*
X0426683Y0107250D01*
X0426555Y0107035D01*
X0426422Y0106824D01*
X0426285Y0106616D01*
X0426142Y0106412D01*
X0425995Y0106210D01*
X0425843Y0106013D01*
X0427095Y0116985D02*
X0426983Y0117215D01*
X0426866Y0117442D01*
X0426744Y0117666D01*
X0426616Y0117887D01*
X0426482Y0118104D01*
X0426344Y0118319D01*
X0426200Y0118530D01*
X0426051Y0118737D01*
X0425897Y0118941D01*
X0425739Y0119141D01*
X0425575Y0119337D01*
X0425407Y0119529D01*
X0425234Y0119717D01*
X0425056Y0119901D01*
X0424875Y0120080D01*
X0424688Y0120255D01*
X0424498Y0120425D01*
X0424304Y0120590D01*
X0424105Y0120751D01*
X0423903Y0120907D01*
X0423697Y0121058D01*
X0423487Y0121204D01*
X0423274Y0121344D01*
X0423058Y0121480D01*
X0422838Y0121610D01*
X0422615Y0121735D01*
X0422390Y0121854D01*
X0422161Y0121968D01*
X0421930Y0122076D01*
X0421696Y0122179D01*
X0421460Y0122276D01*
X0421221Y0122367D01*
X0420981Y0122452D01*
X0420738Y0122532D01*
X0420493Y0122605D01*
X0420247Y0122673D01*
X0419999Y0122734D01*
X0419750Y0122789D01*
X0419500Y0122839D01*
X0419248Y0122882D01*
X0418995Y0122919D01*
X0418742Y0122950D01*
X0418488Y0122975D01*
X0418233Y0122994D01*
X0417978Y0123006D01*
X0417723Y0123012D01*
X0417467Y0123012D01*
X0417212Y0123006D01*
X0416957Y0122994D01*
X0416702Y0122975D01*
X0416448Y0122950D01*
X0416195Y0122919D01*
X0415942Y0122882D01*
X0415690Y0122839D01*
X0415440Y0122789D01*
X0415191Y0122734D01*
X0414943Y0122673D01*
X0414697Y0122605D01*
X0414452Y0122532D01*
X0414209Y0122452D01*
X0413969Y0122367D01*
X0413730Y0122276D01*
X0413494Y0122179D01*
X0413260Y0122076D01*
X0413029Y0121968D01*
X0412800Y0121854D01*
X0412575Y0121735D01*
X0412352Y0121610D01*
X0412132Y0121480D01*
X0411916Y0121344D01*
X0411703Y0121204D01*
X0411493Y0121058D01*
X0411287Y0120907D01*
X0411085Y0120751D01*
X0410886Y0120590D01*
X0410692Y0120425D01*
X0410502Y0120255D01*
X0410315Y0120080D01*
X0410134Y0119901D01*
X0409956Y0119717D01*
X0409783Y0119529D01*
X0409615Y0119337D01*
X0409451Y0119141D01*
X0409293Y0118941D01*
X0409139Y0118737D01*
X0408990Y0118530D01*
X0408846Y0118319D01*
X0408708Y0118104D01*
X0408574Y0117887D01*
X0408446Y0117666D01*
X0408324Y0117442D01*
X0408207Y0117215D01*
X0408095Y0116985D01*
X0412068Y0112013D02*
X0413123Y0112013D01*
X0438095Y0093040D02*
X0438095Y0091985D01*
X0444095Y0095761D02*
X0444095Y0079265D01*
X0438095Y0081985D02*
X0438095Y0083040D01*
X0442067Y0078011D02*
X0442282Y0078115D01*
X0442495Y0078224D01*
X0442705Y0078338D01*
X0442912Y0078457D01*
X0443117Y0078580D01*
X0443319Y0078708D01*
X0443518Y0078841D01*
X0443713Y0078978D01*
X0443906Y0079119D01*
X0444095Y0079265D01*
X0433123Y0078013D02*
X0432893Y0078125D01*
X0432666Y0078242D01*
X0432442Y0078364D01*
X0432221Y0078492D01*
X0432004Y0078626D01*
X0431789Y0078764D01*
X0431578Y0078908D01*
X0431371Y0079057D01*
X0431167Y0079211D01*
X0430967Y0079369D01*
X0430771Y0079533D01*
X0430579Y0079701D01*
X0430391Y0079874D01*
X0430207Y0080052D01*
X0430028Y0080233D01*
X0429853Y0080420D01*
X0429683Y0080610D01*
X0429518Y0080804D01*
X0429357Y0081003D01*
X0429201Y0081205D01*
X0429050Y0081411D01*
X0428904Y0081621D01*
X0428764Y0081834D01*
X0428628Y0082050D01*
X0428498Y0082270D01*
X0428373Y0082493D01*
X0428254Y0082718D01*
X0428140Y0082947D01*
X0428032Y0083178D01*
X0427929Y0083412D01*
X0427832Y0083648D01*
X0427741Y0083887D01*
X0427656Y0084127D01*
X0427576Y0084370D01*
X0427503Y0084615D01*
X0427435Y0084861D01*
X0427374Y0085109D01*
X0427319Y0085358D01*
X0427269Y0085608D01*
X0427226Y0085860D01*
X0427189Y0086113D01*
X0427158Y0086366D01*
X0427133Y0086620D01*
X0427114Y0086875D01*
X0427102Y0087130D01*
X0427096Y0087385D01*
X0427096Y0087641D01*
X0427102Y0087896D01*
X0427114Y0088151D01*
X0427133Y0088406D01*
X0427158Y0088660D01*
X0427189Y0088913D01*
X0427226Y0089166D01*
X0427269Y0089418D01*
X0427319Y0089668D01*
X0427374Y0089917D01*
X0427435Y0090165D01*
X0427503Y0090411D01*
X0427576Y0090656D01*
X0427656Y0090899D01*
X0427741Y0091139D01*
X0427832Y0091378D01*
X0427929Y0091614D01*
X0428032Y0091848D01*
X0428140Y0092079D01*
X0428254Y0092308D01*
X0428373Y0092533D01*
X0428498Y0092756D01*
X0428628Y0092976D01*
X0428764Y0093192D01*
X0428904Y0093405D01*
X0429050Y0093615D01*
X0429201Y0093821D01*
X0429357Y0094023D01*
X0429518Y0094222D01*
X0429683Y0094416D01*
X0429853Y0094606D01*
X0430028Y0094793D01*
X0430207Y0094974D01*
X0430391Y0095152D01*
X0430579Y0095325D01*
X0430771Y0095493D01*
X0430967Y0095657D01*
X0431167Y0095815D01*
X0431371Y0095969D01*
X0431578Y0096118D01*
X0431789Y0096262D01*
X0432004Y0096400D01*
X0432221Y0096534D01*
X0432442Y0096662D01*
X0432666Y0096784D01*
X0432893Y0096901D01*
X0433123Y0097013D01*
X0425345Y0089223D02*
X0425345Y0087721D01*
X0424595Y0086971D01*
X0423093Y0086971D02*
X0422343Y0088472D01*
X0422343Y0089223D01*
X0423093Y0089973D01*
X0424595Y0089973D01*
X0425345Y0089223D01*
X0423093Y0086971D02*
X0420841Y0086971D01*
X0420841Y0089973D01*
X0425345Y0085369D02*
X0425345Y0082367D01*
X0424592Y0083161D02*
X0427595Y0080159D01*
X0428345Y0080909D01*
X0428345Y0082411D01*
X0427595Y0083161D01*
X0424592Y0083161D01*
X0423841Y0082411D01*
X0423841Y0080909D01*
X0424592Y0080159D01*
X0427595Y0080159D01*
X0428345Y0078557D02*
X0428345Y0075555D01*
X0425343Y0078557D01*
X0424592Y0078557D01*
X0423841Y0077807D01*
X0423841Y0076306D01*
X0424592Y0075555D01*
X0424592Y0073954D02*
X0426093Y0073954D01*
X0426844Y0073203D01*
X0426844Y0070951D01*
X0428345Y0070951D02*
X0423841Y0070951D01*
X0423841Y0073203D01*
X0424592Y0073954D01*
X0426844Y0072452D02*
X0428345Y0073954D01*
X0425345Y0079264D02*
X0420841Y0079264D01*
X0420841Y0077763D02*
X0420841Y0080765D01*
X0422343Y0082367D02*
X0420841Y0083868D01*
X0425345Y0083868D01*
X0441973Y0097059D02*
X0442198Y0096952D01*
X0442421Y0096840D01*
X0442641Y0096723D01*
X0442858Y0096601D01*
X0443073Y0096473D01*
X0443284Y0096340D01*
X0443492Y0096203D01*
X0443696Y0096060D01*
X0443898Y0095913D01*
X0444095Y0095761D01*
X0404345Y0090411D02*
X0403595Y0091161D01*
X0402844Y0091161D01*
X0402093Y0090411D01*
X0402093Y0088159D01*
X0403595Y0088159D01*
X0404345Y0088909D01*
X0404345Y0090411D01*
X0402093Y0088159D02*
X0400592Y0089660D01*
X0399841Y0091161D01*
X0404345Y0086557D02*
X0404345Y0083555D01*
X0404345Y0085056D02*
X0399841Y0085056D01*
X0401343Y0083555D01*
X0399841Y0081954D02*
X0399841Y0078951D01*
X0399841Y0080452D02*
X0404345Y0080452D01*
X0383218Y0072967D02*
X0382993Y0073074D01*
X0382770Y0073186D01*
X0382550Y0073303D01*
X0382333Y0073425D01*
X0382118Y0073553D01*
X0381907Y0073686D01*
X0381699Y0073823D01*
X0381495Y0073966D01*
X0381293Y0074113D01*
X0381096Y0074265D01*
X0381095Y0074265D02*
X0381095Y0090761D01*
X0387095Y0088040D02*
X0387095Y0086985D01*
X0383124Y0092015D02*
X0382909Y0091911D01*
X0382696Y0091802D01*
X0382486Y0091688D01*
X0382279Y0091569D01*
X0382074Y0091446D01*
X0381872Y0091318D01*
X0381673Y0091185D01*
X0381478Y0091048D01*
X0381285Y0090907D01*
X0381096Y0090761D01*
X0392067Y0092013D02*
X0392297Y0091901D01*
X0392524Y0091784D01*
X0392748Y0091662D01*
X0392969Y0091534D01*
X0393186Y0091400D01*
X0393401Y0091262D01*
X0393612Y0091118D01*
X0393819Y0090969D01*
X0394023Y0090815D01*
X0394223Y0090657D01*
X0394419Y0090493D01*
X0394611Y0090325D01*
X0394799Y0090152D01*
X0394983Y0089974D01*
X0395162Y0089793D01*
X0395337Y0089606D01*
X0395507Y0089416D01*
X0395672Y0089222D01*
X0395833Y0089023D01*
X0395989Y0088821D01*
X0396140Y0088615D01*
X0396286Y0088405D01*
X0396426Y0088192D01*
X0396562Y0087976D01*
X0396692Y0087756D01*
X0396817Y0087533D01*
X0396936Y0087308D01*
X0397050Y0087079D01*
X0397158Y0086848D01*
X0397261Y0086614D01*
X0397358Y0086378D01*
X0397449Y0086139D01*
X0397534Y0085899D01*
X0397614Y0085656D01*
X0397687Y0085411D01*
X0397755Y0085165D01*
X0397816Y0084917D01*
X0397871Y0084668D01*
X0397921Y0084418D01*
X0397964Y0084166D01*
X0398001Y0083913D01*
X0398032Y0083660D01*
X0398057Y0083406D01*
X0398076Y0083151D01*
X0398088Y0082896D01*
X0398094Y0082641D01*
X0398094Y0082385D01*
X0398088Y0082130D01*
X0398076Y0081875D01*
X0398057Y0081620D01*
X0398032Y0081366D01*
X0398001Y0081113D01*
X0397964Y0080860D01*
X0397921Y0080608D01*
X0397871Y0080358D01*
X0397816Y0080109D01*
X0397755Y0079861D01*
X0397687Y0079615D01*
X0397614Y0079370D01*
X0397534Y0079127D01*
X0397449Y0078887D01*
X0397358Y0078648D01*
X0397261Y0078412D01*
X0397158Y0078178D01*
X0397050Y0077947D01*
X0396936Y0077718D01*
X0396817Y0077493D01*
X0396692Y0077270D01*
X0396562Y0077050D01*
X0396426Y0076834D01*
X0396286Y0076621D01*
X0396140Y0076411D01*
X0395989Y0076205D01*
X0395833Y0076003D01*
X0395672Y0075804D01*
X0395507Y0075610D01*
X0395337Y0075420D01*
X0395162Y0075233D01*
X0394983Y0075052D01*
X0394799Y0074874D01*
X0394611Y0074701D01*
X0394419Y0074533D01*
X0394223Y0074369D01*
X0394023Y0074211D01*
X0393819Y0074057D01*
X0393612Y0073908D01*
X0393401Y0073764D01*
X0393186Y0073626D01*
X0392969Y0073492D01*
X0392748Y0073364D01*
X0392524Y0073242D01*
X0392297Y0073125D01*
X0392067Y0073013D01*
X0387095Y0076985D02*
X0387095Y0078040D01*
X0392592Y0062973D02*
X0393343Y0062973D01*
X0394093Y0062223D01*
X0394844Y0062973D01*
X0395595Y0062973D01*
X0396345Y0062223D01*
X0396345Y0060721D01*
X0395595Y0059971D01*
X0396345Y0058369D02*
X0396345Y0055367D01*
X0393343Y0058369D01*
X0392592Y0058369D01*
X0391841Y0057619D01*
X0391841Y0056117D01*
X0392592Y0055367D01*
X0392592Y0053765D02*
X0394093Y0053765D01*
X0394844Y0053015D01*
X0394844Y0050763D01*
X0394844Y0052264D02*
X0396345Y0053765D01*
X0396345Y0050763D02*
X0391841Y0050763D01*
X0391841Y0053015D01*
X0392592Y0053765D01*
X0392592Y0059971D02*
X0391841Y0060721D01*
X0391841Y0062223D01*
X0392592Y0062973D01*
X0394093Y0062223D02*
X0394093Y0061472D01*
X0421841Y0042223D02*
X0422592Y0042973D01*
X0423343Y0042973D01*
X0426345Y0039971D01*
X0426345Y0042973D01*
X0421841Y0042223D02*
X0421841Y0040721D01*
X0422592Y0039971D01*
X0422592Y0038369D02*
X0421841Y0037619D01*
X0421841Y0036117D01*
X0422592Y0035367D01*
X0422592Y0033765D02*
X0424093Y0033765D01*
X0424844Y0033015D01*
X0424844Y0030763D01*
X0424844Y0032264D02*
X0426345Y0033765D01*
X0426345Y0035367D02*
X0423343Y0038369D01*
X0422592Y0038369D01*
X0426345Y0038369D02*
X0426345Y0035367D01*
X0422592Y0033765D02*
X0421841Y0033015D01*
X0421841Y0030763D01*
X0426345Y0030763D01*
X0358345Y0050951D02*
X0353841Y0050951D01*
X0353841Y0053203D01*
X0354592Y0053954D01*
X0356093Y0053954D01*
X0356844Y0053203D01*
X0356844Y0050951D01*
X0356844Y0052452D02*
X0358345Y0053954D01*
X0358345Y0055555D02*
X0355343Y0058557D01*
X0354592Y0058557D01*
X0353841Y0057807D01*
X0353841Y0056306D01*
X0354592Y0055555D01*
X0358345Y0055555D02*
X0358345Y0058557D01*
X0356093Y0060159D02*
X0356093Y0063161D01*
X0353841Y0062411D02*
X0356093Y0060159D01*
X0358345Y0062411D02*
X0353841Y0062411D01*
X0339841Y0078951D02*
X0339841Y0081954D01*
X0339841Y0080452D02*
X0344345Y0080452D01*
X0344345Y0083555D02*
X0344345Y0086557D01*
X0344345Y0085056D02*
X0339841Y0085056D01*
X0341343Y0083555D01*
X0340592Y0088159D02*
X0339841Y0088909D01*
X0339841Y0090411D01*
X0340592Y0091161D01*
X0341343Y0091161D01*
X0342093Y0090411D01*
X0342844Y0091161D01*
X0343595Y0091161D01*
X0344345Y0090411D01*
X0344345Y0088909D01*
X0343595Y0088159D01*
X0342093Y0089660D02*
X0342093Y0090411D01*
X0327095Y0088040D02*
X0327095Y0086985D01*
X0323124Y0092015D02*
X0322909Y0091911D01*
X0322696Y0091802D01*
X0322486Y0091688D01*
X0322279Y0091569D01*
X0322074Y0091446D01*
X0321872Y0091318D01*
X0321673Y0091185D01*
X0321478Y0091048D01*
X0321285Y0090907D01*
X0321096Y0090761D01*
X0321095Y0090761D02*
X0321095Y0074265D01*
X0323345Y0073161D02*
X0323345Y0070159D01*
X0323345Y0071660D02*
X0318841Y0071660D01*
X0320343Y0070159D01*
X0320343Y0068557D02*
X0319592Y0068557D01*
X0318841Y0067807D01*
X0318841Y0066306D01*
X0319592Y0065555D01*
X0319592Y0063954D02*
X0321093Y0063954D01*
X0321844Y0063203D01*
X0321844Y0060951D01*
X0323345Y0060951D02*
X0318841Y0060951D01*
X0318841Y0063203D01*
X0319592Y0063954D01*
X0321844Y0062452D02*
X0323345Y0063954D01*
X0323345Y0065555D02*
X0320343Y0068557D01*
X0323345Y0068557D02*
X0323345Y0065555D01*
X0327095Y0076985D02*
X0327095Y0078040D01*
X0323218Y0072967D02*
X0322993Y0073074D01*
X0322770Y0073186D01*
X0322550Y0073303D01*
X0322333Y0073425D01*
X0322118Y0073553D01*
X0321907Y0073686D01*
X0321699Y0073823D01*
X0321495Y0073966D01*
X0321293Y0074113D01*
X0321096Y0074265D01*
X0332067Y0073013D02*
X0332297Y0073125D01*
X0332524Y0073242D01*
X0332748Y0073364D01*
X0332969Y0073492D01*
X0333186Y0073626D01*
X0333401Y0073764D01*
X0333612Y0073908D01*
X0333819Y0074057D01*
X0334023Y0074211D01*
X0334223Y0074369D01*
X0334419Y0074533D01*
X0334611Y0074701D01*
X0334799Y0074874D01*
X0334983Y0075052D01*
X0335162Y0075233D01*
X0335337Y0075420D01*
X0335507Y0075610D01*
X0335672Y0075804D01*
X0335833Y0076003D01*
X0335989Y0076205D01*
X0336140Y0076411D01*
X0336286Y0076621D01*
X0336426Y0076834D01*
X0336562Y0077050D01*
X0336692Y0077270D01*
X0336817Y0077493D01*
X0336936Y0077718D01*
X0337050Y0077947D01*
X0337158Y0078178D01*
X0337261Y0078412D01*
X0337358Y0078648D01*
X0337449Y0078887D01*
X0337534Y0079127D01*
X0337614Y0079370D01*
X0337687Y0079615D01*
X0337755Y0079861D01*
X0337816Y0080109D01*
X0337871Y0080358D01*
X0337921Y0080608D01*
X0337964Y0080860D01*
X0338001Y0081113D01*
X0338032Y0081366D01*
X0338057Y0081620D01*
X0338076Y0081875D01*
X0338088Y0082130D01*
X0338094Y0082385D01*
X0338094Y0082641D01*
X0338088Y0082896D01*
X0338076Y0083151D01*
X0338057Y0083406D01*
X0338032Y0083660D01*
X0338001Y0083913D01*
X0337964Y0084166D01*
X0337921Y0084418D01*
X0337871Y0084668D01*
X0337816Y0084917D01*
X0337755Y0085165D01*
X0337687Y0085411D01*
X0337614Y0085656D01*
X0337534Y0085899D01*
X0337449Y0086139D01*
X0337358Y0086378D01*
X0337261Y0086614D01*
X0337158Y0086848D01*
X0337050Y0087079D01*
X0336936Y0087308D01*
X0336817Y0087533D01*
X0336692Y0087756D01*
X0336562Y0087976D01*
X0336426Y0088192D01*
X0336286Y0088405D01*
X0336140Y0088615D01*
X0335989Y0088821D01*
X0335833Y0089023D01*
X0335672Y0089222D01*
X0335507Y0089416D01*
X0335337Y0089606D01*
X0335162Y0089793D01*
X0334983Y0089974D01*
X0334799Y0090152D01*
X0334611Y0090325D01*
X0334419Y0090493D01*
X0334223Y0090657D01*
X0334023Y0090815D01*
X0333819Y0090969D01*
X0333612Y0091118D01*
X0333401Y0091262D01*
X0333186Y0091400D01*
X0332969Y0091534D01*
X0332748Y0091662D01*
X0332524Y0091784D01*
X0332297Y0091901D01*
X0332067Y0092013D01*
X0308345Y0082411D02*
X0308345Y0080909D01*
X0307595Y0080159D01*
X0306844Y0080159D01*
X0306093Y0080909D01*
X0306093Y0082411D01*
X0306844Y0083161D01*
X0307595Y0083161D01*
X0308345Y0082411D01*
X0306093Y0082411D02*
X0305343Y0083161D01*
X0304592Y0083161D01*
X0303841Y0082411D01*
X0303841Y0080909D01*
X0304592Y0080159D01*
X0305343Y0080159D01*
X0306093Y0080909D01*
X0308345Y0078557D02*
X0308345Y0075555D01*
X0308345Y0077056D02*
X0303841Y0077056D01*
X0305343Y0075555D01*
X0306093Y0073954D02*
X0306844Y0073203D01*
X0306844Y0070951D01*
X0308345Y0070951D02*
X0303841Y0070951D01*
X0303841Y0073203D01*
X0304592Y0073954D01*
X0306093Y0073954D01*
X0306844Y0072452D02*
X0308345Y0073954D01*
X0289095Y0074265D02*
X0289095Y0090761D01*
X0283095Y0088040D02*
X0283095Y0086985D01*
X0286973Y0092059D02*
X0287198Y0091952D01*
X0287421Y0091840D01*
X0287641Y0091723D01*
X0287858Y0091601D01*
X0288073Y0091473D01*
X0288284Y0091340D01*
X0288492Y0091203D01*
X0288696Y0091060D01*
X0288898Y0090913D01*
X0289095Y0090761D01*
X0295535Y0095763D02*
X0295535Y0100267D01*
X0297036Y0100267D02*
X0294033Y0100267D01*
X0298637Y0098765D02*
X0300139Y0100267D01*
X0300139Y0095763D01*
X0301640Y0095763D02*
X0298637Y0095763D01*
X0303241Y0095763D02*
X0306244Y0095763D01*
X0304742Y0095763D02*
X0304742Y0100267D01*
X0303241Y0098765D01*
X0307097Y0116984D02*
X0306993Y0117199D01*
X0306884Y0117412D01*
X0306770Y0117622D01*
X0306651Y0117829D01*
X0306528Y0118034D01*
X0306400Y0118236D01*
X0306267Y0118435D01*
X0306130Y0118630D01*
X0305989Y0118823D01*
X0305843Y0119012D01*
X0305843Y0119013D02*
X0289347Y0119013D01*
X0292068Y0113013D02*
X0293123Y0113013D01*
X0288049Y0116890D02*
X0288156Y0117115D01*
X0288268Y0117338D01*
X0288385Y0117558D01*
X0288507Y0117775D01*
X0288635Y0117990D01*
X0288768Y0118201D01*
X0288905Y0118409D01*
X0289048Y0118613D01*
X0289195Y0118815D01*
X0289347Y0119012D01*
X0288095Y0108041D02*
X0288207Y0107811D01*
X0288324Y0107584D01*
X0288446Y0107360D01*
X0288574Y0107139D01*
X0288708Y0106922D01*
X0288846Y0106707D01*
X0288990Y0106496D01*
X0289139Y0106289D01*
X0289293Y0106085D01*
X0289451Y0105885D01*
X0289615Y0105689D01*
X0289783Y0105497D01*
X0289956Y0105309D01*
X0290134Y0105125D01*
X0290315Y0104946D01*
X0290502Y0104771D01*
X0290692Y0104601D01*
X0290886Y0104436D01*
X0291085Y0104275D01*
X0291287Y0104119D01*
X0291493Y0103968D01*
X0291703Y0103822D01*
X0291916Y0103682D01*
X0292132Y0103546D01*
X0292352Y0103416D01*
X0292575Y0103291D01*
X0292800Y0103172D01*
X0293029Y0103058D01*
X0293260Y0102950D01*
X0293494Y0102847D01*
X0293730Y0102750D01*
X0293969Y0102659D01*
X0294209Y0102574D01*
X0294452Y0102494D01*
X0294697Y0102421D01*
X0294943Y0102353D01*
X0295191Y0102292D01*
X0295440Y0102237D01*
X0295690Y0102187D01*
X0295942Y0102144D01*
X0296195Y0102107D01*
X0296448Y0102076D01*
X0296702Y0102051D01*
X0296957Y0102032D01*
X0297212Y0102020D01*
X0297467Y0102014D01*
X0297723Y0102014D01*
X0297978Y0102020D01*
X0298233Y0102032D01*
X0298488Y0102051D01*
X0298742Y0102076D01*
X0298995Y0102107D01*
X0299248Y0102144D01*
X0299500Y0102187D01*
X0299750Y0102237D01*
X0299999Y0102292D01*
X0300247Y0102353D01*
X0300493Y0102421D01*
X0300738Y0102494D01*
X0300981Y0102574D01*
X0301221Y0102659D01*
X0301460Y0102750D01*
X0301696Y0102847D01*
X0301930Y0102950D01*
X0302161Y0103058D01*
X0302390Y0103172D01*
X0302615Y0103291D01*
X0302838Y0103416D01*
X0303058Y0103546D01*
X0303274Y0103682D01*
X0303487Y0103822D01*
X0303697Y0103968D01*
X0303903Y0104119D01*
X0304105Y0104275D01*
X0304304Y0104436D01*
X0304498Y0104601D01*
X0304688Y0104771D01*
X0304875Y0104946D01*
X0305056Y0105125D01*
X0305234Y0105309D01*
X0305407Y0105497D01*
X0305575Y0105689D01*
X0305739Y0105885D01*
X0305897Y0106085D01*
X0306051Y0106289D01*
X0306200Y0106496D01*
X0306344Y0106707D01*
X0306482Y0106922D01*
X0306616Y0107139D01*
X0306744Y0107360D01*
X0306866Y0107584D01*
X0306983Y0107811D01*
X0307095Y0108041D01*
X0303123Y0113013D02*
X0302068Y0113013D01*
X0284701Y0138963D02*
X0283200Y0138963D01*
X0282449Y0139713D01*
X0282449Y0141215D02*
X0283950Y0141965D01*
X0284701Y0141965D01*
X0285452Y0141215D01*
X0285452Y0139713D01*
X0284701Y0138963D01*
X0282449Y0141215D02*
X0282449Y0143467D01*
X0285452Y0143467D01*
X0280848Y0142716D02*
X0280848Y0139713D01*
X0280097Y0138963D01*
X0278596Y0138963D01*
X0277845Y0139713D01*
X0277845Y0142716D01*
X0278596Y0143467D01*
X0280097Y0143467D01*
X0280848Y0142716D01*
X0279346Y0140464D02*
X0280848Y0138963D01*
X0220493Y0161563D02*
X0220493Y0166067D01*
X0218241Y0163815D01*
X0221244Y0163815D01*
X0216640Y0165316D02*
X0216640Y0162313D01*
X0215889Y0161563D01*
X0214388Y0161563D01*
X0213637Y0162313D01*
X0213637Y0165316D01*
X0214388Y0166067D01*
X0215889Y0166067D01*
X0216640Y0165316D01*
X0215139Y0163064D02*
X0216640Y0161563D01*
X0178845Y0149161D02*
X0178845Y0146159D01*
X0178845Y0147660D02*
X0174341Y0147660D01*
X0175843Y0146159D01*
X0175092Y0144557D02*
X0178095Y0144557D01*
X0178845Y0143807D01*
X0178845Y0141555D01*
X0174341Y0141555D01*
X0174341Y0143807D01*
X0175092Y0144557D01*
X0153725Y0148063D02*
X0150722Y0148063D01*
X0152224Y0148063D02*
X0152224Y0152567D01*
X0150722Y0151065D01*
X0149121Y0150315D02*
X0148370Y0149564D01*
X0146118Y0149564D01*
X0146118Y0148063D02*
X0146118Y0152567D01*
X0148370Y0152567D01*
X0149121Y0151816D01*
X0149121Y0150315D01*
X0147620Y0149564D02*
X0149121Y0148063D01*
X0144517Y0148813D02*
X0144517Y0151816D01*
X0143766Y0152567D01*
X0142265Y0152567D01*
X0141514Y0151816D01*
X0141514Y0148813D01*
X0142265Y0148063D01*
X0143766Y0148063D01*
X0144517Y0148813D01*
X0138412Y0148063D02*
X0138412Y0152567D01*
X0139913Y0152567D02*
X0136910Y0152567D01*
X0135309Y0151816D02*
X0134558Y0152567D01*
X0133057Y0152567D01*
X0132307Y0151816D01*
X0132307Y0148813D01*
X0133057Y0148063D01*
X0134558Y0148063D01*
X0135309Y0148813D01*
X0135309Y0151816D01*
X0130705Y0152567D02*
X0130705Y0148063D01*
X0128845Y0149161D02*
X0128845Y0146159D01*
X0125843Y0149161D01*
X0125092Y0149161D01*
X0124341Y0148411D01*
X0124341Y0146909D01*
X0125092Y0146159D01*
X0125092Y0144557D02*
X0124341Y0143807D01*
X0124341Y0141555D01*
X0128845Y0141555D01*
X0128845Y0143807D01*
X0128095Y0144557D01*
X0125092Y0144557D01*
X0127703Y0148063D02*
X0127703Y0152567D01*
X0129204Y0151065D01*
X0130705Y0152567D01*
X0128005Y0170263D02*
X0125003Y0170263D01*
X0126504Y0170263D02*
X0126504Y0174767D01*
X0125003Y0173265D01*
X0124341Y0181555D02*
X0124341Y0183807D01*
X0125092Y0184557D01*
X0128095Y0184557D01*
X0128845Y0183807D01*
X0128845Y0181555D01*
X0124341Y0181555D01*
X0125092Y0186159D02*
X0124341Y0186909D01*
X0124341Y0188411D01*
X0125092Y0189161D01*
X0125843Y0189161D01*
X0126593Y0188411D01*
X0127344Y0189161D01*
X0128095Y0189161D01*
X0128845Y0188411D01*
X0128845Y0186909D01*
X0128095Y0186159D01*
X0126593Y0187660D02*
X0126593Y0188411D01*
X0130096Y0199263D02*
X0131597Y0199263D01*
X0132348Y0200013D01*
X0133949Y0199263D02*
X0136952Y0199263D01*
X0135450Y0199263D02*
X0135450Y0203767D01*
X0133949Y0202265D01*
X0132348Y0203016D02*
X0131597Y0203767D01*
X0130096Y0203767D01*
X0129345Y0203016D01*
X0129345Y0200013D01*
X0130096Y0199263D01*
X0145253Y0174767D02*
X0144503Y0174016D01*
X0145253Y0174767D02*
X0146755Y0174767D01*
X0147505Y0174016D01*
X0147505Y0173265D01*
X0144503Y0170263D01*
X0147505Y0170263D01*
X0174341Y0181555D02*
X0174341Y0183807D01*
X0175092Y0184557D01*
X0178095Y0184557D01*
X0178845Y0183807D01*
X0178845Y0181555D01*
X0174341Y0181555D01*
X0176593Y0186159D02*
X0174341Y0188411D01*
X0178845Y0188411D01*
X0176593Y0189161D02*
X0176593Y0186159D01*
X0213637Y0217313D02*
X0214388Y0216563D01*
X0215889Y0216563D01*
X0216640Y0217313D01*
X0216640Y0220316D01*
X0215889Y0221067D01*
X0214388Y0221067D01*
X0213637Y0220316D01*
X0213637Y0217313D01*
X0215139Y0218064D02*
X0216640Y0216563D01*
X0218241Y0216563D02*
X0221244Y0219565D01*
X0221244Y0220316D01*
X0220493Y0221067D01*
X0218992Y0221067D01*
X0218241Y0220316D01*
X0217493Y0221763D02*
X0215992Y0221763D01*
X0215241Y0222513D01*
X0215241Y0223264D01*
X0215992Y0224015D01*
X0217493Y0224015D01*
X0218244Y0223264D01*
X0218244Y0222513D01*
X0217493Y0221763D01*
X0217493Y0224015D02*
X0218244Y0224765D01*
X0218244Y0225516D01*
X0217493Y0226267D01*
X0215992Y0226267D01*
X0215241Y0225516D01*
X0215241Y0224765D01*
X0215992Y0224015D01*
X0213640Y0224015D02*
X0213640Y0225516D01*
X0212889Y0226267D01*
X0210637Y0226267D01*
X0210637Y0221763D01*
X0210637Y0223264D02*
X0212889Y0223264D01*
X0213640Y0224015D01*
X0212139Y0223264D02*
X0213640Y0221763D01*
X0218241Y0216563D02*
X0221244Y0216563D01*
X0178340Y0232426D02*
X0176085Y0234674D01*
X0176090Y0231671D01*
X0173837Y0232418D02*
X0178340Y0232426D01*
X0177583Y0236278D02*
X0176082Y0236275D01*
X0175330Y0237024D01*
X0175326Y0239276D01*
X0175328Y0237775D02*
X0173830Y0236271D01*
X0173825Y0239274D02*
X0178328Y0239281D01*
X0178332Y0237030D01*
X0177583Y0236278D01*
X0181095Y0249265D02*
X0181095Y0265761D01*
X0187095Y0263040D02*
X0187095Y0261985D01*
X0183124Y0267015D02*
X0182909Y0266911D01*
X0182696Y0266802D01*
X0182486Y0266688D01*
X0182279Y0266569D01*
X0182074Y0266446D01*
X0181872Y0266318D01*
X0181673Y0266185D01*
X0181478Y0266048D01*
X0181285Y0265907D01*
X0181096Y0265761D01*
X0192067Y0267013D02*
X0192297Y0266901D01*
X0192524Y0266784D01*
X0192748Y0266662D01*
X0192969Y0266534D01*
X0193186Y0266400D01*
X0193401Y0266262D01*
X0193612Y0266118D01*
X0193819Y0265969D01*
X0194023Y0265815D01*
X0194223Y0265657D01*
X0194419Y0265493D01*
X0194611Y0265325D01*
X0194799Y0265152D01*
X0194983Y0264974D01*
X0195162Y0264793D01*
X0195337Y0264606D01*
X0195507Y0264416D01*
X0195672Y0264222D01*
X0195833Y0264023D01*
X0195989Y0263821D01*
X0196140Y0263615D01*
X0196286Y0263405D01*
X0196426Y0263192D01*
X0196562Y0262976D01*
X0196692Y0262756D01*
X0196817Y0262533D01*
X0196936Y0262308D01*
X0197050Y0262079D01*
X0197158Y0261848D01*
X0197261Y0261614D01*
X0197358Y0261378D01*
X0197449Y0261139D01*
X0197534Y0260899D01*
X0197614Y0260656D01*
X0197687Y0260411D01*
X0197755Y0260165D01*
X0197816Y0259917D01*
X0197871Y0259668D01*
X0197921Y0259418D01*
X0197964Y0259166D01*
X0198001Y0258913D01*
X0198032Y0258660D01*
X0198057Y0258406D01*
X0198076Y0258151D01*
X0198088Y0257896D01*
X0198094Y0257641D01*
X0198094Y0257385D01*
X0198088Y0257130D01*
X0198076Y0256875D01*
X0198057Y0256620D01*
X0198032Y0256366D01*
X0198001Y0256113D01*
X0197964Y0255860D01*
X0197921Y0255608D01*
X0197871Y0255358D01*
X0197816Y0255109D01*
X0197755Y0254861D01*
X0197687Y0254615D01*
X0197614Y0254370D01*
X0197534Y0254127D01*
X0197449Y0253887D01*
X0197358Y0253648D01*
X0197261Y0253412D01*
X0197158Y0253178D01*
X0197050Y0252947D01*
X0196936Y0252718D01*
X0196817Y0252493D01*
X0196692Y0252270D01*
X0196562Y0252050D01*
X0196426Y0251834D01*
X0196286Y0251621D01*
X0196140Y0251411D01*
X0195989Y0251205D01*
X0195833Y0251003D01*
X0195672Y0250804D01*
X0195507Y0250610D01*
X0195337Y0250420D01*
X0195162Y0250233D01*
X0194983Y0250052D01*
X0194799Y0249874D01*
X0194611Y0249701D01*
X0194419Y0249533D01*
X0194223Y0249369D01*
X0194023Y0249211D01*
X0193819Y0249057D01*
X0193612Y0248908D01*
X0193401Y0248764D01*
X0193186Y0248626D01*
X0192969Y0248492D01*
X0192748Y0248364D01*
X0192524Y0248242D01*
X0192297Y0248125D01*
X0192067Y0248013D01*
X0187095Y0251985D02*
X0187095Y0253040D01*
X0183218Y0247967D02*
X0182993Y0248074D01*
X0182770Y0248186D01*
X0182550Y0248303D01*
X0182333Y0248425D01*
X0182118Y0248553D01*
X0181907Y0248686D01*
X0181699Y0248823D01*
X0181495Y0248966D01*
X0181293Y0249113D01*
X0181096Y0249265D01*
X0199841Y0258555D02*
X0199841Y0261557D01*
X0199841Y0260056D02*
X0204345Y0260056D01*
X0204093Y0260367D02*
X0205595Y0260367D01*
X0206345Y0261117D01*
X0206345Y0262619D01*
X0205595Y0263369D01*
X0204844Y0263369D01*
X0204093Y0262619D01*
X0204093Y0260367D01*
X0202592Y0261868D01*
X0201841Y0263369D01*
X0202093Y0263159D02*
X0202093Y0266161D01*
X0199841Y0265411D02*
X0202093Y0263159D01*
X0204345Y0265411D02*
X0199841Y0265411D01*
X0202592Y0258765D02*
X0204093Y0258765D01*
X0204844Y0258015D01*
X0204844Y0255763D01*
X0204844Y0257264D02*
X0206345Y0258765D01*
X0206345Y0255763D02*
X0201841Y0255763D01*
X0201841Y0258015D01*
X0202592Y0258765D01*
X0128345Y0238161D02*
X0128345Y0235159D01*
X0125343Y0238161D01*
X0124592Y0238161D01*
X0123841Y0237411D01*
X0123841Y0235909D01*
X0124592Y0235159D01*
X0124592Y0233557D02*
X0126093Y0233557D01*
X0126844Y0232807D01*
X0126844Y0230555D01*
X0128345Y0230555D02*
X0123841Y0230555D01*
X0123841Y0232807D01*
X0124592Y0233557D01*
X0126844Y0232056D02*
X0128345Y0233557D01*
X0097095Y0251985D02*
X0097095Y0253040D01*
X0093218Y0247967D02*
X0092993Y0248074D01*
X0092770Y0248186D01*
X0092550Y0248303D01*
X0092333Y0248425D01*
X0092118Y0248553D01*
X0091907Y0248686D01*
X0091699Y0248823D01*
X0091495Y0248966D01*
X0091293Y0249113D01*
X0091096Y0249265D01*
X0091095Y0249265D02*
X0091095Y0265761D01*
X0097095Y0263040D02*
X0097095Y0261985D01*
X0093124Y0267015D02*
X0092909Y0266911D01*
X0092696Y0266802D01*
X0092486Y0266688D01*
X0092279Y0266569D01*
X0092074Y0266446D01*
X0091872Y0266318D01*
X0091673Y0266185D01*
X0091478Y0266048D01*
X0091285Y0265907D01*
X0091096Y0265761D01*
X0083345Y0270555D02*
X0078841Y0270555D01*
X0078841Y0272807D01*
X0079592Y0273557D01*
X0081093Y0273557D01*
X0081844Y0272807D01*
X0081844Y0270555D01*
X0081844Y0272056D02*
X0083345Y0273557D01*
X0082595Y0275159D02*
X0083345Y0275909D01*
X0083345Y0277411D01*
X0082595Y0278161D01*
X0081844Y0278161D01*
X0081093Y0277411D01*
X0081093Y0276660D01*
X0081093Y0277411D02*
X0080343Y0278161D01*
X0079592Y0278161D01*
X0078841Y0277411D01*
X0078841Y0275909D01*
X0079592Y0275159D01*
X0102067Y0267013D02*
X0102297Y0266901D01*
X0102524Y0266784D01*
X0102748Y0266662D01*
X0102969Y0266534D01*
X0103186Y0266400D01*
X0103401Y0266262D01*
X0103612Y0266118D01*
X0103819Y0265969D01*
X0104023Y0265815D01*
X0104223Y0265657D01*
X0104419Y0265493D01*
X0104611Y0265325D01*
X0104799Y0265152D01*
X0104983Y0264974D01*
X0105162Y0264793D01*
X0105337Y0264606D01*
X0105507Y0264416D01*
X0105672Y0264222D01*
X0105833Y0264023D01*
X0105989Y0263821D01*
X0106140Y0263615D01*
X0106286Y0263405D01*
X0106426Y0263192D01*
X0106562Y0262976D01*
X0106692Y0262756D01*
X0106817Y0262533D01*
X0106936Y0262308D01*
X0107050Y0262079D01*
X0107158Y0261848D01*
X0107261Y0261614D01*
X0107358Y0261378D01*
X0107449Y0261139D01*
X0107534Y0260899D01*
X0107614Y0260656D01*
X0107687Y0260411D01*
X0107755Y0260165D01*
X0107816Y0259917D01*
X0107871Y0259668D01*
X0107921Y0259418D01*
X0107964Y0259166D01*
X0108001Y0258913D01*
X0108032Y0258660D01*
X0108057Y0258406D01*
X0108076Y0258151D01*
X0108088Y0257896D01*
X0108094Y0257641D01*
X0108094Y0257385D01*
X0108088Y0257130D01*
X0108076Y0256875D01*
X0108057Y0256620D01*
X0108032Y0256366D01*
X0108001Y0256113D01*
X0107964Y0255860D01*
X0107921Y0255608D01*
X0107871Y0255358D01*
X0107816Y0255109D01*
X0107755Y0254861D01*
X0107687Y0254615D01*
X0107614Y0254370D01*
X0107534Y0254127D01*
X0107449Y0253887D01*
X0107358Y0253648D01*
X0107261Y0253412D01*
X0107158Y0253178D01*
X0107050Y0252947D01*
X0106936Y0252718D01*
X0106817Y0252493D01*
X0106692Y0252270D01*
X0106562Y0252050D01*
X0106426Y0251834D01*
X0106286Y0251621D01*
X0106140Y0251411D01*
X0105989Y0251205D01*
X0105833Y0251003D01*
X0105672Y0250804D01*
X0105507Y0250610D01*
X0105337Y0250420D01*
X0105162Y0250233D01*
X0104983Y0250052D01*
X0104799Y0249874D01*
X0104611Y0249701D01*
X0104419Y0249533D01*
X0104223Y0249369D01*
X0104023Y0249211D01*
X0103819Y0249057D01*
X0103612Y0248908D01*
X0103401Y0248764D01*
X0103186Y0248626D01*
X0102969Y0248492D01*
X0102748Y0248364D01*
X0102524Y0248242D01*
X0102297Y0248125D01*
X0102067Y0248013D01*
X0109841Y0258555D02*
X0109841Y0261557D01*
X0109841Y0260056D02*
X0114345Y0260056D01*
X0113595Y0263159D02*
X0114345Y0263909D01*
X0114345Y0265411D01*
X0113595Y0266161D01*
X0112844Y0266161D01*
X0112093Y0265411D01*
X0112093Y0264660D01*
X0112093Y0265411D02*
X0111343Y0266161D01*
X0110592Y0266161D01*
X0109841Y0265411D01*
X0109841Y0263909D01*
X0110592Y0263159D01*
X0071950Y0243267D02*
X0071950Y0238763D01*
X0070449Y0238763D02*
X0073452Y0238763D01*
X0070449Y0241765D02*
X0071950Y0243267D01*
X0068848Y0242516D02*
X0068848Y0241015D01*
X0068097Y0240264D01*
X0065845Y0240264D01*
X0065845Y0238763D02*
X0065845Y0243267D01*
X0068097Y0243267D01*
X0068848Y0242516D01*
X0067346Y0240264D02*
X0068848Y0238763D01*
X0068950Y0198467D02*
X0068950Y0193963D01*
X0067449Y0193963D02*
X0070452Y0193963D01*
X0067449Y0196965D02*
X0068950Y0198467D01*
X0065848Y0197716D02*
X0065848Y0194713D01*
X0065097Y0193963D01*
X0063596Y0193963D01*
X0062845Y0194713D01*
X0062845Y0197716D01*
X0063596Y0198467D01*
X0065097Y0198467D01*
X0065848Y0197716D01*
X0064346Y0195464D02*
X0065848Y0193963D01*
X0065097Y0143467D02*
X0065848Y0142716D01*
X0065848Y0139713D01*
X0065097Y0138963D01*
X0063596Y0138963D01*
X0062845Y0139713D01*
X0062845Y0142716D01*
X0063596Y0143467D01*
X0065097Y0143467D01*
X0067449Y0142716D02*
X0068200Y0143467D01*
X0069701Y0143467D01*
X0070452Y0142716D01*
X0070452Y0141965D01*
X0069701Y0141215D01*
X0070452Y0140464D01*
X0070452Y0139713D01*
X0069701Y0138963D01*
X0068200Y0138963D01*
X0067449Y0139713D01*
X0065848Y0138963D02*
X0064346Y0140464D01*
X0068950Y0141215D02*
X0069701Y0141215D01*
X0074347Y0119013D02*
X0090843Y0119013D01*
X0088123Y0113013D02*
X0087068Y0113013D01*
X0092097Y0116984D02*
X0091993Y0117199D01*
X0091884Y0117412D01*
X0091770Y0117622D01*
X0091651Y0117829D01*
X0091528Y0118034D01*
X0091400Y0118236D01*
X0091267Y0118435D01*
X0091130Y0118630D01*
X0090989Y0118823D01*
X0090843Y0119012D01*
X0092095Y0108041D02*
X0091983Y0107811D01*
X0091866Y0107584D01*
X0091744Y0107360D01*
X0091616Y0107139D01*
X0091482Y0106922D01*
X0091344Y0106707D01*
X0091200Y0106496D01*
X0091051Y0106289D01*
X0090897Y0106085D01*
X0090739Y0105885D01*
X0090575Y0105689D01*
X0090407Y0105497D01*
X0090234Y0105309D01*
X0090056Y0105125D01*
X0089875Y0104946D01*
X0089688Y0104771D01*
X0089498Y0104601D01*
X0089304Y0104436D01*
X0089105Y0104275D01*
X0088903Y0104119D01*
X0088697Y0103968D01*
X0088487Y0103822D01*
X0088274Y0103682D01*
X0088058Y0103546D01*
X0087838Y0103416D01*
X0087615Y0103291D01*
X0087390Y0103172D01*
X0087161Y0103058D01*
X0086930Y0102950D01*
X0086696Y0102847D01*
X0086460Y0102750D01*
X0086221Y0102659D01*
X0085981Y0102574D01*
X0085738Y0102494D01*
X0085493Y0102421D01*
X0085247Y0102353D01*
X0084999Y0102292D01*
X0084750Y0102237D01*
X0084500Y0102187D01*
X0084248Y0102144D01*
X0083995Y0102107D01*
X0083742Y0102076D01*
X0083488Y0102051D01*
X0083233Y0102032D01*
X0082978Y0102020D01*
X0082723Y0102014D01*
X0082467Y0102014D01*
X0082212Y0102020D01*
X0081957Y0102032D01*
X0081702Y0102051D01*
X0081448Y0102076D01*
X0081195Y0102107D01*
X0080942Y0102144D01*
X0080690Y0102187D01*
X0080440Y0102237D01*
X0080191Y0102292D01*
X0079943Y0102353D01*
X0079697Y0102421D01*
X0079452Y0102494D01*
X0079209Y0102574D01*
X0078969Y0102659D01*
X0078730Y0102750D01*
X0078494Y0102847D01*
X0078260Y0102950D01*
X0078029Y0103058D01*
X0077800Y0103172D01*
X0077575Y0103291D01*
X0077352Y0103416D01*
X0077132Y0103546D01*
X0076916Y0103682D01*
X0076703Y0103822D01*
X0076493Y0103968D01*
X0076287Y0104119D01*
X0076085Y0104275D01*
X0075886Y0104436D01*
X0075692Y0104601D01*
X0075502Y0104771D01*
X0075315Y0104946D01*
X0075134Y0105125D01*
X0074956Y0105309D01*
X0074783Y0105497D01*
X0074615Y0105689D01*
X0074451Y0105885D01*
X0074293Y0106085D01*
X0074139Y0106289D01*
X0073990Y0106496D01*
X0073846Y0106707D01*
X0073708Y0106922D01*
X0073574Y0107139D01*
X0073446Y0107360D01*
X0073324Y0107584D01*
X0073207Y0107811D01*
X0073095Y0108041D01*
X0077068Y0113013D02*
X0078123Y0113013D01*
X0073049Y0116890D02*
X0073156Y0117115D01*
X0073268Y0117338D01*
X0073385Y0117558D01*
X0073507Y0117775D01*
X0073635Y0117990D01*
X0073768Y0118201D01*
X0073905Y0118409D01*
X0074048Y0118613D01*
X0074195Y0118815D01*
X0074347Y0119012D01*
X0083637Y0100267D02*
X0086640Y0100267D01*
X0085139Y0100267D02*
X0085139Y0095763D01*
X0088241Y0095763D02*
X0091244Y0095763D01*
X0089742Y0095763D02*
X0089742Y0100267D01*
X0088241Y0098765D01*
X0074095Y0090761D02*
X0074095Y0074265D01*
X0068095Y0076985D02*
X0068095Y0078040D01*
X0072067Y0073011D02*
X0072282Y0073115D01*
X0072495Y0073224D01*
X0072705Y0073338D01*
X0072912Y0073457D01*
X0073117Y0073580D01*
X0073319Y0073708D01*
X0073518Y0073841D01*
X0073713Y0073978D01*
X0073906Y0074119D01*
X0074095Y0074265D01*
X0063123Y0073013D02*
X0062893Y0073125D01*
X0062666Y0073242D01*
X0062442Y0073364D01*
X0062221Y0073492D01*
X0062004Y0073626D01*
X0061789Y0073764D01*
X0061578Y0073908D01*
X0061371Y0074057D01*
X0061167Y0074211D01*
X0060967Y0074369D01*
X0060771Y0074533D01*
X0060579Y0074701D01*
X0060391Y0074874D01*
X0060207Y0075052D01*
X0060028Y0075233D01*
X0059853Y0075420D01*
X0059683Y0075610D01*
X0059518Y0075804D01*
X0059357Y0076003D01*
X0059201Y0076205D01*
X0059050Y0076411D01*
X0058904Y0076621D01*
X0058764Y0076834D01*
X0058628Y0077050D01*
X0058498Y0077270D01*
X0058373Y0077493D01*
X0058254Y0077718D01*
X0058140Y0077947D01*
X0058032Y0078178D01*
X0057929Y0078412D01*
X0057832Y0078648D01*
X0057741Y0078887D01*
X0057656Y0079127D01*
X0057576Y0079370D01*
X0057503Y0079615D01*
X0057435Y0079861D01*
X0057374Y0080109D01*
X0057319Y0080358D01*
X0057269Y0080608D01*
X0057226Y0080860D01*
X0057189Y0081113D01*
X0057158Y0081366D01*
X0057133Y0081620D01*
X0057114Y0081875D01*
X0057102Y0082130D01*
X0057096Y0082385D01*
X0057096Y0082641D01*
X0057102Y0082896D01*
X0057114Y0083151D01*
X0057133Y0083406D01*
X0057158Y0083660D01*
X0057189Y0083913D01*
X0057226Y0084166D01*
X0057269Y0084418D01*
X0057319Y0084668D01*
X0057374Y0084917D01*
X0057435Y0085165D01*
X0057503Y0085411D01*
X0057576Y0085656D01*
X0057656Y0085899D01*
X0057741Y0086139D01*
X0057832Y0086378D01*
X0057929Y0086614D01*
X0058032Y0086848D01*
X0058140Y0087079D01*
X0058254Y0087308D01*
X0058373Y0087533D01*
X0058498Y0087756D01*
X0058628Y0087976D01*
X0058764Y0088192D01*
X0058904Y0088405D01*
X0059050Y0088615D01*
X0059201Y0088821D01*
X0059357Y0089023D01*
X0059518Y0089222D01*
X0059683Y0089416D01*
X0059853Y0089606D01*
X0060028Y0089793D01*
X0060207Y0089974D01*
X0060391Y0090152D01*
X0060579Y0090325D01*
X0060771Y0090493D01*
X0060967Y0090657D01*
X0061167Y0090815D01*
X0061371Y0090969D01*
X0061578Y0091118D01*
X0061789Y0091262D01*
X0062004Y0091400D01*
X0062221Y0091534D01*
X0062442Y0091662D01*
X0062666Y0091784D01*
X0062893Y0091901D01*
X0063123Y0092013D01*
X0068095Y0088040D02*
X0068095Y0086985D01*
X0071973Y0092059D02*
X0072198Y0091952D01*
X0072421Y0091840D01*
X0072641Y0091723D01*
X0072858Y0091601D01*
X0073073Y0091473D01*
X0073284Y0091340D01*
X0073492Y0091203D01*
X0073696Y0091060D01*
X0073898Y0090913D01*
X0074095Y0090761D01*
X0088841Y0083161D02*
X0088841Y0080159D01*
X0089592Y0078557D02*
X0091093Y0078557D01*
X0091844Y0077807D01*
X0091844Y0075555D01*
X0093345Y0075555D02*
X0088841Y0075555D01*
X0088841Y0077807D01*
X0089592Y0078557D01*
X0091844Y0077056D02*
X0093345Y0078557D01*
X0093345Y0080159D02*
X0092595Y0080159D01*
X0089592Y0083161D01*
X0088841Y0083161D01*
X0103841Y0073161D02*
X0103841Y0070159D01*
X0106093Y0070159D01*
X0105343Y0071660D01*
X0105343Y0072411D01*
X0106093Y0073161D01*
X0107595Y0073161D01*
X0108345Y0072411D01*
X0108345Y0070909D01*
X0107595Y0070159D01*
X0108345Y0068557D02*
X0106844Y0067056D01*
X0106844Y0067807D02*
X0106844Y0065555D01*
X0108345Y0065555D02*
X0103841Y0065555D01*
X0103841Y0067807D01*
X0104592Y0068557D01*
X0106093Y0068557D01*
X0106844Y0067807D01*
X0106095Y0074265D02*
X0106095Y0090761D01*
X0112095Y0088040D02*
X0112095Y0086985D01*
X0108124Y0092015D02*
X0107909Y0091911D01*
X0107696Y0091802D01*
X0107486Y0091688D01*
X0107279Y0091569D01*
X0107074Y0091446D01*
X0106872Y0091318D01*
X0106673Y0091185D01*
X0106478Y0091048D01*
X0106285Y0090907D01*
X0106096Y0090761D01*
X0117067Y0092013D02*
X0117297Y0091901D01*
X0117524Y0091784D01*
X0117748Y0091662D01*
X0117969Y0091534D01*
X0118186Y0091400D01*
X0118401Y0091262D01*
X0118612Y0091118D01*
X0118819Y0090969D01*
X0119023Y0090815D01*
X0119223Y0090657D01*
X0119419Y0090493D01*
X0119611Y0090325D01*
X0119799Y0090152D01*
X0119983Y0089974D01*
X0120162Y0089793D01*
X0120337Y0089606D01*
X0120507Y0089416D01*
X0120672Y0089222D01*
X0120833Y0089023D01*
X0120989Y0088821D01*
X0121140Y0088615D01*
X0121286Y0088405D01*
X0121426Y0088192D01*
X0121562Y0087976D01*
X0121692Y0087756D01*
X0121817Y0087533D01*
X0121936Y0087308D01*
X0122050Y0087079D01*
X0122158Y0086848D01*
X0122261Y0086614D01*
X0122358Y0086378D01*
X0122449Y0086139D01*
X0122534Y0085899D01*
X0122614Y0085656D01*
X0122687Y0085411D01*
X0122755Y0085165D01*
X0122816Y0084917D01*
X0122871Y0084668D01*
X0122921Y0084418D01*
X0122964Y0084166D01*
X0123001Y0083913D01*
X0123032Y0083660D01*
X0123057Y0083406D01*
X0123076Y0083151D01*
X0123088Y0082896D01*
X0123094Y0082641D01*
X0123094Y0082385D01*
X0123088Y0082130D01*
X0123076Y0081875D01*
X0123057Y0081620D01*
X0123032Y0081366D01*
X0123001Y0081113D01*
X0122964Y0080860D01*
X0122921Y0080608D01*
X0122871Y0080358D01*
X0122816Y0080109D01*
X0122755Y0079861D01*
X0122687Y0079615D01*
X0122614Y0079370D01*
X0122534Y0079127D01*
X0122449Y0078887D01*
X0122358Y0078648D01*
X0122261Y0078412D01*
X0122158Y0078178D01*
X0122050Y0077947D01*
X0121936Y0077718D01*
X0121817Y0077493D01*
X0121692Y0077270D01*
X0121562Y0077050D01*
X0121426Y0076834D01*
X0121286Y0076621D01*
X0121140Y0076411D01*
X0120989Y0076205D01*
X0120833Y0076003D01*
X0120672Y0075804D01*
X0120507Y0075610D01*
X0120337Y0075420D01*
X0120162Y0075233D01*
X0119983Y0075052D01*
X0119799Y0074874D01*
X0119611Y0074701D01*
X0119419Y0074533D01*
X0119223Y0074369D01*
X0119023Y0074211D01*
X0118819Y0074057D01*
X0118612Y0073908D01*
X0118401Y0073764D01*
X0118186Y0073626D01*
X0117969Y0073492D01*
X0117748Y0073364D01*
X0117524Y0073242D01*
X0117297Y0073125D01*
X0117067Y0073013D01*
X0112095Y0076985D02*
X0112095Y0078040D01*
X0108218Y0072967D02*
X0107993Y0073074D01*
X0107770Y0073186D01*
X0107550Y0073303D01*
X0107333Y0073425D01*
X0107118Y0073553D01*
X0106907Y0073686D01*
X0106699Y0073823D01*
X0106495Y0073966D01*
X0106293Y0074113D01*
X0106096Y0074265D01*
X0124841Y0083555D02*
X0124841Y0086557D01*
X0124841Y0085056D02*
X0129345Y0085056D01*
X0128595Y0088159D02*
X0129345Y0088909D01*
X0129345Y0090411D01*
X0128595Y0091161D01*
X0127093Y0091161D01*
X0126343Y0090411D01*
X0126343Y0089660D01*
X0127093Y0088159D01*
X0124841Y0088159D01*
X0124841Y0091161D01*
X0166095Y0090761D02*
X0166095Y0074265D01*
X0172095Y0076985D02*
X0172095Y0078040D01*
X0168218Y0072967D02*
X0167993Y0073074D01*
X0167770Y0073186D01*
X0167550Y0073303D01*
X0167333Y0073425D01*
X0167118Y0073553D01*
X0166907Y0073686D01*
X0166699Y0073823D01*
X0166495Y0073966D01*
X0166293Y0074113D01*
X0166096Y0074265D01*
X0177067Y0073013D02*
X0177297Y0073125D01*
X0177524Y0073242D01*
X0177748Y0073364D01*
X0177969Y0073492D01*
X0178186Y0073626D01*
X0178401Y0073764D01*
X0178612Y0073908D01*
X0178819Y0074057D01*
X0179023Y0074211D01*
X0179223Y0074369D01*
X0179419Y0074533D01*
X0179611Y0074701D01*
X0179799Y0074874D01*
X0179983Y0075052D01*
X0180162Y0075233D01*
X0180337Y0075420D01*
X0180507Y0075610D01*
X0180672Y0075804D01*
X0180833Y0076003D01*
X0180989Y0076205D01*
X0181140Y0076411D01*
X0181286Y0076621D01*
X0181426Y0076834D01*
X0181562Y0077050D01*
X0181692Y0077270D01*
X0181817Y0077493D01*
X0181936Y0077718D01*
X0182050Y0077947D01*
X0182158Y0078178D01*
X0182261Y0078412D01*
X0182358Y0078648D01*
X0182449Y0078887D01*
X0182534Y0079127D01*
X0182614Y0079370D01*
X0182687Y0079615D01*
X0182755Y0079861D01*
X0182816Y0080109D01*
X0182871Y0080358D01*
X0182921Y0080608D01*
X0182964Y0080860D01*
X0183001Y0081113D01*
X0183032Y0081366D01*
X0183057Y0081620D01*
X0183076Y0081875D01*
X0183088Y0082130D01*
X0183094Y0082385D01*
X0183094Y0082641D01*
X0183088Y0082896D01*
X0183076Y0083151D01*
X0183057Y0083406D01*
X0183032Y0083660D01*
X0183001Y0083913D01*
X0182964Y0084166D01*
X0182921Y0084418D01*
X0182871Y0084668D01*
X0182816Y0084917D01*
X0182755Y0085165D01*
X0182687Y0085411D01*
X0182614Y0085656D01*
X0182534Y0085899D01*
X0182449Y0086139D01*
X0182358Y0086378D01*
X0182261Y0086614D01*
X0182158Y0086848D01*
X0182050Y0087079D01*
X0181936Y0087308D01*
X0181817Y0087533D01*
X0181692Y0087756D01*
X0181562Y0087976D01*
X0181426Y0088192D01*
X0181286Y0088405D01*
X0181140Y0088615D01*
X0180989Y0088821D01*
X0180833Y0089023D01*
X0180672Y0089222D01*
X0180507Y0089416D01*
X0180337Y0089606D01*
X0180162Y0089793D01*
X0179983Y0089974D01*
X0179799Y0090152D01*
X0179611Y0090325D01*
X0179419Y0090493D01*
X0179223Y0090657D01*
X0179023Y0090815D01*
X0178819Y0090969D01*
X0178612Y0091118D01*
X0178401Y0091262D01*
X0178186Y0091400D01*
X0177969Y0091534D01*
X0177748Y0091662D01*
X0177524Y0091784D01*
X0177297Y0091901D01*
X0177067Y0092013D01*
X0184841Y0090411D02*
X0185592Y0091161D01*
X0186343Y0091161D01*
X0187093Y0090411D01*
X0187093Y0088909D01*
X0186343Y0088159D01*
X0185592Y0088159D01*
X0184841Y0088909D01*
X0184841Y0090411D01*
X0187093Y0090411D02*
X0187844Y0091161D01*
X0188595Y0091161D01*
X0189345Y0090411D01*
X0189345Y0088909D01*
X0188595Y0088159D01*
X0187844Y0088159D01*
X0187093Y0088909D01*
X0184841Y0086557D02*
X0184841Y0083555D01*
X0184841Y0085056D02*
X0189345Y0085056D01*
X0168124Y0092015D02*
X0167909Y0091911D01*
X0167696Y0091802D01*
X0167486Y0091688D01*
X0167279Y0091569D01*
X0167074Y0091446D01*
X0166872Y0091318D01*
X0166673Y0091185D01*
X0166478Y0091048D01*
X0166285Y0090907D01*
X0166096Y0090761D01*
X0172095Y0088040D02*
X0172095Y0086985D01*
X0194347Y0106013D02*
X0210843Y0106013D01*
X0208123Y0112013D02*
X0207068Y0112013D01*
X0212141Y0108135D02*
X0212034Y0107910D01*
X0211922Y0107687D01*
X0211805Y0107467D01*
X0211683Y0107250D01*
X0211555Y0107035D01*
X0211422Y0106824D01*
X0211285Y0106616D01*
X0211142Y0106412D01*
X0210995Y0106210D01*
X0210843Y0106013D01*
X0212095Y0116985D02*
X0211983Y0117215D01*
X0211866Y0117442D01*
X0211744Y0117666D01*
X0211616Y0117887D01*
X0211482Y0118104D01*
X0211344Y0118319D01*
X0211200Y0118530D01*
X0211051Y0118737D01*
X0210897Y0118941D01*
X0210739Y0119141D01*
X0210575Y0119337D01*
X0210407Y0119529D01*
X0210234Y0119717D01*
X0210056Y0119901D01*
X0209875Y0120080D01*
X0209688Y0120255D01*
X0209498Y0120425D01*
X0209304Y0120590D01*
X0209105Y0120751D01*
X0208903Y0120907D01*
X0208697Y0121058D01*
X0208487Y0121204D01*
X0208274Y0121344D01*
X0208058Y0121480D01*
X0207838Y0121610D01*
X0207615Y0121735D01*
X0207390Y0121854D01*
X0207161Y0121968D01*
X0206930Y0122076D01*
X0206696Y0122179D01*
X0206460Y0122276D01*
X0206221Y0122367D01*
X0205981Y0122452D01*
X0205738Y0122532D01*
X0205493Y0122605D01*
X0205247Y0122673D01*
X0204999Y0122734D01*
X0204750Y0122789D01*
X0204500Y0122839D01*
X0204248Y0122882D01*
X0203995Y0122919D01*
X0203742Y0122950D01*
X0203488Y0122975D01*
X0203233Y0122994D01*
X0202978Y0123006D01*
X0202723Y0123012D01*
X0202467Y0123012D01*
X0202212Y0123006D01*
X0201957Y0122994D01*
X0201702Y0122975D01*
X0201448Y0122950D01*
X0201195Y0122919D01*
X0200942Y0122882D01*
X0200690Y0122839D01*
X0200440Y0122789D01*
X0200191Y0122734D01*
X0199943Y0122673D01*
X0199697Y0122605D01*
X0199452Y0122532D01*
X0199209Y0122452D01*
X0198969Y0122367D01*
X0198730Y0122276D01*
X0198494Y0122179D01*
X0198260Y0122076D01*
X0198029Y0121968D01*
X0197800Y0121854D01*
X0197575Y0121735D01*
X0197352Y0121610D01*
X0197132Y0121480D01*
X0196916Y0121344D01*
X0196703Y0121204D01*
X0196493Y0121058D01*
X0196287Y0120907D01*
X0196085Y0120751D01*
X0195886Y0120590D01*
X0195692Y0120425D01*
X0195502Y0120255D01*
X0195315Y0120080D01*
X0195134Y0119901D01*
X0194956Y0119717D01*
X0194783Y0119529D01*
X0194615Y0119337D01*
X0194451Y0119141D01*
X0194293Y0118941D01*
X0194139Y0118737D01*
X0193990Y0118530D01*
X0193846Y0118319D01*
X0193708Y0118104D01*
X0193574Y0117887D01*
X0193446Y0117666D01*
X0193324Y0117442D01*
X0193207Y0117215D01*
X0193095Y0116985D01*
X0197068Y0112013D02*
X0198123Y0112013D01*
X0193093Y0108041D02*
X0193197Y0107826D01*
X0193306Y0107613D01*
X0193420Y0107403D01*
X0193539Y0107196D01*
X0193662Y0106991D01*
X0193790Y0106789D01*
X0193923Y0106590D01*
X0194060Y0106395D01*
X0194201Y0106202D01*
X0194347Y0106013D01*
X0194346Y0124763D02*
X0194346Y0129267D01*
X0192845Y0129267D02*
X0195848Y0129267D01*
X0197449Y0127015D02*
X0198950Y0128516D01*
X0200452Y0129267D01*
X0199701Y0127015D02*
X0197449Y0127015D01*
X0197449Y0125513D01*
X0198200Y0124763D01*
X0199701Y0124763D01*
X0200452Y0125513D01*
X0200452Y0126264D01*
X0199701Y0127015D01*
X0229095Y0095761D02*
X0229095Y0079265D01*
X0223095Y0081985D02*
X0223095Y0083040D01*
X0227067Y0078011D02*
X0227282Y0078115D01*
X0227495Y0078224D01*
X0227705Y0078338D01*
X0227912Y0078457D01*
X0228117Y0078580D01*
X0228319Y0078708D01*
X0228518Y0078841D01*
X0228713Y0078978D01*
X0228906Y0079119D01*
X0229095Y0079265D01*
X0218123Y0078013D02*
X0217893Y0078125D01*
X0217666Y0078242D01*
X0217442Y0078364D01*
X0217221Y0078492D01*
X0217004Y0078626D01*
X0216789Y0078764D01*
X0216578Y0078908D01*
X0216371Y0079057D01*
X0216167Y0079211D01*
X0215967Y0079369D01*
X0215771Y0079533D01*
X0215579Y0079701D01*
X0215391Y0079874D01*
X0215207Y0080052D01*
X0215028Y0080233D01*
X0214853Y0080420D01*
X0214683Y0080610D01*
X0214518Y0080804D01*
X0214357Y0081003D01*
X0214201Y0081205D01*
X0214050Y0081411D01*
X0213904Y0081621D01*
X0213764Y0081834D01*
X0213628Y0082050D01*
X0213498Y0082270D01*
X0213373Y0082493D01*
X0213254Y0082718D01*
X0213140Y0082947D01*
X0213032Y0083178D01*
X0212929Y0083412D01*
X0212832Y0083648D01*
X0212741Y0083887D01*
X0212656Y0084127D01*
X0212576Y0084370D01*
X0212503Y0084615D01*
X0212435Y0084861D01*
X0212374Y0085109D01*
X0212319Y0085358D01*
X0212269Y0085608D01*
X0212226Y0085860D01*
X0212189Y0086113D01*
X0212158Y0086366D01*
X0212133Y0086620D01*
X0212114Y0086875D01*
X0212102Y0087130D01*
X0212096Y0087385D01*
X0212096Y0087641D01*
X0212102Y0087896D01*
X0212114Y0088151D01*
X0212133Y0088406D01*
X0212158Y0088660D01*
X0212189Y0088913D01*
X0212226Y0089166D01*
X0212269Y0089418D01*
X0212319Y0089668D01*
X0212374Y0089917D01*
X0212435Y0090165D01*
X0212503Y0090411D01*
X0212576Y0090656D01*
X0212656Y0090899D01*
X0212741Y0091139D01*
X0212832Y0091378D01*
X0212929Y0091614D01*
X0213032Y0091848D01*
X0213140Y0092079D01*
X0213254Y0092308D01*
X0213373Y0092533D01*
X0213498Y0092756D01*
X0213628Y0092976D01*
X0213764Y0093192D01*
X0213904Y0093405D01*
X0214050Y0093615D01*
X0214201Y0093821D01*
X0214357Y0094023D01*
X0214518Y0094222D01*
X0214683Y0094416D01*
X0214853Y0094606D01*
X0215028Y0094793D01*
X0215207Y0094974D01*
X0215391Y0095152D01*
X0215579Y0095325D01*
X0215771Y0095493D01*
X0215967Y0095657D01*
X0216167Y0095815D01*
X0216371Y0095969D01*
X0216578Y0096118D01*
X0216789Y0096262D01*
X0217004Y0096400D01*
X0217221Y0096534D01*
X0217442Y0096662D01*
X0217666Y0096784D01*
X0217893Y0096901D01*
X0218123Y0097013D01*
X0223095Y0093040D02*
X0223095Y0091985D01*
X0226973Y0097059D02*
X0227198Y0096952D01*
X0227421Y0096840D01*
X0227641Y0096723D01*
X0227858Y0096601D01*
X0228073Y0096473D01*
X0228284Y0096340D01*
X0228492Y0096203D01*
X0228696Y0096060D01*
X0228898Y0095913D01*
X0229095Y0095761D01*
X0213345Y0082411D02*
X0212595Y0083161D01*
X0209592Y0083161D01*
X0208841Y0082411D01*
X0208841Y0080909D01*
X0209592Y0080159D01*
X0210343Y0080159D01*
X0211093Y0080909D01*
X0211093Y0083161D01*
X0210345Y0082367D02*
X0209595Y0082367D01*
X0206592Y0085369D01*
X0205841Y0085369D01*
X0205841Y0082367D01*
X0205841Y0080765D02*
X0205841Y0077763D01*
X0205841Y0079264D02*
X0210345Y0079264D01*
X0211093Y0078557D02*
X0211844Y0077807D01*
X0211844Y0075555D01*
X0213345Y0075555D02*
X0208841Y0075555D01*
X0208841Y0077807D01*
X0209592Y0078557D01*
X0211093Y0078557D01*
X0211844Y0077056D02*
X0213345Y0078557D01*
X0212595Y0080159D02*
X0213345Y0080909D01*
X0213345Y0082411D01*
X0181345Y0062973D02*
X0181345Y0059971D01*
X0181345Y0061472D02*
X0176841Y0061472D01*
X0178343Y0059971D01*
X0181345Y0058369D02*
X0181345Y0055367D01*
X0181345Y0056868D02*
X0176841Y0056868D01*
X0178343Y0055367D01*
X0179093Y0053765D02*
X0179844Y0053015D01*
X0179844Y0050763D01*
X0179844Y0052264D02*
X0181345Y0053765D01*
X0179093Y0053765D02*
X0177592Y0053765D01*
X0176841Y0053015D01*
X0176841Y0050763D01*
X0181345Y0050763D01*
X0206841Y0042223D02*
X0207592Y0042973D01*
X0210595Y0039971D01*
X0211345Y0040721D01*
X0211345Y0042223D01*
X0210595Y0042973D01*
X0207592Y0042973D01*
X0206841Y0042223D02*
X0206841Y0040721D01*
X0207592Y0039971D01*
X0210595Y0039971D01*
X0211345Y0038369D02*
X0211345Y0035367D01*
X0211345Y0036868D02*
X0206841Y0036868D01*
X0208343Y0035367D01*
X0209093Y0033765D02*
X0207592Y0033765D01*
X0206841Y0033015D01*
X0206841Y0030763D01*
X0211345Y0030763D01*
X0209844Y0030763D02*
X0209844Y0033015D01*
X0209093Y0033765D01*
X0209844Y0032264D02*
X0211345Y0033765D01*
X0236341Y0034223D02*
X0236341Y0032721D01*
X0237092Y0031971D01*
X0236341Y0030369D02*
X0239344Y0030369D01*
X0240845Y0028868D01*
X0239344Y0027367D01*
X0236341Y0027367D01*
X0237092Y0025765D02*
X0236341Y0025015D01*
X0236341Y0023513D01*
X0237092Y0022763D01*
X0237843Y0022763D01*
X0238593Y0023513D01*
X0238593Y0025015D01*
X0239344Y0025765D01*
X0240095Y0025765D01*
X0240845Y0025015D01*
X0240845Y0023513D01*
X0240095Y0022763D01*
X0240845Y0031971D02*
X0237843Y0034973D01*
X0237092Y0034973D01*
X0236341Y0034223D01*
X0240845Y0034973D02*
X0240845Y0031971D01*
X0264341Y0027264D02*
X0268845Y0027264D01*
X0268845Y0025763D02*
X0268845Y0028765D01*
X0265843Y0025763D02*
X0264341Y0027264D01*
X0240095Y0057763D02*
X0239344Y0057763D01*
X0238593Y0058513D01*
X0238593Y0060015D01*
X0239344Y0060765D01*
X0240095Y0060765D01*
X0240845Y0060015D01*
X0240845Y0058513D01*
X0240095Y0057763D01*
X0238593Y0058513D02*
X0237843Y0057763D01*
X0237092Y0057763D01*
X0236341Y0058513D01*
X0236341Y0060015D01*
X0237092Y0060765D01*
X0237843Y0060765D01*
X0238593Y0060015D01*
X0265841Y0072763D02*
X0265841Y0075765D01*
X0265841Y0074264D02*
X0270345Y0074264D01*
X0270345Y0077367D02*
X0270345Y0080369D01*
X0270345Y0078868D02*
X0265841Y0078868D01*
X0267343Y0077367D01*
X0266592Y0081971D02*
X0265841Y0082721D01*
X0265841Y0084223D01*
X0266592Y0084973D01*
X0267343Y0084973D01*
X0270345Y0081971D01*
X0270345Y0084973D01*
X0287067Y0073011D02*
X0287282Y0073115D01*
X0287495Y0073224D01*
X0287705Y0073338D01*
X0287912Y0073457D01*
X0288117Y0073580D01*
X0288319Y0073708D01*
X0288518Y0073841D01*
X0288713Y0073978D01*
X0288906Y0074119D01*
X0289095Y0074265D01*
X0283095Y0076985D02*
X0283095Y0078040D01*
X0278123Y0073013D02*
X0277893Y0073125D01*
X0277666Y0073242D01*
X0277442Y0073364D01*
X0277221Y0073492D01*
X0277004Y0073626D01*
X0276789Y0073764D01*
X0276578Y0073908D01*
X0276371Y0074057D01*
X0276167Y0074211D01*
X0275967Y0074369D01*
X0275771Y0074533D01*
X0275579Y0074701D01*
X0275391Y0074874D01*
X0275207Y0075052D01*
X0275028Y0075233D01*
X0274853Y0075420D01*
X0274683Y0075610D01*
X0274518Y0075804D01*
X0274357Y0076003D01*
X0274201Y0076205D01*
X0274050Y0076411D01*
X0273904Y0076621D01*
X0273764Y0076834D01*
X0273628Y0077050D01*
X0273498Y0077270D01*
X0273373Y0077493D01*
X0273254Y0077718D01*
X0273140Y0077947D01*
X0273032Y0078178D01*
X0272929Y0078412D01*
X0272832Y0078648D01*
X0272741Y0078887D01*
X0272656Y0079127D01*
X0272576Y0079370D01*
X0272503Y0079615D01*
X0272435Y0079861D01*
X0272374Y0080109D01*
X0272319Y0080358D01*
X0272269Y0080608D01*
X0272226Y0080860D01*
X0272189Y0081113D01*
X0272158Y0081366D01*
X0272133Y0081620D01*
X0272114Y0081875D01*
X0272102Y0082130D01*
X0272096Y0082385D01*
X0272096Y0082641D01*
X0272102Y0082896D01*
X0272114Y0083151D01*
X0272133Y0083406D01*
X0272158Y0083660D01*
X0272189Y0083913D01*
X0272226Y0084166D01*
X0272269Y0084418D01*
X0272319Y0084668D01*
X0272374Y0084917D01*
X0272435Y0085165D01*
X0272503Y0085411D01*
X0272576Y0085656D01*
X0272656Y0085899D01*
X0272741Y0086139D01*
X0272832Y0086378D01*
X0272929Y0086614D01*
X0273032Y0086848D01*
X0273140Y0087079D01*
X0273254Y0087308D01*
X0273373Y0087533D01*
X0273498Y0087756D01*
X0273628Y0087976D01*
X0273764Y0088192D01*
X0273904Y0088405D01*
X0274050Y0088615D01*
X0274201Y0088821D01*
X0274357Y0089023D01*
X0274518Y0089222D01*
X0274683Y0089416D01*
X0274853Y0089606D01*
X0275028Y0089793D01*
X0275207Y0089974D01*
X0275391Y0090152D01*
X0275579Y0090325D01*
X0275771Y0090493D01*
X0275967Y0090657D01*
X0276167Y0090815D01*
X0276371Y0090969D01*
X0276578Y0091118D01*
X0276789Y0091262D01*
X0277004Y0091400D01*
X0277221Y0091534D01*
X0277442Y0091662D01*
X0277666Y0091784D01*
X0277893Y0091901D01*
X0278123Y0092013D01*
X0143345Y0063161D02*
X0143345Y0060159D01*
X0140343Y0063161D01*
X0139592Y0063161D01*
X0138841Y0062411D01*
X0138841Y0060909D01*
X0139592Y0060159D01*
X0138841Y0057056D02*
X0143345Y0057056D01*
X0143345Y0055555D02*
X0143345Y0058557D01*
X0140343Y0055555D02*
X0138841Y0057056D01*
X0139592Y0053954D02*
X0141093Y0053954D01*
X0141844Y0053203D01*
X0141844Y0050951D01*
X0143345Y0050951D02*
X0138841Y0050951D01*
X0138841Y0053203D01*
X0139592Y0053954D01*
X0141844Y0052452D02*
X0143345Y0053954D01*
X0055345Y0074264D02*
X0050841Y0074264D01*
X0050841Y0072763D02*
X0050841Y0075765D01*
X0051592Y0077367D02*
X0050841Y0078117D01*
X0050841Y0079619D01*
X0051592Y0080369D01*
X0052343Y0080369D01*
X0055345Y0077367D01*
X0055345Y0080369D01*
X0389341Y0181555D02*
X0389341Y0183807D01*
X0390092Y0184557D01*
X0393095Y0184557D01*
X0393845Y0183807D01*
X0393845Y0181555D01*
X0389341Y0181555D01*
X0390092Y0186159D02*
X0390843Y0186159D01*
X0391593Y0186909D01*
X0391593Y0188411D01*
X0392344Y0189161D01*
X0393095Y0189161D01*
X0393845Y0188411D01*
X0393845Y0186909D01*
X0393095Y0186159D01*
X0392344Y0186159D01*
X0391593Y0186909D01*
X0391593Y0188411D02*
X0390843Y0189161D01*
X0390092Y0189161D01*
X0389341Y0188411D01*
X0389341Y0186909D01*
X0390092Y0186159D01*
X0428637Y0165316D02*
X0428637Y0162313D01*
X0429388Y0161563D01*
X0430889Y0161563D01*
X0431640Y0162313D01*
X0431640Y0165316D01*
X0430889Y0166067D01*
X0429388Y0166067D01*
X0428637Y0165316D01*
X0430139Y0163064D02*
X0431640Y0161563D01*
X0433241Y0161563D02*
X0433241Y0162313D01*
X0436244Y0165316D01*
X0436244Y0166067D01*
X0433241Y0166067D01*
D15*
X0417595Y0144013D03*
X0417595Y0199013D03*
X0297595Y0216013D03*
X0297595Y0161013D03*
X0202595Y0144013D03*
X0202595Y0199013D03*
X0082595Y0216013D03*
X0082595Y0161013D03*
D16*
X0065345Y0158513D03*
X0099845Y0158513D03*
X0099845Y0213513D03*
X0065345Y0213513D03*
X0185345Y0201513D03*
X0219845Y0201513D03*
X0280345Y0213513D03*
X0314845Y0213513D03*
X0314845Y0158513D03*
X0280345Y0158513D03*
X0219845Y0146513D03*
X0185345Y0146513D03*
X0400345Y0146513D03*
X0434845Y0146513D03*
X0434845Y0201513D03*
X0400345Y0201513D03*
D17*
X0412595Y0201513D03*
X0422595Y0201513D03*
X0422595Y0146513D03*
X0412595Y0146513D03*
X0302595Y0158513D03*
X0292595Y0158513D03*
X0292595Y0213513D03*
X0302595Y0213513D03*
X0207595Y0201513D03*
X0197595Y0201513D03*
X0197595Y0146513D03*
X0207595Y0146513D03*
X0087595Y0158513D03*
X0077595Y0158513D03*
X0077595Y0213513D03*
X0087595Y0213513D03*
D18*
X0117595Y0213313D03*
X0117595Y0241713D03*
X0072595Y0253313D03*
X0072595Y0281713D03*
X0212595Y0281713D03*
X0212595Y0253313D03*
X0287595Y0253313D03*
X0287595Y0281713D03*
X0332595Y0241713D03*
X0332595Y0213313D03*
X0427595Y0253313D03*
X0427595Y0281713D03*
X0417595Y0086713D03*
X0402595Y0076713D03*
X0417595Y0058313D03*
X0432595Y0056713D03*
X0402595Y0048313D03*
X0432595Y0028313D03*
X0347595Y0038313D03*
X0312595Y0048313D03*
X0297595Y0058313D03*
X0312595Y0076713D03*
X0297595Y0086713D03*
X0347595Y0066713D03*
X0217595Y0056713D03*
X0202595Y0058313D03*
X0187595Y0048313D03*
X0217595Y0028313D03*
X0187595Y0076713D03*
X0202595Y0086713D03*
X0132595Y0066713D03*
X0097595Y0076713D03*
X0082595Y0086713D03*
X0082595Y0058313D03*
X0097595Y0048313D03*
X0132595Y0038313D03*
D19*
G36*
X0166423Y0211611D02*
X0166418Y0215010D01*
X0168817Y0215015D01*
X0168822Y0211616D01*
X0166423Y0211611D01*
G37*
X0193395Y0232513D03*
G36*
X0166373Y0240011D02*
X0166368Y0243410D01*
X0168767Y0243415D01*
X0168772Y0240016D01*
X0166373Y0240011D01*
G37*
X0221795Y0232513D03*
X0278395Y0232513D03*
X0306795Y0232513D03*
G36*
X0381373Y0240011D02*
X0381368Y0243410D01*
X0383767Y0243415D01*
X0383772Y0240016D01*
X0381373Y0240011D01*
G37*
X0408395Y0232513D03*
X0436795Y0232513D03*
G36*
X0381423Y0211611D02*
X0381418Y0215010D01*
X0383817Y0215015D01*
X0383822Y0211616D01*
X0381423Y0211611D01*
G37*
X0091795Y0232513D03*
X0063395Y0232513D03*
D20*
X0141395Y0195013D02*
X0141395Y0192513D01*
X0141395Y0190013D01*
X0143895Y0190013D02*
X0143895Y0192513D01*
X0143895Y0195013D01*
X0356395Y0195013D02*
X0356395Y0192513D01*
X0356395Y0190013D01*
X0358895Y0190013D02*
X0358895Y0192513D01*
X0358895Y0195013D01*
D21*
X0382536Y0188013D03*
X0332536Y0188013D03*
X0332536Y0148013D03*
X0382536Y0148013D03*
X0167536Y0148013D03*
X0117536Y0148013D03*
X0117536Y0188013D03*
X0167536Y0188013D03*
D22*
X0167595Y0191960D03*
X0167595Y0173066D03*
X0167595Y0151960D03*
X0167595Y0133066D03*
X0117595Y0133066D03*
X0117595Y0151960D03*
X0117595Y0173066D03*
X0117595Y0191960D03*
X0332595Y0191960D03*
X0332595Y0173066D03*
X0332595Y0151960D03*
X0332595Y0133066D03*
X0382595Y0133066D03*
X0382595Y0151960D03*
X0382595Y0173066D03*
X0382595Y0191960D03*
M02*
